<?xml version="1.0" encoding="UTF-8"?>
<svg id="Calque_1" data-name="Calque 1" xmlns="http://www.w3.org/2000/svg" width="897" height="251.31" viewBox="0 0 897 251.31">
  <g>
    <path d="M76.73,78.52c.21.09.72,1.23.81,1.45s.78.02.61,0l.43-2.48c.09-.52,1.87.06,2.13.52.35.6.97,1.84,1.54,1.87l2.2.11-1.89-1.87c-.41-.41.87-1.8,1.38-1.89l-1.08-1.76,3.7-1.02-1.17-1.05-.45-4.14c-1.26,2.44-3.51,4.1-4.68,3.71-.4-.13-.88-1.33-.73-1.73.33-.92,1.97-1.77,3.25-2.38l-2.48-1.18c-.74-.87-.14-2.48,1.06-2.96.93-.38,2.06.55,3.03,1.63-.12-.69-.31-2.32.24-2.62s2.24.59,2.22,1.2l-.11,2.44c1.35-.59,1.84-.73,3.5-.71,0-.26-.79-1.36-1.51-2.07-1.06-1.05.14-3.16,1.48-3.16l1.75,1.9-.34-2.08c-.09-.57,2.13-1.14,2.32-.58l.87,2.5.73-1.44c.22-.43,1.93-.4,2,.08l.3,2.02,1.1,1.15c.65.67-2.84,1.33-2.61,1.71s.85,1.35.78,1.24c.42-.66,1.26-1.93,1.57-1.6l1.44,1.5,1.14-1.71c.33-.49,1.62.79,2.1,1.65.03.19,1.45-.74,1.78-1.06l-2.57-.89-.37-3.23c-.05-.43.8-1.4,1.2-1.25l1.97.7-.58-2.17,4.14.65.36-1.54c.1-.45-2.85-.05-2.86-.95,0-.51.35-1.49.69-2.11l.32-1.11-1.55.94c-.26.15-.91-.55-1.08-.68l-.45,2.23c-.46.53-1.22.74-1.95.49l-1.36-1.75c-.26.41-.85,1.31-1.27,1.62-.49.36-1.88-.37-2.11-.93-1.03-2.54,2.39-2.6,2.11-4.44l-1.19.77c-.2.13-.86-.1-.85-.34l.04-1.17-2.88,1.24c-.68.28-1.75-1.69-1.26-2.34.45-.6,1.74-.91,2.79-.99l-1.56-1.57c-.3-.3.31-1.43.73-1.41l2.07.09c.09-.72,1.18-2.01,1.96-1.85.67.14,1.22,1.24,1.86,2.54l.56-2.55c-.61-.08-1.35-.24-1.28-.57l.37-1.96c-.58.06-1.34.21-1.64-.19-.35-.47-.65-1.64-.35-2.05s1.43-.66,2.48-.83l-.96-1.8c-.25-.47.96-1.68,1.48-1.58,1.88.35,2.13,2.71,2.26,2.4-.02.06.5-.37.5-.37s-.05-.59-.03-.73l.18-1.49c.04-.32.99.37,1.35.71l1.83-1.25c.77.32,1.64,1.88,1.36,2.93-.2.77-1.11,1.5-2.36,2.51.82-.05,2.69-.43,3.42-.91.42-.28-.06-2.35.45-2.3l2.25.21,3.73-.86-1.11-1.39c-.6-.76-2.29.91-4.34-.36-.51-.31-.36-2.19.27-2.21l3.87-.12-2.74-1.36c-.63-.31.35-2.48,1.03-2.28.71.21,1.55.54,1.97.82.63.43-.38,5.01,1.1,4.16.93-.54.78-2.51.68-3.59-.06-.63,1.09-1.87,1.73-1.88s1.72.66,1.96,1.25c.36.91-.49,2.12-1.21,2.61l-1.44.98,2.73-.1c.57-.02.93,1.81.72,2.01l-2.23.37c-.56.09-.84,1.32-.89,1.99.55,0,1.19-.12,1.32.16.16.35.23,1.3.19,1.71l-.16,1.43c-.07.62,3.24-.56,5.29,1.01.33.05,1.17-.11,1.36.13l.91,1.15.54.69c.08.11.33.12.32-.02l-.05-.93-.07-1.57c-.02-.41,1.13-.48,1.51-.43.2-.8.75-1.95,1.39-2.06,3.17-.55,1.44,4.09,4.81,4.64.34-1.53-1.79-2.46-1.15-4.22.19-.54,1.46-1.14,2.02-1.01.83.18,3.11,3.03,2.55,1.7-.84-2-2.04-2.4-1.68-2.71l1.29-1.08-1.24-1c-.25-.2.43-.99.68-1.31.01-.05-.58-.52-.68-.37l-.7,1.05c-.15.23-.47.93-.74.93h-1.33c-.75-.02-2.16-.59-2.22-1.29-.08-.93.56-1.88,1.36-2.93l-2.45.42c-.41-.18-.95-1.56-.67-2.07.33-.59,1.75-.85,2.65-.91-.48-.5-1.32-1.35-1.57-1.87s.86-1.53,1.4-1.75c.62-.25,1.99.45,2.47.87.35-.89,1.23-2.08,1.88-2,.83.09,1.32.89,1.96,2.38.24-.45.7-1.69,1.04-2.81l1.8-.83-3.39-.91c-.56-.15-1.56-1.36-1.4-1.92.19-.65,1.53-1.05,2.65-1.3l-1.48-1.17c-.35-.44.9-2.27,1.69-2.21.75.05,1.7.97,2.82,1.93l-.02-2.48c0-.56,1.57-.96,2.09-.79s1.16,1.28,1.15,1.84l-.02,1.35c-.03,1.73,1.13-2.17,2.64-2.36,1.15-.14,2.1,1.35,1.84,2.44l2.94-1.1.63-1.06c.46-.78-2.81-.39-2.71-2.21.03-.52,1.17-1.09,1.69-1.13l1.44-.11-1.25-1.54c-.25-.31,1.05-.87,1.39-1.15l1.7-1.38c.39-.32,1.25.97,1.56,1.81l1.48-1.24c.4-.33,1.4.59,1.48,1.1s-.73,1.39-1.3,1.77l.36.54.56.83c1-1.75,2.31-2.9,4.22-2.09.37.16,1.57.43,1.5.83l-.42,2.33c.23.14,1.94.63,2.59.46l2.5-.65c-.36-.7-.79-1.54-.69-2.01.11-.55,1.59-.74,2.12-.7.41-.47,1.2-1.47,1.78-1.65s1.48,1.07,1.76,1.8l1.19-.92c.29-.22,1.14.17,1.32.49.23.4.04,1.6-.34,1.87l-1.57,1.1c-.36.26-.03,1.76.14,1.97.71-1.09,1.75-2.53,2.55-2.4.41.36,1.44,1.28,1.25,1.11-.12-1.35-.24-2.34.21-2.75.56-.51,1.85-.11,2.45.27.65-.16,1.71-.5,2.28-.42.66.09.78,1.98.49,2.55l1.94-.24c.44-.05,1.04,1.32.88,1.8-.41,1.3-2.3,2.05-3.84,1.46l-.05,1.42,2.58,1c.57-.12,1.26-.27,1.74-.26s1.03,1.47.95,1.99c-.31,1.97-1.83,3.92-3.83,4.41-.4-.22-1.14-.89-1.41-.68-.33.25-1.49,1.12-1.25.94l2.67,1.78-1.9,2.46,2.36,1.28,1.72-1.72c.41-.41,1.55.89,1.94,1.69l2.18-1.22-2.22-.72c-.48-.16.31-1.45.42-1.96l.44-1.99c.12-.52,1.82.19,1.98.43l.76-1.92c.19-.47,1.81-.6,2-.14l.81,1.97,1.35-1.09c.37-.3,1.69.27,1.63.74s-.34,1.25-.67,2.1c-.44.62-.42,1.03.24.36l1.15-.86c.27-.21.97.5,1.26.81.62.25.91.37.51.2l-.57-2.58c-.13-.59,1.47-1.45,2.02-1.22s1.06.94,1.84,1.87l1.03-1.63c.59-.93,3.66,1.03,3.21,1.78l-.96,1.59,2.64.34c.62.08.73,3.37.31,3.55l-2.35,1.04c-.71-.44.42.26.71.44.63.02,1.67.29,1.6.66l-.39,2.11s.65-.84.94-1.22c.33-.43,1.97-1.11,2.23-.64s.24,1.09.28,2.02l1.9-1.49c.41-.32,1.75.8,1.77,1.32.02.61-.72,1.33-1.74,2.31l2.54.75c-.1.74-.32,2.43-.64,3.07-.68,1.33-2.97.61-3.96-.83-.1,1.45.48,2.73,1.83,4.18-.35.86-1.58,1.92-3.02,2.28-.69.17-1.88-1.31-1.95-2.06l-1.51,1.65c-.38.42-1.9-.6-2.04-1.15s.25-1.19.88-2.33l-2.96.46.38,1.53c.2.8-2.9.57-3.59,3.09l3.19.18c.44.02,1.76.65,1.56,1.05l-1.05,2.1,2.58-1.57c.55.14,1.76,1.26,1.93,1.93.18.72-1.1,1.53-2.29,2.11l1.74.64c.47.17.75,1.77.27,1.92l-2.42.74,1.2,1.46,3.19-2.18,1.89,2.36,2.36-1.45-2.38-.76c-.43-.14-.47-1.49-.08-1.73l1.55-.93c-.43-.75-.84-1.76-.61-2.28.39-.92,1.74-1.55,2.32-.28l1.31-1.75,2.99,2.35c.13.1.34.91.48.84.16-.08.56-.24.55-.3l-.14-.84-.26-1.75c-.06-.39.92-1.13,1.26-.93l1.53.88c.42-.57,1.3-1.49,1.89-1.6.76-.14,1.66,1.34,1.63,2.32l1.13.33c.36.11.98,1.11.66,1.28l-1.8,1,1.79-.12c.42-.03,1.09.81,1.15,1.23.08.5-.76,1.33-1.37,1.73l.88,1.11c.81,1.02-2.04,2.04-1.9,2.2l.92,1.07c.18.21.6-.41.92-.84l1.7-1.12c.4-.26,1.44.82,1.66,1.01l2.08-.78c.5-.19,1.52,1.31,1.34,1.57l-1.23,1.71,1.9-.29c.37-.06.99.67.85,1.02l-.65,1.64,1.95,1.27c.48.32-.19,2.12-.77,2.18s-1.35-.37-2.42-.91l.62,1.35c.16.35-.47,1.25-.86,1.28s-1.28-.31-1.55-.59l-1.64-1.72.21,2.78c.48.23,1.78.87,1.95,1.45s-.91,1.38-1.78,1.95l2.6.75v-.19c.12-.6.47-1.79.9-2.02.52-.28,1.57.63,2.15.68l1.91.13c.45.03,1.17,1.04,1,1.45-.21.49-1.11,1.01-1.73,1.37l-1.08.62c-.3.17.68.8,1.02.82.8.05,1.36.07,1.81.21s.79,1.45.64,1.9c-.36,1.06-2.55,1.93-3.69.9l-1.67-1.52c-.37-.33-1.82.29-1.81.62l1.33,1.21c.27.25.27,1.06.37,1.49.43.64.98,1.65.7,2.12-.78,1.33-4.24.76-4.26.53l-.2-2.23-1.64,2.31c-.71-.08-2.27-.99-2.39-1.72-.15-.94.73-2.15,1.53-2.96l-1.22.17c-1.03.14-.74-1.1-2.51-.99-.4.02-.15,1.16.14,1.78.2.43-.83,1.61-1.27,1.39l-1.85-.93-.96-.48c-.21-.1-.92.35-.8.55.89,1.52,3.38,1.32,4.61,3.71.32.61-.35,2.28-.93,2.56-.64.31-1.59.09-2.7-.55l-.83,3.3c-.06.22-.72.74-.89.88s.02.83.24.76c1.58-.45,1.75-1.37,3.07-1.52.49-.06,1.38.62,1.9,1.02.19-.52.61-1.5,1.11-1.81s1.87.21,2.23.68c.42.55.37,2.12-.03,2.68l-.63.87c-.17.23.2,1.03.31,1,.78-.48,1.74-1.03,2.34-1.08s1.23,1.15,1.49,1.99c.19-.03.71-.77.59-1.07l-.77-1.93,2.19.51-1.1-2.03c-.22-.4,2.37-2.63,3.76-2.69.57-.02,1.11,1.46,1.49,1.89l1.96,2.22c.17.19.88.9.91.65l.22-1.69.13-1.05c.03-.27.85-.54.94-.28l.48,1.37c-.72.81-.38.96.36.54.5-.65,1.45-1.73,1.94-1.43.54.33,1.47,1.22,1.79,1.71s-.89,1.54-1.27,1.71l1.89.9c.42.2-.16,1.83-.62,1.84l-2.13.06s.37,1.04.05,1.11l-1.66.38,1.41.78c.37.21-.35,1.13-.91,1.66l1.17.56c.31.15,1.04-1.88,2.9-1.81.48.02.77,1.39.83,1.87l1.58-.79c.41-.21,1.78.3,1.65.74l-.53,1.92,2.15.64c.52.16.81,1.52.54,1.99-.2.35-.73.9-.98.82l-1.66-.55.62,2.18c.13.45-1.23,1.12-1.62.89l-1.76-1.03c.57,1.7.53,2.86-.45,4.17l3.8-.16.99,1.62c.25.41-.96,1.15-1.69,1.32-1.14-.05-1.06.54-.06.72.9.35,1.86,1.23,1.92,1.89.09.94-.84,2.17-1.59,2.22-2.52.15-1.53-3.11-4.93-3.29l.6,2.97c.09.44-.91,1.81-1.29,1.56l-1.83-1.19-1.82.06c-.43.01-1.17-1.15-.9-1.49l1.46-1.86c-.04-.65-.41-1.26-.54-.09-.61.37-1.18.66-1.54.63-.45-.04-1.54-.8-1.37-1.22s.6-1.07.94-1.58l-2.21-1.2c-.02.78.07,1.99-.32,2.11l-2.05.6,1.23,1.65c.35.47-.42,2.02-.98,2.21s-1.57-.29-2.27-.44l-1.78.93c-.41.21-.83-1.25-1.04-1.65l-.6-1.17c-.16-.32-1.42-.1-1.25.06l1.54,2.45c.36.57-.82,1.92-1.67,2.3l2.12,1.5c.48-.68,1.72-1.6,2.29-1.33l2.33,1.11,2.23.8c.55.2-.2,1.56-.9,2.09l2.07.21c.51.05.3,1.74.26,2.25l-.17,1.96c-.05.55-1.83.25-2.41-.07-.23.21-.71,1.17-1.12,1.13l-2.17-.18,1.64,1.69-.43,1.29c-.34,1,2.19-1.91,3.78-1.12.66.33,1.52,1.85,1.39,2.31l-2.74,1.22,2.4.24c.44.04.99.97.73,1.34l-1.15,1.62-1.65,2.22-4.39-2.66,1.31,2.77c.11.44-.57,2.08-1.1,2.08s-1.18-.24-1.93-.47l-1.69.68c-.4.16-.86-1.25-1.09-1.61l-1.07-.62c-.3-.18-.55-1.06-.3-1.32l1.08-1.13c.3-.31-.41-1.51-.54-1.48-.44,1.12-1.05,1.81-1.97,1.61-.6-.13-1.13-1.16-1.47-2.42l-.96,2.71c-.26.73-2.08.05-2.8-.98-.85.74-1.68,2.14-1.9,3.3,1.42-.97,3.28-1.15,4.5-.78.51.15.82,1.4.83,2.03l-2.94.46c-.28.04-.7,1.09-.51,1.05l.99-.21c.57-.12,1.86.52,2.02,1.08s-.56,1.78-1.17,1.99c-.55.19-1.31-.56-1.96-1.15l-.3,1.83c-.08.5-1.66.94-1.9.49l-1.03-1.9-1.58,1.54c-.44.43-1.99-.75-1.9-1.39s.79-1.44,1.34-1.97l-.84-.98c-.21-.25.41-.93.7-1.28l-3.01-.93.05,2.1c.01.51-1.17.79-1.62,1.03l-1.64.87c-.38.2-1.4-.86-1.21-1.24l.76-1.51-1.75-.36c-.41-.08-.39-1.72.02-1.79l1.57-.28c.14-.02.85.27.98.33s.12-.47,0-.56l-.57-.43c-.28-.21-1.35-.91-1.09-1.14l1.34-1.13c.89-.75,2.08,2.28,2.73,2.05.46-.16,1.68-.59,1.6-.56-2.31-.91-2.68-3.33-4.94-3.55-1.07-.11-2.24.62-3.01,1.45l-4.83-.85c-6.68-1.17-5.4,3.41-11.33,6.37-5,2.5-6.67,7.61-6.08,12.79l.93,8.17c1.19,5.6,4.45,9.74,10.2,11.57,1.97.18,3.99.93,5.53,2.35l8.55,1.55,13.7,3.48c-10.65,19.64-26.47,35.09-46.12,45.16-10.01-.89-28.89-5.82-35.18-12.12-.76-.76-1.68-2.94-2.29-4-.35-.6-.02-2.23.42-2.74.51-.6,1.91-1.02,3.05-1.3-.81-.8-1.95-3.04-1.83-4.15.07-.64,1.43-1.86,2.02-1.93.66-.08,1.47.2,2.62.6l-.26-2.84c-.06-.62,1.4-1.22,1.91-1.62l1.73-1.37c.41-.32,1.63.72,1.95,1.1l.92-2.44,3.68-.67-.23,2.09c-.06.02-.13.13-.01.12.14-.01.57-.17.62-.31l.38-.92c.17-.42,2.26,1.17,2.65.83l1.7-1.51,3.17-2.92c4.28-2.45,8.97-3.69,13.81-4.93,12.49-3.21,25.1-3.41,38.16-3.12l-4.49-.81c-26.51-3.33-53.2-2.35-79.23,3.83-12.92,3.07-24.82,7.53-36.79,12.98l-4.52,2.06,2.58,1.62c-1.49-.07-3.57-.62-4.54-.1l-6.22,3.33c.63-3.54,3.75-4.66,6.32-5.57,4.22-3.38,8.74-5.59,13.76-8.32-5.94,1.22-15.41,1.07-15.61-1.58l-.15-2.07c-6.94,5.92-12.94,11.78-18.7,18.69,4.72-2.69,9.06-4.95,13.95-6.83l6.62-2.54-21.61,16.35,6.81-2.38c5.09-1.78,10.51-1.75,15.46-.07-2.96.2-5.82.19-8.39,1.47l-11.67,5.79c5.12-.59,9.48-.9,13.94.44-6.64.75-12.33,2.51-18.14,5.14l-7.02,3.18c40.01,24.18,89.67,24.7,129.25-.58,26.65-17.01,44.91-44.23,51.11-75.13.18-.92,1.6-1.72,2.29-1.61.95.15,1.93,1.32,1.67,2.61-6.09,30.51-23.64,57.81-49.38,75.52-39.54,27.2-90,28.79-132.07,6.02C25.61,214.74,1.1,174.53.04,130.89c-.67-27.67,7.68-55,23.49-77.69C49.29,16.25,92.92-3.54,137.6.52c1.35.12,2.32,1.08,2.36,2.06.06,1.62-1.04,2.49-2.8,2.34-24.4-2.04-48.93,3.04-70.33,15C7.94,52.84-13.83,131.46,21.77,189c.51.82,1.06,1.06,2.04.92,2.26,2.19,4.13,4.68,6.11,7.59-2.11-9.95-5.8-19.44-11.46-28.2,7.99,6.39,12.29,15.18,15.67,24.98-1.93-14.19-6.52-27-13.72-39.95,9.05,8.82,13.88,20.41,16.7,32.64l-.04-15.19c-6.87-4.21-7.4-13.86-7.88-22.03l.6-1.84c-.46-4.31-.29-8.53.5-12.99l1.52,2.74c-1.25-6.09-1.09-12.31.28-18.42l1.3,2.78c-.24-3.21-.9-6.23-.56-9.18l1.08-9.3c.05-.78.29-.89.84.14-.02-3.11.1-6.33.73-9.66l.85-4.5c.58-3.05.49-5.92,2.13-9.08l2.69,14.74c.65,3.57.76,6.99.48,10.51l.9-1.91.87,7.5.9,7.7.9,7.71,1,13.39.61,7.17c.61,7.26-.99,20.38-7.19,24.55l.14,21.91c.69-1.34.66-2.48.86-3.88,1.45-10.42,4.52-20.45,9.44-29.83-2.04,11.16-3.87,21.58-4.5,32.91,2.27-6.61,4.68-12.76,8.78-18.47l.03-9.57-1.94-1.07c-.42-.23-.6-1.77-.2-2.04.25-.17.91-.06,1.66.07.77-1.41-.92-1.14-2.11-3.33-.24-.44.58-1.8,1-1.54l.85.54c.13.08.27.09.24-.05-.06-.24-.33-.85-.52-.99l-1.7-1.38c-.46-.38.91-1.77,1.24-1.85l-1.24-1.51c-.3-.36.58-1.31.66-1.68l-1.08-1.32c-.24-.3.57-.92,1.06-1.22-.72-.76-.99-2.44.47-3.27.62.44,1.11,1.87,1.2,2.85.17.37.87,1.36.68,1.73l-.89,1.7c.42-.01,1.86.06,1.72.3l-.89,1.61,1.18,1.45c.36.44-.59,1.73-1.04,2.2l.26.58c.56.19,1.62.97,1.49,1.43-.15.55-.62,1.43-1,2.04l-.46.77c-.08.13,0,.62.14.54l1.1-.7c.34-.11,1.1,1.56.73,1.99l-1.64,1.89-.1,8.54,4.56-4.53,1.06-10.3.03-5.26-2.11-1.48c-.63-.44-.34-2.48.43-3.14l1.82,1.07-.03-1.81c-.92-.34-1.92-.79-2.16-1.33-.28-.63.19-2.16.56-2.65l1.66,1.03c.04-.71.12-1.65-.12-1.61l-1.2.21-1-.68c-.26-.18.04-1.41.35-1.35.41.08.81.26,1.87.76-.17.7.01-.05.14-.56v-1.11c-.77-.08-1.55-.25-1.97-.66-.63-.62.19-2.56.71-2.14l.98.8c.13.1.33.15.34-.01.01-.18-.1-1-.25-1.12l-1.68-1.37c-.43-.35.38-2.12.67-2.08l.9.76c.12.1.32.09.3-.07-.2-1.69-1.11-1.26-1.62-2.83-.18-.56.38-2.31.58-2.23,1.16.3,1.16.3.81.2-.71-1.92-.79-3.51.98-4.12.72.97.71,3.12.44,4.31.35-.15,1.05-.49,1.12-.29l.51,1.59-2.15,3.51,1.65-.78c.4-.19.78,1.56.48,1.89l-2.21,2.37,1.78-.8c.43-.19,1.13,1.51.8,1.85l-2.14,2.27c.09.47.29,1.49.09.49l1.85-.35c.35-.07.23,1.28-.19,1.34-.78.11-2.3,1.08-1.97,2.3l1.65-1.76c1.27,1.08,1.23,2.91-.25,3.67-.86.44-1.35,1.16-1.57,2.43l2.17-1.38c.3.92.56,2.05.49,2.88-.06.67-1.24,1.5-2.2,1.91l-.61,6.7-.19,7.21,3.04-2.05c-.27,2.11-2.99,2.51-3.31,5.83l-1.32,14.11,4.04-3.48,3.48-18.15c-.96-.91-1.8-2.39-1.68-3.27.03-.22.89-1.24,1.03-1.08l1.04,1.19c.02.09.61-.76.38-.96l-1.17-1.03c-.38-.33-.54-1.4-.21-2,.29-.52.95-.53,2.01.16l.39-.43-2.16-2.53c-.12-.13.91-.86,1.04-.75l1.13.91-1.71-2.92,2.09.43-1.41-1.68c-.27-.32.28-1.51.52-1.65,1.1.82.96.43.57-.19l-.33-2.01c-.06-.37,1.05-.26,1.2-.24-.43-1.47-.26-2.76,1.61-3.73l.5,3.82c.13.98-.16,1.89-.79,2.81-.65.5-.88.67.12-.09.35.22.98,1.13.74,1.39l-1.31,1.44c-.1-.11.02.02.25.26.16.02,1.06.2.96.33l-.75.88-1.32,1.56.81-.41c.18-.09.68-.69.72-.51l.38,1.67-2.69,1.84,1.33.18c.32.04,1,1.01.79,1.22l-1.93,1.6c-.09.11-.15.75-.02.71l1.3-.4-.14,2.02c-.04.59-1.22,1.02-2.13,1.23l-3.36,17.29,2.29-1.38c.38-.23,1.47-.44,1.62-.04s-.21,1.31-.52,1.61l-4.04,4.04-2.16,10.63,3.71-3.19,4.74-13.97,4.11-12.08-1.54-2.11c-.35-.49.59-2.41,1.18-2.28.23.05.93.67,1.09.84s.57-.11.65-.34c.31-.97-.61-.69-1.58-2.95-.21-.48.69-1.99,1.18-1.81l1.39.52c1.32.49-.81-1.9-.99-3.02-.09-.55.86-1.67,1.28-1.66,1.21.8,1.25.35.82-.28l-.76-1.51c-.2-.4,1.26-.8,1.94-.79l-1.16-1.94,1.63-.71c.21-.09-.25-.83-.24-1.07l.04-1.51c0-.34,1.01-.16,1.12-.15l1.48-3.04c1.61,1.06.89,2.6-.09,3.56.23.23,1.28,1.17,1,1.46l-1.83,1.83.69.16c.23.05.82.82.6.91l-1.16.49-.83.36c-.15.07-.05.67.12.64l1.02-.17.19,1.45c.12.91-2.6,1.11-2.6,1.09,0-.05.02.75.05.75.06,0,.17-.02,1.27-.17.29-.07.74,1.6.47,2.16-.41.89-4.52,1.68-2.95,1.9l1.78.24c.3.11.09,1.78-.29,2.22-1.33,1.51-2.59.41-2.94,1.88-.04.16.04.53.19.48l1.79-.59c.16.89.1,1.51-.45,3l-2.51.58-1.66,4.06-2.31,7.89,3.84-3.39c-.47,2.89-3.23,4.36-4.71,6.76-1.6,2.62-2.18,5.68-3.27,8.84l4.27-1.64,8.08-16.09-.77-2.26c-.21-.61,1.05-2.03,1.38-1.87l.82.82c.1.1.62.25.56.12l-.39-.98c-.19-.47-.5-1.96-.13-2.3.45-.4,1.18-.45,2.43-.66l-1.11-.86c-.25-.19.02-1.58.31-1.49l1.73.54-.46-1.87c-.13-.54.99-1.34,1.73-1.65-.02-.15-.35-1.04-.08-1.18l1.35-.68.08-1.56c.02-.36,1.2-.39,1.41-.37.43-.99.99-1.78,2.33-2.06l-.53,2.67-.89,2.79c-.24.76-1.52,1.54-2.29,1.6l.97.67c.22.15.24.95-.01,1.02l-1.27.34-1,.26c-.15.04-.19.32-.05.38l1.18.51c.21.09.41,1.08.17,1.13l-1.55.37-.84.2c-.15.04-.15.58,0,.63l1.04.36c.12.19-.08,1.38-.49,1.63-1.36.86-2.87.26-2.86.75,0,.2,0,.76-.01.78-.02.02.92-.01,1.21-.02.61-.01.26,1.79-.19,2.24-.54.54-1.55.67-2.82.52l-5.05,10.03-2.04,4.72,6.75-4.57-3.05,3.43c-1.32,1.49-2.39,2.59-4.09,3.7s-2.25,3.92-3.11,5.78l-4.13,8.86c2.77-2.24,3.57-5.01,5.99-8.18l-1.21,3.97,7.07-5.01,10.08-6.63,4.36-2.92.79-.47c.18-.11-.57-.27-.75-.17l-3.19,1.72c-1.08-.93-1.56-2.37-1.08-3.44.34-.78,1.58-.89,3.22-.87l-1.46-1.06-.08-2.88,5.39-.84c-.63-.54-1.69-1.5-1.81-2.16-.32-1.63,2-5.02,2.26-5.03l2.96-.12.73-1.97c.22-.61,2.09.47,2.3.93-.04-.73.63-2.12,1.38-2.15,1.35-.05,2.23.5,2.88,1.72l2.42-1.4.1-2.43-1.51-.84c-.5-.28-.33-2.13.22-2.3l2.3-.72c-.75-.51-1.65-1.9-1.47-2.83.2-1.06,1.53-1.88,2.76-1.45l-.18-1.62c-.06-.53,1.64-.81,2.19-.65l3.37.97c-.25.69-.08.21.23-.61.43-.75-1.46-2.02-.66-2.79l1.49-1.41c.4-.38,1.25-1.7,1.73-1.49l1.99.86.99-1.11c.22-.25,1.15.02,1.37.05.62-.55,1.37-1.19,1.92-1.39.64-.23,2,.79,2.4,1.33h1.34c.32,0,.79.87.91,1.08.53-.31,1.49-.81,2.06-.87.66-.07,1.2,1.66,1.57,2.18l1.81,1.27c.41.29-.67,1.36-1.12,1.68l1.15,1.64,2.71-1.94c.58-.42,1.91.36,2.76.77l1.6.76c.41.19-.04,1.47-.04,1.75l1.58,1.17c.43.32-.33,1.67-.54,2.04.29.57.75,1.73.67,2.38-.08.72-1.2,1.24-2.3,1.05l.33,1.68-.32.83c-.35.9,1.43-.71,3.5-1.12l1.89-.38c.4-.08.84,1.04.96,1.36.66-.1,1.89.01,2.23.5s.06,1.8-.3,2.41c.57.18,1.55.54,1.8,1.07.36.77-.65,2.13-1.32,2.29l-1.02.24c-1.05.24,2.21.45,2.18.73l-.27,2.16,5.18-2.35c3.97-1.81,6.18-5.76,7.4-9.79.82-2.7.99-5.13,1.31-8.03.68-6.26-1.1-13.22-6.56-16.96-2.54-1.74-4.4-3.22-6.2-6-.68-1.06-3.24-2.19-4.48-2.26l-2.94.85c-.17.05-.68.63-.51.64l1,.06c.45.03,1.55,1.22,1.19,1.47l-1.85,1.27-1.69,1.04c-.47.29-1.12-1.47-1.07-2.15-.05-.01-.65-.21-.47-.15-.55,1.03-.96,1.75-1.58,2.36-.5.49-1.98-.47-2.24-1.23l1.6-2.19-2.82.59c-.16-.8-.11-2.38.42-2.6s1.48-.33,2.14-.4c-.18-.32-.7-1.67-.34-1.71l1.6-.16c.17-.02.81.25.98.29.25.07.55-.56.56-.77l-2.96-1.6c-1.34-.73-2.23-1-3.3-1.81l-1.16,1.02c-.35.31-1.2-.8-1.42-1.27-3.03-.37.86,2.24.47,3.14-.18.41-.92,1.05-1.35,1.19s-1.26-.49-1.55-.84l-.6-.73c-.1-.12-.58-.15-.51-.02l.5.91c.22.4.6,1.36.64,1.81s-.83,1.13-1.28,1.21c-.54.09-1.37-.77-1.57-1.19l.07-1.13c.02-.3-1.32-.37-.91-.23l-.09,2.22c-.02.5-1.52,1-1.9.67s-.95-1.39-.84-1.88c.13-.59,1.14-1.02,2.18-1.61-1.73-.25-3.51.87-5.27,1.93l-2.53,1.45c.89.72,1.61,1.29,1.93,1.74.38.55-.61,2.1-1.25,2.02l-2.73-.36,1.73,1.67c.42.41-.37,1.91-.9,2.18-.56.29-1.89.58-2.04.13l-.71-2.18-1.13,2.91c-.2.52-2.23.46-2.41-.1s.06-1.48.44-2.67l-2.49.19,1.65-2.82-1.92,1.26c-.4.26-1.33-.81-1.61-1.23l-1.94,1.8,1.84.58c.39.12.37,1.51-.01,1.62l-1.84.55,2.03,1.13c.48.27-.28,1.84-.72,2.17-.55.41-1.7.2-2.39-.32l-1.15,1.35c-.33.39-1.95-.13-2.03-.63s.08-1.22.43-2.5l-2.03-1.1c.14,1.15-.27,3.31-1.05,3.05-1.24-.41-2.04-.69-3.06-.59-.61.06-1.58-1.48-1.26-2,.4-.66,1.05-1.18,2.3-2.32l-2.8.22-.41-2.25c-.1-.52.93-1.04,1.74-1.36.3-.34.58-1.36,1.03-1.44l2.55-.46-3.67-.89,2.54-2.46-3.03.96c-.24-.13-1.02-1.08-.83-1.39l1-1.56s-.47-.54-.47-.54l-2.97,2.5,1.31.97c.57.42-1.92,3.2-3.01,2.24-.47-.41-.74-1.47-1.03-2.73.43-.17-.6.24-.86.34-.33.13.83,1.72.5,3.28-.12.54-1.51.89-2.2.94-.45.03-1.66-.57-1.75-1-.33-1.52,1.98-2.13.82-4.24-1.22,1.37-1.96,2.3-3.5,3.37-.59.41-2.28-1.07-2.19-1.79s.96-1.79,1.61-2.16l.93-.52c.15-.08.2-.42.05-.46l-1.33-.39c-.63-.18-1.66-.74-1.77-1.29-.16-.78,1.04-1.95,1.69-1.82.51.1,1.47.33,1.41.11s-.13-1.13-.02-1.33c.45-.81,2.53-.28,3.4.56l-.06-1.32c-.01-.33.64-.59,1.28-.93l-1.04-.58c-.32-.18-.45-.95-.58-1.51l-2.16,1.41c-.22-.24-.67-.94-.49-1.13l1.23-1.32-2.6,1.32c-.6.3-1.97-.77-1.82-1.51.22-1.1.98-1.66,2.37-2.12l-.19-.58c-.86-.43-1.21-1.59-.64-2.25.42-.47,1.73-.42,2.68-.13l.08-1.53c.02-.45,1.67-.59,1.94-.24.96,1.23.46,3.21.87,2.69l.51-.66.99-1.28c.26-.34,1.1.98,1.48,1.19l.86.47c.18.1.03-.56-.04-.67l-1.41-1.32c-.27-.26.52-1.1.66-1.24l-1.88-.93c-.41-.21.17-1.8.63-1.81l1.96-.05.48-1.75c.15-.55,1.94-.63,2.18-.12l1.05,2.23.88-1.94c.25-.54,2.23-.31,2.32.28s-.01,1.43-.14,2.64l2.75-1.53.51,2.13,2.66-.09-.8-1.17c-.21-.31.6-1.08.83-1.3l-1.84-.37c-.36-.07-.79-1.07-.52-1.32l1.15-1.05c-.15-.68-.08-2.01.45-2.36.65-.43,2.22,0,2.84.33.25-.57,1.35-1.52,2.03-1.31,1.14.36,1.47,1.2,1.24,2.87l1.11-.03c-.19-1.48.12-2.93.96-4.39l3.21.14-1.25-2.07c-.32-.53,1.46-1.56,2.07-1.43l1.29.28c.33.07.36.9.12,1.14l-.65.63c-.17.16.47.55.63.71s.35-.91.52-1.08l1.54-1.48c-1.08-1.54-4.06-2.65-5.72-1.26-1.44,1.5-1.71,3.73-3.67,3.65-.73-.03-1.6-.97-2.27-1.95l-4.4.53c-.32.04-1.3-.61-1.51-.85s.14-.62.74-1.42l-5.48-2.51-2.13,1.98c.33.09,1.1.12,1.6.03.59-.1,2.09.52,2.09,1.12s-1.05,1.47-1.65,1.88l1.06,1.48c.32.44-.93,1.49-1.46,1.6-1.24.27-1.4-2.43-2.89-2.2.77.98,1.57,2.64,1.18,3.53-.19.44-2.04.6-2.3.19l-1.22-1.93-.76,3.49-1.43-.69c-.25-.12-.56.15-1.28.51-1,.5-2.66-1.33-2.42-2.46l2.77-1.44-2.16.15c-.51.04-1.78-.85-1.51-1.28.45-.7,1.72-1.57,2.12-1.73l-1.09-1.74-1.16,1.82c-.29.45-1.55-.59-1.73-1.27-.07-.15-1.06-.08-1.02.22l.15,1.4c.07.65.71,1.68.38,2.06s-1.33.95-1.83,1.16l-1.57.68c-.4.17-1.3-.57-1.49-.98l.14-3.54-2.05,2.52c-.5.12-1.76.1-2.28-.07s-.91-1.71-.48-2.06l2.1-1.72-2.77-.56c.2-1.02.62-2,1.44-2.91.58-.63,2.16-.2,3.16.27l-.82-1.83c-.19-.43,1.45-.77,1.9-.65l1.28.34c.3.08-.04-.9-.21-1.07-.37-.1-1.68-.4-1.6-.75l.4-1.78c-1.15.63-2.11,1.17-2.73,1.13s-1.56-1.55-1.16-2.04,1.42-.94,2.55-1.5l-1.78-1.02c.11-1.7,2.81-3.55,4.04-3.03ZM159.54,21.13l-.03-1.61c-.02-.98-.18-2.18-.42-3.02-.34,2.5-1.37,3.33-3.47,4.62h3.91ZM159.97,35.07c-2.43-1.29-2.33-4.37-4.59-4.5.65,2.73,1.87,4.76,3.81,7l.78-2.5ZM154.39,36.05c.66-.39-.01-2.35-.7-2.85-.56-.41-2.3-.06-3.12.27l-.73,2.24,4.56.34ZM198.88,49.4l1.82,1.3-.6-2.07c-.13-.45,1.75-.89,1.88-1.38l1.67-6.08c-.66,0-1.59.81-1.84,1.39-.18.4.1.99.23,1.69-2.9,1.63-5.46,3.15-6.08,6.26l2.92-1.11ZM172.02,68.3c-2.52.6-3.39-.51-3.33-1.65.04-.69.79-1.61,1.53-2.34l-1.1-2.05c-.26-.48.78-1.55,1.09-2.02.13-.19-.57-1.15-.7-.96l-.67.94c-1.65,2.33.57,5.3-3.18,6.38-.86,2.67.64,5.77,2.98,7.86,1.41-1.85,2.52-3.96,3.37-6.17ZM162.4,70.52c.08-2.78-.08-3.54-1.09-4.99-1.37.72-3.85-.13-4.18-1.5-.38-1.6-.89-2.4-2-3.42l-.6,1.94,4.31,5.72c.92,1.23,2.35,2.18,3.57,2.25ZM158.94,84.8c-.33-.98-.73-2.27-.21-2.38l2.1-.46,1.22-1.66c.29-.4,1.83-.04,1.9.45l.26,1.88,1.49-.82c.18-2.95-.75-6.21-3.14-8.2-.85-.71-3.15-.57-4.3-.46l-2.94-4.72-1.84-3.53c-.3-.07-1.36,1.04-1.48,1.79-.09.55.68,1.12,1.9,1.67l-.8,1.91c-.21.51-1.83.52-2.27.46l.7,4.49c.14.88,1.16,2.75,1.58,3.15l2.52-1.1c.47-.21,3.43,1.56,3.06,3.17-.12.52-1.04,1.16-1.58,1.45l-1.66.88c.39,1.55,2.02,2.26,3.48,2.04ZM180.76,67.15c-1.25.03-2.02.23-3.14.76l-.93.44c-.13.06-.06-.42-.06-.57v-.91c-.62.43-1.13,1.8-1.13,2.62,1.57-.41,2.33-.52,3.92-.44l1.34-1.92ZM147.19,69.3c-.86.7-1.78,1.38-2.02,1.08l-1.04-1.28-.95-1.27c-.21-.28-1.28.45-1.19.78l.38,1.36c.26.92,1.13,2.27,1.87,2.59l4.38,1.9c-.24-2.14-.72-3.78-1.43-5.17ZM139.19,85.29c.99.41,2.17.85,2.38.48l1-1.74c.26-.45,1.03-1.55,1.51-1.37l1.92.73-1.98-1.95c.71-1.38,2.81-1.94,5.02-1.03-.24-3.28-3.21-4.35-5.94-5.62l-3.35-2.82c-1.69-1.42-3.15-2.35-5.24-2.89l-2.08-.54,4.01,3.4c.46.39,1.17,1.85.69,2.1l-1.86.96c-1.05.54-2.3.61-3.66.24.09,1.23,1.2,3.08,2.36,3.64.48-.8,1.13-1.78,1.53-1.56l1.47.77,1.6-.91c.42-.23,1.52.35,2.04.72s1.44,1.97.93,2.32l-1.86,1.28,2.64.47c-.16,1.88-1.79,2.94-3.12,3.29ZM185.12,78.53l-.11-1.68c-.02-.29-1.34-.07-1.31.22l.46,4.59-3.52-.45.39-2.66c-.03-.9-.57-.87-.68.14-.04.54-1.33,1.96-1.64,1.53l-1.29-1.78-1.58.28c-.35.06-1.15-.78-.94-1.06l1.06-1.4-2.11-1.63c1.69-1.39,2.75-1.08,4.79-.93l-4.47-2.02-1.92,3.86c-1.22,2.46-1.64,5.15-.91,7.46.79-.35,2.13-.64,2.27-.17l.73,2.39c-.04,1,.44,1.04.59.02.32-.7.91-1.64,1.37-1.67,1.3-.11,3.61,2.16,3.32,2.63l-1.26,2.03,1.62.74c.26.12.42.69.79,1.44,1.55-2.56,2.65-5.08,3.61-8.05l1.58-1.9c-.41-.73-.81-1.49-.84-1.95ZM126.49,80.51c.24.07,1.32-.89,1.47-.7l.71.92.66.86c.09.12.17-.43.17-.59.06-2.02.96-1.96.17-3.41-.5-.91-2.52-.61-2.39.13l.26,1.41c.04.19-.5.58-.65.45l-.82-.72c-.37-.33-1.38-1.09-1.71-.74l-1.38,1.39,3.5,1ZM191.91,81.56l1.32-2.88c.15-.32.34-1.12.02-1.12l-1.43-.02c-.3,2.15-1.55,3.52-3.66,3.81l-1.84,4.68c3.3-.12,4.47-2.01,5.6-4.47ZM217.86,80.89l2.55-1.35c.24-.13.41-.61.5-.91.08-.27-1.3-.59-1.56-.47l-3.78,1.73,2.29,1ZM112.7,88.7l5.16.98c.26.05.94-.83.75-1.01l-.68-.61c-1.75-1.58-3.39-3.32-4.54-5.15l-1.43.4,3.09,3.42-2.36,1.97ZM189.57,96.17c.15,0,.86-.24.72-.32l-.83-.43c-.53-.28-1.22-1.71-.86-2.18.8-1.03,4.64-1.19,4.82-.67l.89,2.43c.36-1.38.49-2.46.86-3.08.76-1.3,4.12.69,4.26.18l.3-1.04c.07-.24-.74-.55-.99-.61l-3.49-.78c-.79-.18-1.14-2.15-.56-2.75.43-.45,1.37-.7,2.5-.93.09.23.23-1.13-.09-1.16s-1.34,0-1.67.18l-5.66,3.29c-7.1,4.12-5.56,7.65-6.33,7.84l-2.55.64c-.08-.46.12.67.13.71.74.15,1.53.38,1.36.64l-.62.91c-.17.25-.67,1.2-.38,1.28l1.26.34c.63.17-.26-1.29,1-2.99.29-.39,1.79-.13,1.99.3.43.92,1.61,2.52,3.03,1.61l-1.86-1.57c-.24-.35-.02-1.98.56-1.95l2.2.11ZM109.61,90.57l-4.05-2.63-1.41-2.28c-.12-.19-.86-.5-1.11-.62-.14-.06-.11.55-.01.66l.49.56c.89,1.01,1.25,2.08.4,3.29-.36.51-.57,1.59-.19,1.9.32.25,1.4.6,1.83.46l4.04-1.35ZM153.27,87.88c-.34-.83-.66-2-1.03-1.92l-1.33.31c-.28.07-1.08.7-.86.88l.81.67,1.31.9c.29.2,1.3-.72,1.09-.84ZM146.99,93.38c.77-2.08,1.06-2.18,2.82-2.43l-.68-2.09c-2.4,1.09-3.49,3.75-2.86,4.11.26.15,1.24.71.72.41ZM205.86,94.11c.63-.07,2.24,1.14,2.4,1.33l1.6-2.07-2.55-1.54-5,1.84,1.49,3.69c.23-1.1.73-3.11,2.07-3.26ZM140.76,97.19c.18-.45.99-1.56,1.4-1.34l2.14,1.12.12-2.65-5.25,1.69c-.42.14-1.63-.06-1.71-.44l-.39-1.86c-1.37.7-1.39,1.84-.97,3.53.23.94.94,2.29,1.5,1.88.9-1.36,1.92-2.22,3.16-1.91ZM137.77,107.4l1.77-.54c.13-.04-.04-.64-.21-.61l-1.03.17c-.36.06-1.32.24-1.52-.06l-.89-1.36-1.02-1.57c-.19-.29.12-1.02.32-1.78-3.29-1.69-5.51.03-6.84-2.55-.41-.81-1.63-1.37-2.14-1.12l1.76,2.37,1.29,1.08c.27.23-.69,1.31-1.01,1.18l-1.28-.52c-.77-1-1.97-1.29-2.8-.31l4.75,5.95c2.03-.5,2.57.53,3.6,2.17.31-1.58.78-2.94,2.05-2.79.8.09,1.7,1.14,2.17,1.89l.57.9c.83,1.32.28-2.43.47-2.48ZM119.18,104.25c.27-.61,2.11-.29,2.61.28.68.79.63,1.46-.18,2.61.83.57,2.05.6,3.67-.06l-5.51-7.13-1.79,1.78c.31.6.9,1.73.6,2.09l-1.38,1.67,1.06.43c.3.12.61-.98.91-1.67ZM165.79,107.71c-.27-.2-.84.59-.65.74l.94.73c.51.4-.33,1.75-.95,2.25-.5.4-1.9.05-2.48-.53l-2.34-2.32c.44-1.15.69-2.45.68-3.38-1.07,1.6-1.41,2.2-2.91,2.66,1.04,3.8,3,8.25,6.7,10.39l5.23,3.02c.25-4.4-.31-8.43-1.05-12.19-1.13.08-2.56-.91-3.17-1.38ZM221.32,105.49l-3.81.97-1.67-1.65-.35,3.22c2.54-.89,3.65-1.22,5.83-2.54ZM179.97,112.92l2.72-4.69c.11-.19-.66-1.3-.71-1.09s-.37,1.24-.59,1.29c-.69.16-1.69-.09-3.2-.43l1.78,4.92ZM210.61,110.73c.37-.2.26-2.21-.09-2.11l-1.48.4c-2.04.55-3.79,1.99-3.82,4.62l5.39-2.91ZM127.38,119.98c.25-1.33.17-2.55-.34-2.78l-2.01-.89c-.37-1.59,1.79-3.62,3.78-3.14l-1.52-2.61-3.55-.42c-.19.83-.36,1.95-.86,1.99l-2.38.2-1.34.11c-.18.02.44.54.47.52l1.75.33c.39.07.39,1.66,0,1.75l-2.26.5,3.59,1.72,4.67,2.7ZM191.09,120.75l1.57-6.02c-1.55.86-2.11,1.24-2.87,1.35s-2.14-1.18-1.96-1.85c.15-.55,1.97-.48,2.19-.25l1.57-2.13c.09-.52-1.83-.94-2.47-.86l.72,2.08-2.9-.59c-3.74,4.59-3.67,8.82-2.6,14.83l2.92-2.39c1.12-.92,3.42-2.62,3.83-4.16ZM224.76,115.5c-.46-.29-1.36-.74-1.32-1.09l.19-1.38-3.05-.8c-1.25-.33-2.52-.3-4.01.19,1.63,2.07,4.07.22,5.91,4.54l2.28-1.45ZM157.76,115.99l-2.71-3.72-2.51,2.35c1.24,1.12,3.37,1.63,5.22,1.37ZM195.12,119.77l4.78-2.85-2.13-2.02c-.27.57-1,1.25-2.05,1.73-.47.41-.7,1.85-.61,3.14ZM167.79,136.29c1.72-6.52-3.46-13.23-8.34-15.83-1.3-.69-3.68-1.32-5.03-1.44l-3.15-.28-.56,2.11,2.73-.34c.53-.07,1.25,1.42.88,1.8l-1.15,1.23,3.76,5.48c1.15,1.68,2.95,2.83,4.72,3.82l6.14,3.44ZM202.3,131.02c5.99-1.85,5.88-5.31,6.03-5.34l1.87-.3.46-1.62,1.67-.43c.36-.09,1.49-.61,1.32-.57-2.45-1.47-1.59-3.9-4.02-3.67l.69,2.01c.25.72-2.42,3.2-3.77,2.13-.58-.45-.94-1.84-.98-2.64l-.08-1.64c.02.31-7.62,1.6-10.79,5.8l-4.33,5.73c-2.14,2.83-4.11,5.72-3.57,9.54l4.58-1.77c4.93-1.91,4.36-4.64,8.68-6,1.15-4.19,3.05-10.06,5.77-9.2-1.67,2.95-2.74,4.99-3.53,7.95ZM143.19,123.92l-1.82-3.28c-.72.04-1.36,1.69-.78,2.48.67.92,2.24,1.24,2.6.8ZM117.35,130.21l-.95,2.4,2.14-2.21,4.12-2.18c-.27-1.01-.31-2.36.21-2.76.44-.34,1.59-.5,2.38-.73l1.27-.37c.24-.07-.14-.58-.37-.68l-.92-.38c-.54-.22-1.82-1-2.2-.57l-1.53,1.72-1.83.75-.83,2.03c-.15.37-1.58.28-1.79-.07l-.92-1.5-.03,2.36-3.24.47c.47,1.8,5.24-.14,4.5,1.72ZM150.07,127.07c-.48-1.43-1-2.11-1.95-3.18l-1.06-1.76-1.72,3.34,4.73,1.6ZM219.27,134.57l-2.18-3.06-2.26,1.33-2.47-.56c-1.2-1.38-3.56-2.25-5.41-.93l-3.66,2.62,5.72,1.2,4.06-1.25c1.14-.35,2.46.29,3.31,1.41l2.89-.76ZM224.38,138.53l.95-1.12-4.09-3.24c-.51.19-.77,1.06-.32,1.19.7.46,1.19.82.98.97l-.92.67.67.69.87-.46,1.86,1.29ZM220.79,140.86c-.38-.61-.81-1.16-1.21-1.14-2.29.09.36.68,1.54,4.48.23-.19.94-1.32.7-1.71l-1.02-1.63ZM171.41,155.98c.49-2.65.46-5.34-.47-7.83-.37,2.74-.52,5.17.47,7.83ZM55.68,189.52l2.98-3.56,1.13-14.9c-1.8,2.34-4.14,5.01-4.13,7.79l.02,10.67ZM49.81,198.85c1.76-3.18,4.03-5.8,4.79-8.58s-.12-6.32.03-9.12c-1.17,2.63-2.18,5.29-2.75,7.95l-2.07,9.76ZM58.88,198.57c.82-.8,2.13-2.29,2.32-3.27l1.87-9.43c-1.95,2.05-3.07,4.22-4.06,6.67l-.13,6.02ZM67.49,198.88l3.36-6.65c-2.96,1.4-4.3,3.62-5.25,6.34l-1.39,3.93c1.18-.77,2.54-2.15,3.28-3.61ZM58.13,199.3l-.62-3.91c-1.57,3.03-2.68,5.93-3.15,9.44l3.77-5.53ZM64.34,199.25l-.42-.77c-2.27,2.47-2.86,4.85-2.55,7.77,1.82-2.23,2.12-4,2.97-7Z" fill="#243b2f"/>
    <path d="M113.39,206.79l14.48-1.27,2.66-1.96c.81-.6,1.95-2.21,2.97-3.39l-10.3-1.86,12.18-1.26c2.93-.3,5.63-2.32,8.07-3.62l-4.46-.77c2.51-2.27,5.38-.42,7.75-1.15l9-2.79,5.07-1.61-6.51-.28c3.07-1.03,5.87-.23,8.75-.36l6.51-.31-8.43,2.76c-9.33,3.06-20.15,6.7-26.25,14.31-3.44,4.29-3.06,9.74.73,13.64,8.68,8.96,23.2,12.4,35.33,15.39l-6.51,2.81c-8.34-1.83-16.22-4.37-23.58-8.61-6.79-3.92-12.92-10.05-11.72-17.86-5.35-.33-10.24-.35-15.75-1.8Z" fill="#6a7f50"/>
    <path d="M108.93,229.32l20.63-2.96,3.96-1.38c1.5.69,3.11,2.6,3.31,4.61-9.51.28-18.45.88-27.89-.26Z" fill="#6a7f50"/>
    <path d="M123.71,241.02c8.09-1.25,16.11-2.29,24.01-4.78.91-.28,1.86-2.19,6.72,1.66-10.29,2.6-20.24,3.94-30.73,3.12Z" fill="#6a7f50"/>
    <path d="M76.24,195.16l-3.18,6.35c-.21.48-1.59.13-2.21-.19l10.59-17.01,1.93-3.45-.37-2.34c-.1-.62,1.92-.87,2.45-.77l.02-2.93,1.8-.16c-.08-1.56.59-2.29,1.61-3.09l1.88-1.46,2.27-1.66-2.26,4.81-2.44,4.92-1.63.55c-.28.1.65.94.66,1.24.02.95-1.91,2.23-3.16,1.49l-1.93,3.67-6.04,10.03Z" fill="#233a2e"/>
    <path d="M127.59,218.65l-19.94-.61-.58-1.02,16.21-1.39c1.09-.09,2.16-.88,3.74-1.81l.57,4.84Z" fill="#6a7f50"/>
    <path d="M128.02,37.98c-.37,1.22-2.24-1.07-4.15.59-.3.26-1.53.86-1.66.51l-.6-1.57c-.15-.39-.23-1.7.17-1.74l2.05-.23c-.7-1.15-.85-2.72.3-3.78.51-.47,1.63-.96,2.09-.71s1.26,1.12,1.38,1.63c.24.94-3.02,2.85-2.17,3.09l1.21.34c1.16.32,1.71.78,1.37,1.88Z" fill="#233a2e"/>
  </g>
  <g>
    <g>
      <path d="M319.64,55.38c-1.56.09-2.69.26-3.41.52-.71.26-1.2.76-1.46,1.49-.26.74-.39,1.92-.39,3.57v32.17c0,1.64.13,2.83.39,3.57.26.74.75,1.22,1.46,1.46.71.24,1.85.36,3.41.36h4.74c2.68,0,4.72-.38,6.13-1.13,1.4-.76,2.43-1.98,3.08-3.67s1.12-4.13,1.43-7.33h1.49c-.13,1.34-.19,3.11-.19,5.32,0,2.46.15,5.23.45,8.3-2.94-.13-7.89-.19-14.85-.19-8.3,0-14.57.06-18.81.19v-1.3c1.56-.09,2.69-.26,3.41-.52.71-.26,1.2-.76,1.46-1.49.26-.73.39-1.92.39-3.57v-32.17c0-1.64-.13-2.83-.39-3.57-.26-.73-.75-1.23-1.46-1.49-.71-.26-1.85-.43-3.41-.52v-1.3c1.82.13,4.58.19,8.3.19,3.46,0,6.2-.06,8.24-.19v1.3Z" fill="#243b2f"/>
      <path d="M368.55,92.23c-.78,2.38-2.24,4.42-4.38,6.13-2.14,1.71-4.73,2.56-7.75,2.56s-5.73-.7-7.98-2.11c-2.25-1.4-3.97-3.37-5.16-5.9-1.19-2.53-1.78-5.46-1.78-8.79,0-3.76.61-7.03,1.82-9.79,1.21-2.77,2.92-4.9,5.12-6.39,2.21-1.49,4.78-2.24,7.72-2.24,3.89,0,6.89,1.18,8.98,3.54,2.1,2.36,3.15,5.94,3.15,10.74h-20.3c-.13,1.21-.19,2.59-.19,4.15,0,2.85.46,5.34,1.39,7.46.93,2.12,2.16,3.75,3.7,4.9,1.53,1.15,3.15,1.72,4.83,1.72,2.08,0,3.91-.5,5.51-1.49,1.6-.99,2.94-2.66,4.02-4.99l1.3.52ZM350.65,69.91c-1.47,1.99-2.38,4.93-2.72,8.82h14.14c.09-3.37-.4-6.18-1.46-8.43-1.06-2.25-2.63-3.37-4.7-3.37s-3.78.99-5.25,2.98Z" fill="#243b2f"/>
      <path d="M388.98,66.41c1.21.48,2.18,1.04,2.92,1.69.48.35.86.52,1.17.52.78,0,1.25-.95,1.43-2.85h1.49c-.17,2.12-.26,5.79-.26,11.03h-1.49c-.48-2.85-1.39-5.21-2.76-7.07-1.36-1.86-3.38-2.79-6.07-2.79-1.56,0-2.83.44-3.83,1.33-1,.89-1.49,2.11-1.49,3.67s.52,2.78,1.56,3.79c1.04,1.02,2.7,2.24,4.99,3.66.39.22.97.58,1.75,1.1,1.99,1.3,3.59,2.44,4.8,3.44,1.21,1,2.19,2.14,2.95,3.44.76,1.3,1.13,2.79,1.13,4.48,0,2.85-1.07,5.08-3.21,6.68s-4.77,2.4-7.88,2.4c-1.95,0-3.65-.3-5.12-.91-.95-.48-1.84-1.06-2.66-1.75-.17-.17-.37-.26-.58-.26-.3,0-.57.22-.81.65-.24.43-.42,1.04-.55,1.82h-1.49c.17-2.46.26-6.79.26-12.97h1.49c.48,4.07,1.34,7.1,2.59,9.11,1.25,2.01,3.39,3.02,6.42,3.02,1.51,0,2.85-.5,4.02-1.49,1.17-.99,1.75-2.55,1.75-4.67,0-1.69-.57-3.11-1.72-4.28-1.15-1.17-3.02-2.57-5.61-4.22-2.12-1.34-3.75-2.44-4.9-3.31-1.15-.86-2.11-1.92-2.89-3.18s-1.17-2.72-1.17-4.41c0-2.72.91-4.8,2.72-6.23s4.11-2.14,6.88-2.14c1.56,0,2.94.24,4.15.71Z" fill="#243b2f"/>
      <path d="M414.8,111.23c2.64-.13,4.64-1.28,6-3.44,1.36-2.16,2.04-5.17,2.04-9.02v-25.1c0-1.99-.37-3.44-1.1-4.35-.74-.91-2.01-1.36-3.83-1.36v-1.36c1.34.13,2.68.2,4.02.2,2.72,0,4.97-.3,6.75-.91v26.66c0,7.18-1.56,12.41-4.67,15.7-1.17,1.21-2.54,2.17-4.12,2.89-1.58.71-3.28,1.07-5.09,1.07v-.97ZM428.1,51.62c.82.82,1.23,1.8,1.23,2.92s-.41,2.1-1.23,2.92-1.79,1.23-2.92,1.23-2.1-.41-2.92-1.23c-.82-.82-1.23-1.79-1.23-2.92s.41-2.1,1.23-2.92c.82-.82,1.79-1.23,2.92-1.23s2.1.41,2.92,1.23Z" fill="#243b2f"/>
      <path d="M438.31,98.42c-1.32-1.36-1.98-3.25-1.98-5.68,0-1.95.53-3.55,1.59-4.8,1.06-1.25,2.31-2.25,3.76-2.98,1.45-.73,3.36-1.51,5.74-2.34,2.42-.82,4.22-1.58,5.38-2.27,1.17-.69,1.75-1.62,1.75-2.79v-4.02c0-2.51-.53-4.23-1.59-5.16-1.06-.93-2.54-1.39-4.44-1.39-3.03,0-5.17.78-6.42,2.33.86.22,1.59.67,2.17,1.36.58.69.88,1.56.88,2.59s-.35,1.94-1.04,2.56c-.69.63-1.58.94-2.66.94-1.21,0-2.12-.38-2.72-1.14-.61-.76-.91-1.68-.91-2.76s.25-1.9.75-2.59c.5-.69,1.24-1.38,2.24-2.08,1.04-.73,2.36-1.34,3.96-1.82,1.6-.48,3.35-.71,5.25-.71,3.37,0,5.92.8,7.65,2.4,1.08,1,1.81,2.2,2.17,3.6.37,1.41.55,3.25.55,5.55v18.03c0,1.08.15,1.86.45,2.34.3.48.82.71,1.56.71.52,0,1.01-.12,1.46-.36.45-.24.94-.57,1.46-1.01l.71,1.1c-1.12.87-2.09,1.48-2.89,1.85-.8.37-1.81.55-3.02.55-2.08,0-3.52-.52-4.35-1.56-.82-1.04-1.23-2.44-1.23-4.22-1.3,2.16-2.79,3.66-4.48,4.51s-3.59,1.26-5.71,1.26c-2.72,0-4.75-.68-6.06-2.04ZM454.56,92.94v-12.71c-.39.61-.93,1.1-1.62,1.49-.69.39-1.75.91-3.18,1.56-1.64.69-2.97,1.35-3.99,1.98-1.02.63-1.89,1.48-2.63,2.56-.74,1.08-1.1,2.47-1.1,4.15,0,1.95.48,3.42,1.43,4.41.95.99,2.21,1.49,3.76,1.49,2.85,0,5.3-1.64,7.33-4.93Z" fill="#243b2f"/>
      <path d="M492.41,67.19c1.1.99,1.65,2.21,1.65,3.63,0,1.13-.34,2.09-1.01,2.89-.67.8-1.57,1.2-2.69,1.2-.95,0-1.76-.3-2.43-.91-.67-.61-1.01-1.43-1.01-2.47,0-1.43.73-2.59,2.21-3.5-.3-.43-.76-.65-1.36-.65-1.69,0-3.22.66-4.61,1.98s-2.46,2.93-3.24,4.83c-.78,1.9-1.17,3.7-1.17,5.38v13.75c0,1.99.57,3.37,1.72,4.15,1.15.78,2.86,1.17,5.16,1.17v1.36l-1.56-.06c-4.41-.13-7.22-.19-8.43-.19-1.12,0-3.68.09-7.65.26v-1.36c1.82,0,3.09-.33,3.83-1.01.73-.67,1.1-1.89,1.1-3.67v-20.3c0-1.99-.37-3.44-1.1-4.35-.74-.91-2.01-1.36-3.83-1.36v-1.36c1.38.13,2.72.2,4.02.2,2.72,0,4.97-.3,6.75-.91v8.11c.78-2.16,2.02-4.09,3.73-5.77,1.71-1.69,3.6-2.53,5.68-2.53,1.73,0,3.15.5,4.25,1.49Z" fill="#243b2f"/>
      <path d="M526.17,97.29c.73.91,2.01,1.36,3.83,1.36v1.36c-1.34-.13-2.68-.19-4.02-.19-2.72,0-4.97.3-6.75.91v-5.77c-.78,1.95-1.95,3.43-3.5,4.44s-3.46,1.52-5.71,1.52c-4.15,0-7.41-1.49-9.76-4.48-2.36-2.98-3.51-7.35-3.47-13.1,0-3.76.66-6.97,1.98-9.63,1.32-2.66,3.09-4.66,5.32-6,2.23-1.34,4.68-2.01,7.36-2.01,1.64,0,3.15.31,4.51.94,1.36.63,2.45,1.59,3.28,2.89v-12.58c0-1.99-.37-3.44-1.1-4.35-.74-.91-2.01-1.36-3.83-1.36v-1.36c1.38.13,2.72.19,4.02.19,2.72,0,4.97-.3,6.75-.91v43.78c0,1.99.37,3.44,1.1,4.35ZM516.44,97.03c1.34-1.3,2.27-3.13,2.79-5.51v-19.33c-1.17-3.33-3.59-4.99-7.27-4.99-2.68,0-4.84,1.37-6.49,4.12-1.64,2.75-2.44,6.76-2.4,12.03-.04,5.19.69,9.09,2.21,11.71,1.51,2.62,3.72,3.92,6.62,3.92,1.69,0,3.2-.65,4.54-1.95Z" fill="#243b2f"/>
      <path d="M544.01,93.98c0,1.77.37,3,1.1,3.67.73.67,2.01,1.01,3.83,1.01v1.36c-3.98-.17-6.6-.26-7.85-.26s-3.87.09-7.85.26v-1.36c1.82,0,3.09-.33,3.83-1.01.73-.67,1.1-1.89,1.1-3.67v-20.3c0-1.99-.37-3.44-1.1-4.35-.74-.91-2.01-1.36-3.83-1.36v-1.36c1.38.13,2.72.2,4.02.2,2.72,0,4.97-.3,6.75-.91v28.09ZM543.56,51.62c.82.82,1.23,1.8,1.23,2.92s-.41,2.1-1.23,2.92c-.82.82-1.8,1.23-2.92,1.23s-2.1-.41-2.92-1.23c-.82-.82-1.23-1.79-1.23-2.92s.41-2.1,1.23-2.92c.82-.82,1.79-1.23,2.92-1.23s2.1.41,2.92,1.23Z" fill="#243b2f"/>
      <path d="M580.92,68.16c.82.87,1.4,1.95,1.75,3.24.35,1.3.52,3.05.52,5.25v17.32c0,1.77.37,3,1.1,3.67.73.67,2.01,1.01,3.83,1.01v1.36c-3.98-.17-6.57-.26-7.78-.26s-3.63.09-7.26.26v-1.36c1.6,0,2.71-.33,3.34-1.01.63-.67.94-1.89.94-3.67v-18.75c0-2.42-.35-4.27-1.04-5.55-.69-1.28-2.1-1.91-4.22-1.91-1.77,0-3.35.52-4.74,1.56s-2.45,2.45-3.21,4.25c-.76,1.8-1.13,3.79-1.13,6v14.4c0,1.77.31,3,.94,3.67.63.67,1.74,1.01,3.34,1.01v1.36c-3.63-.17-6.05-.26-7.26-.26s-3.81.09-7.78.26v-1.36c1.82,0,3.09-.33,3.83-1.01.73-.67,1.1-1.89,1.1-3.67v-20.3c0-1.99-.37-3.44-1.1-4.35-.74-.91-2.01-1.36-3.83-1.36v-1.36c1.38.13,2.72.2,4.02.2,2.72,0,4.97-.3,6.75-.91v7.65c1.08-2.77,2.58-4.77,4.51-6,1.92-1.23,4.1-1.85,6.52-1.85,3.03,0,5.32.82,6.88,2.46Z" fill="#243b2f"/>
      <path d="M606.73,66.41c1.21.48,2.18,1.04,2.92,1.69.48.35.86.52,1.17.52.78,0,1.25-.95,1.43-2.85h1.49c-.17,2.12-.26,5.79-.26,11.03h-1.49c-.48-2.85-1.39-5.21-2.76-7.07-1.36-1.86-3.38-2.79-6.06-2.79-1.56,0-2.83.44-3.83,1.33-.99.89-1.49,2.11-1.49,3.67s.52,2.78,1.56,3.79c1.04,1.02,2.7,2.24,4.99,3.66.39.22.97.58,1.75,1.1,1.99,1.3,3.59,2.44,4.8,3.44,1.21,1,2.19,2.14,2.95,3.44.76,1.3,1.13,2.79,1.13,4.48,0,2.85-1.07,5.08-3.21,6.68-2.14,1.6-4.77,2.4-7.88,2.4-1.95,0-3.65-.3-5.12-.91-.95-.48-1.84-1.06-2.66-1.75-.17-.17-.37-.26-.58-.26-.3,0-.57.22-.81.65-.24.43-.42,1.04-.55,1.82h-1.49c.17-2.46.26-6.79.26-12.97h1.49c.48,4.07,1.34,7.1,2.59,9.11,1.25,2.01,3.39,3.02,6.42,3.02,1.51,0,2.85-.5,4.02-1.49,1.17-.99,1.75-2.55,1.75-4.67,0-1.69-.57-3.11-1.72-4.28-1.15-1.17-3.02-2.57-5.61-4.22-2.12-1.34-3.75-2.44-4.9-3.31-1.15-.86-2.11-1.92-2.89-3.18-.78-1.25-1.17-2.72-1.17-4.41,0-2.72.91-4.8,2.72-6.23s4.11-2.14,6.88-2.14c1.56,0,2.94.24,4.15.71Z" fill="#243b2f"/>
      <path d="M666.73,97.29c.73.91,2.01,1.36,3.83,1.36v1.36c-1.34-.13-2.68-.19-4.02-.19-2.72,0-4.97.3-6.75.91v-5.77c-.78,1.95-1.95,3.43-3.5,4.44s-3.46,1.52-5.71,1.52c-4.15,0-7.41-1.49-9.76-4.48-2.36-2.98-3.51-7.35-3.47-13.1,0-3.76.66-6.97,1.98-9.63,1.32-2.66,3.09-4.66,5.32-6,2.23-1.34,4.68-2.01,7.36-2.01,1.64,0,3.15.31,4.51.94,1.36.63,2.45,1.59,3.28,2.89v-12.58c0-1.99-.37-3.44-1.1-4.35-.74-.91-2.01-1.36-3.83-1.36v-1.36c1.38.13,2.72.19,4.02.19,2.72,0,4.97-.3,6.75-.91v43.78c0,1.99.37,3.44,1.1,4.35ZM657,97.03c1.34-1.3,2.27-3.13,2.79-5.51v-19.33c-1.17-3.33-3.59-4.99-7.27-4.99-2.68,0-4.84,1.37-6.49,4.12-1.64,2.75-2.44,6.76-2.4,12.03-.04,5.19.69,9.09,2.21,11.71,1.51,2.62,3.72,3.92,6.62,3.92,1.69,0,3.2-.65,4.54-1.95Z" fill="#6a7f50"/>
      <path d="M703.25,93.01c0,1.99.37,3.44,1.1,4.35.73.91,2.01,1.36,3.83,1.36v1.36c-1.34-.13-2.68-.19-4.02-.19-2.72,0-4.97.3-6.75.91v-7.65c-1.04,2.68-2.51,4.65-4.41,5.9-1.9,1.25-3.98,1.88-6.23,1.88-2.94,0-5.19-.82-6.75-2.47-.78-.86-1.33-1.97-1.65-3.31-.32-1.34-.49-3.07-.49-5.19v-16.28c0-1.99-.37-3.44-1.1-4.35-.74-.91-2.01-1.36-3.83-1.36v-1.36c1.34.13,2.68.2,4.02.2,2.72,0,4.97-.3,6.75-.91v25.49c0,1.64.1,2.97.29,3.99.19,1.02.65,1.85,1.36,2.5.71.65,1.8.97,3.28.97,1.64,0,3.14-.52,4.48-1.56,1.34-1.04,2.39-2.45,3.15-4.25.76-1.79,1.13-3.77,1.13-5.94v-13.43c0-1.99-.37-3.44-1.1-4.35-.74-.91-2.01-1.36-3.83-1.36v-1.36c1.34.13,2.68.2,4.02.2,2.72,0,4.97-.3,6.75-.91v27.11Z" fill="#6a7f50"/>
      <path d="M751.38,67.77c2.03,1.34,3.05,3.01,3.05,4.99,0,1.13-.32,2.01-.97,2.66-.65.65-1.47.97-2.46.97s-1.84-.29-2.53-.88c-.69-.58-1.04-1.37-1.04-2.37,0-.91.26-1.68.78-2.3s1.17-1.05,1.95-1.27c-.43-.78-1.2-1.43-2.3-1.95s-2.28-.78-3.54-.78c-1.6,0-3.09.51-4.48,1.52-1.38,1.02-2.53,2.7-3.44,5.06-.91,2.36-1.36,5.46-1.36,9.31,0,5.36.86,9.27,2.59,11.71,1.73,2.44,3.98,3.67,6.75,3.67,1.86,0,3.62-.54,5.29-1.62,1.66-1.08,3.04-2.77,4.12-5.06l1.23.45c-.74,2.47-2.11,4.58-4.12,6.36s-4.62,2.66-7.82,2.66c-2.68,0-5.11-.69-7.3-2.08-2.18-1.38-3.9-3.38-5.16-6-1.25-2.62-1.88-5.65-1.88-9.11s.64-6.62,1.91-9.34c1.27-2.72,3.06-4.85,5.35-6.39,2.29-1.53,4.91-2.3,7.85-2.3s5.41.69,7.52,2.08Z" fill="#6a7f50"/>
      <path d="M769.35,73.48c1.08-2.72,2.58-4.7,4.51-5.94,1.92-1.23,4.1-1.85,6.52-1.85,3.03,0,5.32.82,6.88,2.46.82.87,1.4,1.95,1.75,3.24.35,1.3.52,3.05.52,5.25v17.32c0,1.77.37,3,1.1,3.67.73.67,2.01,1.01,3.83,1.01v1.36c-3.98-.17-6.57-.26-7.78-.26s-3.63.09-7.26.26v-1.36c1.6,0,2.71-.33,3.34-1.01.63-.67.94-1.89.94-3.67v-18.75c0-2.42-.35-4.27-1.04-5.55-.69-1.28-2.1-1.91-4.22-1.91-1.77,0-3.34.5-4.7,1.49-1.36,1-2.43,2.39-3.21,4.18-.78,1.8-1.17,3.82-1.17,6.06v14.46c0,1.77.31,3,.94,3.67.63.67,1.74,1.01,3.34,1.01v1.36c-3.63-.17-6.06-.26-7.26-.26s-3.81.09-7.78.26v-1.36c1.82,0,3.09-.33,3.83-1.01.73-.67,1.1-1.89,1.1-3.67v-36.97c0-1.99-.37-3.44-1.1-4.35-.74-.91-2.01-1.36-3.83-1.36v-1.36c1.38.13,2.72.19,4.02.19,2.72,0,4.97-.3,6.75-.91v24.26Z" fill="#6a7f50"/>
      <path d="M825.46,92.23c-.78,2.38-2.24,4.42-4.38,6.13-2.14,1.71-4.72,2.56-7.75,2.56s-5.73-.7-7.98-2.11c-2.25-1.4-3.97-3.37-5.16-5.9-1.19-2.53-1.78-5.46-1.78-8.79,0-3.76.61-7.03,1.82-9.79,1.21-2.77,2.92-4.9,5.12-6.39s4.78-2.24,7.72-2.24c3.89,0,6.89,1.18,8.98,3.54,2.1,2.36,3.15,5.94,3.15,10.74h-20.3c-.13,1.21-.19,2.59-.19,4.15,0,2.85.46,5.34,1.39,7.46.93,2.12,2.16,3.75,3.7,4.9,1.53,1.15,3.15,1.72,4.83,1.72,2.08,0,3.91-.5,5.51-1.49,1.6-.99,2.94-2.66,4.02-4.99l1.3.52ZM817.83,54.31c1.92,2.01,4.12,3.62,6.58,4.83l-.52.91c-2.34-.82-4.62-1.82-6.84-2.98-2.23-1.17-4.01-2.34-5.35-3.5-1.08,1.17-2.5,2.34-4.25,3.5-1.75,1.17-3.54,2.16-5.35,2.98l-.52-.91c2.46-1.21,4.66-2.82,6.58-4.83,1.92-2.01,3.34-4.12,4.25-6.32h1.17c.91,2.21,2.32,4.31,4.25,6.32ZM807.55,69.91c-1.47,1.99-2.38,4.93-2.72,8.82h14.14c.09-3.37-.4-6.18-1.46-8.43-1.06-2.25-2.63-3.37-4.7-3.37s-3.79.99-5.25,2.98Z" fill="#6a7f50"/>
      <path d="M858.8,68.16c.82.87,1.4,1.95,1.75,3.24.35,1.3.52,3.05.52,5.25v17.32c0,1.77.37,3,1.1,3.67.73.67,2.01,1.01,3.83,1.01v1.36c-3.98-.17-6.57-.26-7.78-.26s-3.63.09-7.26.26v-1.36c1.6,0,2.71-.33,3.34-1.01.63-.67.94-1.89.94-3.67v-18.75c0-2.42-.35-4.27-1.04-5.55-.69-1.28-2.1-1.91-4.22-1.91-1.77,0-3.35.52-4.74,1.56s-2.45,2.45-3.21,4.25c-.76,1.8-1.13,3.79-1.13,6v14.4c0,1.77.31,3,.94,3.67.63.67,1.74,1.01,3.34,1.01v1.36c-3.63-.17-6.05-.26-7.26-.26s-3.81.09-7.78.26v-1.36c1.82,0,3.09-.33,3.83-1.01.73-.67,1.1-1.89,1.1-3.67v-20.3c0-1.99-.37-3.44-1.1-4.35-.74-.91-2.01-1.36-3.83-1.36v-1.36c1.38.13,2.72.2,4.02.2,2.72,0,4.97-.3,6.75-.91v7.65c1.08-2.77,2.58-4.77,4.51-6,1.92-1.23,4.1-1.85,6.52-1.85,3.03,0,5.32.82,6.88,2.46Z" fill="#6a7f50"/>
      <path d="M897,92.23c-.78,2.38-2.24,4.42-4.38,6.13-2.14,1.71-4.72,2.56-7.75,2.56s-5.73-.7-7.98-2.11c-2.25-1.4-3.97-3.37-5.16-5.9-1.19-2.53-1.78-5.46-1.78-8.79,0-3.76.61-7.03,1.82-9.79,1.21-2.77,2.92-4.9,5.12-6.39s4.78-2.24,7.72-2.24c3.89,0,6.89,1.18,8.98,3.54,2.1,2.36,3.15,5.94,3.15,10.74h-20.3c-.13,1.21-.19,2.59-.19,4.15,0,2.85.46,5.34,1.39,7.46.93,2.12,2.16,3.75,3.7,4.9,1.53,1.15,3.15,1.72,4.83,1.72,2.08,0,3.91-.5,5.51-1.49,1.6-.99,2.94-2.66,4.02-4.99l1.3.52ZM879.1,69.91c-1.47,1.99-2.38,4.93-2.72,8.82h14.14c.09-3.37-.4-6.18-1.46-8.43-1.06-2.25-2.63-3.37-4.7-3.37s-3.79.99-5.25,2.98Z" fill="#6a7f50"/>
    </g>
    <g>
      <path d="M597.02,159.69c-.7,4.62-13.84.27-21.39-3.34l-8.25,4.29c-.55.28-1.89.16-2.36-.14s.42-1.81.91-2.09l7.31-4.27c3.02-1.76-1-16.42,7.83-21.06,2.45-1.29,3.94,2.89,4.04,5.34,1.05-1.43,1.96-3.72,2.4-5.8,1.14-5.36,5.09-9.76,10.99-9.64.97,1.92,1.59,4.82,2.21,7.5,4.1-5.76,10.21-10.92,11.37-8.48l1.4,2.93,12.68-2.42c.27,5.18-2.8,8.11-5.4,11.48l1.49,3.89c.41,1.07-1.41,3.55-2.4,4.14-3.67,2.2-7.55,2.45-12.01,3.05,2.67,1.5,6.93,2.74,5.86,6.06-1.31,4.06-7.36,5.71-11.28,4.8l-9.98-2.3c2.34,1.84,5.03,3.06,4.59,6.04ZM585.34,147.85c-2.46,2.78-6.08,3.49-8.52,6.34l15.09-7.49c3.32-1.65,7.79,1.1,11.19,1.05-2.26-1.29-4.83-1.93-8.14-2.87l17.5-11.1-8.23,3.97-.67-2.7c-.55,1.62-1.76,4.01-3.26,4.84l-11.65,6.46.49-2.83-3.82,4.32Z" fill="#243b2f"/>
      <path d="M874.48,145.87l-227.7-.02c-.9,0-1.85.01-1.87-.36l-.05-1.57c-.01-.38,1.16-.57,1.91-.57l226.36-.03c1.07,0,1.63.95,1.34,2.55Z"/>
      <path d="M546.63,145.85l-221.06.03-.02-2.54,221.75.04c.84.61.7,1.94-.67,2.47Z"/>
      <path d="M585.34,147.85l3.82-4.32-.49,2.83,11.65-6.46c1.5-.83,2.71-3.22,3.26-4.84l.67,2.7,8.23-3.97-17.5,11.1c3.3.94,5.88,1.57,8.14,2.87-3.4.05-7.87-2.7-11.19-1.05l-15.09,7.49c2.44-2.84,6.06-3.56,8.52-6.34Z" fill="#6a7f50"/>
    </g>
  </g>
  <g>
    <path d="M398.02,208.32c1.31-.04,2.27-.52,2.9-1.46.63-.93.94-2.51.94-4.73v-15.4c0-.71-.06-1.22-.17-1.54-.11-.32-.32-.53-.63-.64s-.8-.19-1.47-.22v-.56c.78.06,1.96.08,3.53.08s2.73-.03,3.61-.08v.56c-.67.04-1.16.11-1.47.22-.31.11-.52.33-.63.64-.11.32-.17.83-.17,1.54v10.25c0,1.59-.03,2.99-.08,4.21-.06,1.22-.19,2.25-.39,3.09-.34,1.36-1.02,2.46-2.06,3.3-1.04.84-2.34,1.26-3.91,1.26v-.53Z" fill="#243b2f"/>
    <path d="M430.58,203.03v.56c-.75-.06-1.75-.08-3-.08-1.61,0-2.8.03-3.58.08v-.56c.71-.04,1.22-.13,1.53-.27.31-.14.46-.4.46-.77,0-.32-.11-.76-.34-1.32l-1.71-4.59h-6.78l-1.15,2.97c-.37,1.01-.56,1.77-.56,2.3,0,.58.2,1,.6,1.26.4.26,1.01.4,1.83.42v.56c-1.06-.06-2.14-.08-3.22-.08-.84,0-1.54.03-2.1.08v-.56c.93-.22,1.67-1.04,2.21-2.44l6.58-16.97h.45l6.83,17.61c.45,1.16,1.09,1.75,1.93,1.79ZM423.72,195.52l-3.14-8.37-3.19,8.37h6.33Z" fill="#243b2f"/>
    <path d="M453.66,202.19c-.43.63-.86,1.09-1.29,1.37-.43.28-1,.42-1.71.42-.77,0-1.4-.22-1.89-.67-.5-.45-.86-1.23-1.11-2.35l-.62-2.8c-.22-.97-.43-1.72-.63-2.24-.2-.52-.49-.94-.88-1.26s-.94-.48-1.65-.48h-2.66v6.44c0,.71.06,1.22.17,1.54.11.32.32.53.63.64.31.11.8.19,1.47.22v.56c-.86-.06-2.04-.08-3.56-.08-1.61,0-2.8.03-3.58.08v-.56c.67-.04,1.16-.11,1.47-.22s.52-.33.63-.64c.11-.32.17-.83.17-1.54v-13.89c0-.71-.06-1.22-.17-1.54-.11-.32-.32-.53-.63-.64s-.8-.19-1.47-.22v-.56c.78.06,1.92.08,3.42.08l3.02-.03c.35-.02.76-.03,1.2-.03,2.17,0,3.83.45,5,1.36,1.17.91,1.75,2.08,1.75,3.51,0,.73-.17,1.46-.52,2.2s-.92,1.4-1.74,1.99-1.87.99-3.18,1.19l.34.06c1.23.21,2.13.58,2.69,1.12.56.54.97,1.4,1.23,2.58l.7,2.86c.19.86.38,1.46.59,1.79.21.34.48.5.84.5.32,0,.58-.08.8-.25.21-.17.46-.44.74-.81l.42.31ZM441.99,184.52c-.29.13-.49.36-.6.7-.11.34-.17.84-.17,1.51v6.89h1.88c1.85,0,3.12-.41,3.81-1.23.69-.82,1.04-1.96,1.04-3.42,0-1.53-.36-2.69-1.09-3.47-.73-.78-1.91-1.18-3.56-1.18-.58,0-1.01.07-1.3.2Z" fill="#243b2f"/>
    <path d="M474.88,186.24c1.64,1.65,2.46,4.06,2.46,7.21,0,2.03-.4,3.82-1.2,5.35-.8,1.53-1.96,2.71-3.49,3.54-1.52.83-3.34,1.25-5.45,1.25l-1.62-.03c-1.05-.04-1.81-.06-2.3-.06-1.53,0-2.69.03-3.47.08v-.56c.67-.04,1.16-.11,1.47-.22s.52-.33.63-.64c.11-.32.17-.83.17-1.54v-13.89c0-.71-.06-1.22-.17-1.54-.11-.32-.32-.53-.63-.64s-.8-.19-1.47-.22v-.56c.65.06,1.56.08,2.72.08l2.38-.03c1.27-.04,2.12-.06,2.55-.06,3.3,0,5.78.83,7.42,2.48ZM465.46,184.46c-.29.13-.49.36-.6.7-.11.34-.17.84-.17,1.51v14c0,.67.06,1.18.17,1.51.11.34.31.57.6.7.29.13.73.2,1.33.2,1.98,0,3.54-.36,4.68-1.08,1.14-.72,1.94-1.77,2.39-3.15.46-1.38.69-3.14.69-5.29s-.25-3.9-.76-5.25c-.5-1.35-1.32-2.37-2.45-3.04-1.13-.67-2.66-1.01-4.58-1.01-.58,0-1.01.07-1.3.2Z" fill="#243b2f"/>
    <path d="M492.27,184.33c-.67.04-1.16.11-1.47.22-.31.11-.52.33-.63.64-.11.32-.17.83-.17,1.54v13.89c0,.71.06,1.22.17,1.54.11.32.32.53.63.64.31.11.8.19,1.47.22v.56c-.86-.06-2.04-.08-3.56-.08-1.61,0-2.8.03-3.58.08v-.56c.67-.04,1.16-.11,1.47-.22.31-.11.52-.33.63-.64s.17-.83.17-1.54v-13.89c0-.71-.06-1.22-.17-1.54-.11-.32-.32-.53-.63-.64-.31-.11-.8-.19-1.47-.22v-.56c.78.06,1.98.08,3.58.08,1.49,0,2.68-.03,3.56-.08v.56Z" fill="#243b2f"/>
    <path d="M517.52,184.33c-.65.04-1.14.14-1.46.29s-.53.42-.64.78c-.11.36-.17.9-.17,1.61v16.72h-.64l-11.76-18.17v14.78c0,.73.06,1.27.18,1.62s.36.61.71.77c.35.16.91.26,1.65.29v.56c-.67-.06-1.62-.08-2.86-.08-1.12,0-1.99.03-2.6.08v-.56c.65-.04,1.14-.14,1.46-.29.32-.16.53-.42.64-.78.11-.36.17-.9.17-1.61v-13.61c0-.71-.06-1.22-.17-1.54-.11-.32-.32-.53-.63-.64-.31-.11-.8-.19-1.47-.22v-.56c.62.06,1.48.08,2.6.08.84,0,1.57-.03,2.18-.08l9.88,15.23v-11.98c0-.73-.06-1.27-.18-1.62-.12-.35-.36-.61-.71-.77-.36-.16-.91-.26-1.65-.29v-.56c.67.06,1.62.08,2.86.08,1.12,0,1.99-.03,2.6-.08v.56Z" fill="#243b2f"/>
    <path d="M532.17,184.33c-.67.04-1.16.11-1.47.22s-.52.33-.63.64c-.11.32-.17.83-.17,1.54v13.89c0,.71.06,1.22.17,1.54s.32.53.63.64.8.19,1.47.22v.56c-.86-.06-2.04-.08-3.56-.08-1.61,0-2.8.03-3.58.08v-.56c.67-.04,1.16-.11,1.47-.22.31-.11.52-.33.63-.64.11-.32.17-.83.17-1.54v-13.89c0-.71-.06-1.22-.17-1.54-.11-.32-.32-.53-.63-.64-.31-.11-.8-.19-1.47-.22v-.56c.78.06,1.98.08,3.58.08,1.49,0,2.68-.03,3.56-.08v.56Z" fill="#243b2f"/>
    <path d="M554.37,203.59c-1.27-.06-3.41-.08-6.41-.08-3.58,0-6.29.03-8.12.08v-.56c.67-.04,1.16-.11,1.47-.22.31-.11.52-.33.63-.64s.17-.83.17-1.54v-13.89c0-.71-.06-1.22-.17-1.54-.11-.32-.32-.53-.63-.64-.31-.11-.8-.19-1.47-.22v-.56c1.83.06,4.54.08,8.12.08,2.74,0,4.69-.03,5.85-.08-.13,1.23-.2,2.33-.2,3.3,0,.73.03,1.31.08,1.74h-.64c-.13-1.21-.3-2.11-.5-2.7-.21-.59-.55-1.02-1.04-1.29-.49-.27-1.22-.41-2.21-.41h-2.32c-.67,0-1.16.05-1.47.15-.31.1-.52.31-.63.63-.11.32-.17.83-.17,1.54v6.61h1.85c.65,0,1.16-.15,1.51-.46s.59-.67.71-1.09.22-.95.29-1.58l.08-.56h.64c-.06.78-.08,1.66-.08,2.63v1.34c0,.95.06,2.28.17,3.98h-.64c-.02-.13-.07-.58-.17-1.36s-.35-1.36-.77-1.75c-.42-.39-1-.59-1.75-.59h-1.85v6.72c0,.71.06,1.22.17,1.54.11.32.32.53.63.63.31.1.8.15,1.47.15h2.04c1.16,0,2.04-.15,2.65-.46.61-.31,1.05-.8,1.33-1.48.28-.68.49-1.68.62-3.01h.64c-.06.5-.08,1.18-.08,2.02,0,1.06.06,2.26.2,3.58Z" fill="#243b2f"/>
    <path d="M579.51,202.19c-.43.63-.86,1.09-1.29,1.37-.43.28-1,.42-1.71.42-.77,0-1.4-.22-1.89-.67-.5-.45-.86-1.23-1.11-2.35l-.62-2.8c-.22-.97-.43-1.72-.63-2.24-.2-.52-.49-.94-.88-1.26-.39-.32-.94-.48-1.65-.48h-2.66v6.44c0,.71.06,1.22.17,1.54s.32.53.63.64.8.19,1.47.22v.56c-.86-.06-2.04-.08-3.56-.08-1.61,0-2.8.03-3.58.08v-.56c.67-.04,1.16-.11,1.47-.22.31-.11.52-.33.63-.64.11-.32.17-.83.17-1.54v-13.89c0-.71-.06-1.22-.17-1.54-.11-.32-.32-.53-.63-.64-.31-.11-.8-.19-1.47-.22v-.56c.78.06,1.92.08,3.42.08l3.02-.03c.35-.02.76-.03,1.2-.03,2.17,0,3.83.45,5,1.36,1.17.91,1.75,2.08,1.75,3.51,0,.73-.17,1.46-.52,2.2-.35.74-.92,1.4-1.74,1.99-.81.59-1.87.99-3.18,1.19l.34.06c1.23.21,2.13.58,2.69,1.12.56.54.97,1.4,1.23,2.58l.7,2.86c.19.86.38,1.46.59,1.79.21.34.49.5.84.5.32,0,.58-.08.8-.25.21-.17.46-.44.74-.81l.42.31ZM567.85,184.52c-.29.13-.49.36-.6.7s-.17.84-.17,1.51v6.89h1.88c1.85,0,3.12-.41,3.81-1.23.69-.82,1.04-1.96,1.04-3.42,0-1.53-.36-2.69-1.09-3.47s-1.91-1.18-3.56-1.18c-.58,0-1.01.07-1.3.2Z" fill="#243b2f"/>
    <path d="M602.5,195.58v5.04c0,.71.07,1.22.22,1.54s.41.53.78.64.98.19,1.82.22v.56c-.97-.06-2.34-.08-4.12-.08-1.61,0-2.8.03-3.58.08v-.56c.67-.04,1.16-.11,1.47-.22.31-.11.52-.33.63-.64.11-.32.17-.83.17-1.54v-13.89c0-.71-.06-1.22-.17-1.54-.11-.32-.32-.53-.63-.64-.31-.11-.8-.19-1.47-.22v-.56c.78.06,1.92.08,3.42.08l3.02-.03c.35-.02.76-.03,1.2-.03,2.18,0,3.85.5,5.01,1.5,1.16,1,1.74,2.34,1.74,4.02,0,1.03-.23,2.01-.69,2.95-.46.94-1.23,1.73-2.32,2.37s-2.54.95-4.35.95h-2.16ZM603.27,184.52c-.29.13-.49.36-.6.7s-.17.84-.17,1.51v8.29h1.88c1.83,0,3.09-.49,3.79-1.47.7-.98,1.05-2.29,1.05-3.93,0-1.81-.36-3.15-1.08-4s-1.91-1.29-3.57-1.29c-.58,0-1.01.07-1.3.2Z" fill="#243b2f"/>
    <path d="M634.82,203.03v.56c-.75-.06-1.75-.08-3-.08-1.61,0-2.8.03-3.58.08v-.56c.71-.04,1.22-.13,1.53-.27.31-.14.46-.4.46-.77,0-.32-.11-.76-.34-1.32l-1.71-4.59h-6.78l-1.15,2.97c-.37,1.01-.56,1.77-.56,2.3,0,.58.2,1,.6,1.26.4.26,1.01.4,1.83.42v.56c-1.06-.06-2.14-.08-3.22-.08-.84,0-1.54.03-2.1.08v-.56c.93-.22,1.67-1.04,2.21-2.44l6.58-16.97h.45l6.83,17.61c.45,1.16,1.09,1.75,1.93,1.79ZM627.95,195.52l-3.14-8.37-3.19,8.37h6.33Z" fill="#243b2f"/>
    <path d="M655.03,183.76v.56c-.37.09-.74.33-1.09.71s-.74.98-1.15,1.78l-4.4,8.71v5.1c0,.71.06,1.22.17,1.54s.32.53.63.64.8.19,1.47.22v.56c-.86-.06-2.04-.08-3.56-.08-1.61,0-2.8.03-3.58.08v-.56c.67-.04,1.16-.11,1.47-.22.31-.11.52-.33.63-.64.11-.32.17-.83.17-1.54v-4.2l-5.68-10.5c-.34-.62-.63-1.03-.88-1.25-.25-.21-.5-.32-.74-.32v-.59c.73.06,1.55.08,2.46.08,1.81,0,3.12-.03,3.92-.08v.59c-1.31,0-1.96.36-1.96,1.06,0,.28.09.61.28.98l4.65,8.93,3.58-7.11c.5-.99.76-1.79.76-2.41,0-.52-.21-.9-.62-1.12-.41-.22-1.03-.34-1.85-.36v-.56c1.06.06,2.14.08,3.22.08.84,0,1.54-.03,2.1-.08Z" fill="#243b2f"/>
    <path d="M669.55,183.72c.48.18.97.43,1.47.77.41.26.73.39.95.39.17,0,.3-.1.39-.29s.17-.51.22-.94h.64c-.09,1.08-.14,2.99-.14,5.71h-.64c-.11-1.51-.55-2.79-1.3-3.82s-1.85-1.55-3.29-1.55c-1.01,0-1.83.3-2.46.91-.63.61-.95,1.39-.95,2.34,0,.71.16,1.33.49,1.85.33.52.74.97,1.25,1.34.5.37,1.22.85,2.16,1.43l.81.5c1.18.73,2.1,1.37,2.79,1.92.68.55,1.23,1.18,1.64,1.89.41.71.62,1.54.62,2.49,0,1.7-.56,3.01-1.68,3.93s-2.54,1.39-4.26,1.39c-.9,0-1.63-.09-2.2-.28-.57-.19-1.12-.44-1.64-.76-.41-.26-.73-.39-.95-.39-.17,0-.3.1-.39.29s-.17.51-.22.94h-.64c.07-1.03.11-3.27.11-6.72h.64c.13,1.89.6,3.42,1.4,4.59.8,1.18,2.03,1.76,3.7,1.76,1.01,0,1.87-.31,2.58-.94.71-.62,1.06-1.55,1.06-2.79,0-1.05-.35-1.93-1.05-2.66-.7-.73-1.81-1.55-3.32-2.46-1.1-.67-1.99-1.27-2.67-1.79s-1.24-1.15-1.67-1.89c-.43-.74-.64-1.6-.64-2.59,0-1.57.5-2.77,1.51-3.6,1.01-.83,2.26-1.25,3.75-1.25.82,0,1.47.09,1.95.27Z" fill="#243b2f"/>
    <path d="M698.54,203.03v.56c-.75-.06-1.75-.08-3-.08-1.61,0-2.8.03-3.58.08v-.56c.71-.04,1.22-.13,1.53-.27.31-.14.46-.4.46-.77,0-.32-.11-.76-.34-1.32l-1.71-4.59h-6.78l-1.15,2.97c-.37,1.01-.56,1.77-.56,2.3,0,.58.2,1,.6,1.26.4.26,1.01.4,1.83.42v.56c-1.06-.06-2.14-.08-3.22-.08-.84,0-1.54.03-2.1.08v-.56c.93-.22,1.67-1.04,2.21-2.44l6.58-16.97h.45l6.83,17.61c.45,1.16,1.09,1.75,1.93,1.79ZM691.68,195.52l-3.14-8.37-3.19,8.37h6.33Z" fill="#243b2f"/>
    <path d="M716.66,183.84c.71.31,1.48.76,2.32,1.36.24.19.43.28.56.28.35,0,.59-.57.7-1.71h.64c-.07,1.21-.11,3.36-.11,6.44h-.64c-.17-.99-.35-1.81-.53-2.45s-.48-1.21-.87-1.69c-.54-.67-1.25-1.2-2.11-1.6s-1.78-.59-2.73-.59c-1.23,0-2.31.4-3.25,1.2s-1.65,1.95-2.16,3.43c-.5,1.48-.76,3.22-.76,5.19,0,3.36.54,5.82,1.61,7.38s2.76,2.34,5.05,2.34c1.12,0,2.09-.29,2.91-.87.34-.22.56-.44.66-.66.1-.21.15-.51.15-.88v-2.69c0-.78-.08-1.35-.22-1.71s-.41-.6-.78-.73c-.37-.13-.98-.21-1.82-.25v-.56c.97.06,2.29.08,3.95.08,1.27,0,2.24-.03,2.91-.08v.56c-.43.04-.74.11-.94.22-.2.11-.33.33-.39.64-.07.32-.1.83-.1,1.54v5.54h-.56c-.02-.37-.09-.73-.22-1.08-.13-.34-.31-.52-.53-.52-.11,0-.22.03-.34.08-.11.06-.31.19-.59.39-.65.5-1.33.88-2.03,1.13s-1.48.38-2.34.38c-1.92,0-3.57-.4-4.94-1.19-1.37-.79-2.42-1.94-3.15-3.43-.73-1.49-1.09-3.28-1.09-5.35s.39-4,1.16-5.61c.77-1.61,1.84-2.86,3.21-3.72s2.91-1.3,4.65-1.3c1.1,0,2.01.15,2.72.46Z" fill="#243b2f"/>
    <path d="M736.74,184.33c-.67.04-1.16.11-1.47.22-.31.11-.52.33-.63.64-.11.32-.17.83-.17,1.54v13.89c0,.71.06,1.22.17,1.54s.32.53.63.64c.31.11.8.19,1.47.22v.56c-.86-.06-2.04-.08-3.56-.08-1.61,0-2.8.03-3.58.08v-.56c.67-.04,1.16-.11,1.47-.22.31-.11.52-.33.63-.64.11-.32.17-.83.17-1.54v-13.89c0-.71-.06-1.22-.17-1.54-.11-.32-.32-.53-.63-.64-.31-.11-.8-.19-1.47-.22v-.56c.78.06,1.98.08,3.58.08,1.49,0,2.68-.03,3.56-.08v.56Z" fill="#243b2f"/>
    <path d="M752.34,183.72c.48.18.97.43,1.47.77.41.26.73.39.95.39.17,0,.3-.1.39-.29s.17-.51.22-.94h.64c-.09,1.08-.14,2.99-.14,5.71h-.64c-.11-1.51-.55-2.79-1.3-3.82s-1.85-1.55-3.29-1.55c-1.01,0-1.83.3-2.46.91-.63.61-.95,1.39-.95,2.34,0,.71.16,1.33.49,1.85.33.52.74.97,1.25,1.34.5.37,1.22.85,2.16,1.43l.81.5c1.18.73,2.1,1.37,2.79,1.92.68.55,1.23,1.18,1.64,1.89.41.71.62,1.54.62,2.49,0,1.7-.56,3.01-1.68,3.93s-2.54,1.39-4.26,1.39c-.9,0-1.63-.09-2.2-.28-.57-.19-1.12-.44-1.64-.76-.41-.26-.73-.39-.95-.39-.17,0-.3.1-.39.29s-.17.51-.22.94h-.64c.07-1.03.11-3.27.11-6.72h.64c.13,1.89.6,3.42,1.4,4.59.8,1.18,2.03,1.76,3.7,1.76,1.01,0,1.87-.31,2.58-.94.71-.62,1.06-1.55,1.06-2.79,0-1.05-.35-1.93-1.05-2.66-.7-.73-1.81-1.55-3.32-2.46-1.1-.67-1.99-1.27-2.67-1.79s-1.24-1.15-1.67-1.89c-.43-.74-.64-1.6-.64-2.59,0-1.57.5-2.77,1.51-3.6,1.01-.83,2.26-1.25,3.75-1.25.82,0,1.47.09,1.95.27Z" fill="#243b2f"/>
    <path d="M780.05,187.35c0,.93.03,1.7.08,2.3h-.64c-.15-1.44-.34-2.51-.56-3.21-.22-.7-.62-1.21-1.18-1.54-.56-.33-1.42-.49-2.58-.49h-1.51v15.93c0,.78.07,1.35.22,1.71s.41.6.78.73c.37.13.98.21,1.82.25v.56c-.97-.06-2.34-.08-4.12-.08-1.87,0-3.25.03-4.14.08v-.56c.84-.04,1.45-.12,1.82-.25.37-.13.63-.37.78-.73s.22-.92.22-1.71v-15.93h-1.51c-1.16,0-2.02.16-2.58.49-.56.33-.95.84-1.18,1.54-.22.7-.41,1.77-.56,3.21h-.64c.06-.6.08-1.36.08-2.3,0-1.06-.07-2.26-.2-3.58,1.55.06,4.18.08,7.9.08s6.32-.03,7.87-.08c-.13,1.33-.2,2.52-.2,3.58Z" fill="#243b2f"/>
    <path d="M802.09,203.59c-1.27-.06-3.41-.08-6.41-.08-3.58,0-6.29.03-8.12.08v-.56c.67-.04,1.16-.11,1.47-.22.31-.11.52-.33.63-.64.11-.32.17-.83.17-1.54v-13.89c0-.71-.06-1.22-.17-1.54-.11-.32-.32-.53-.63-.64-.31-.11-.8-.19-1.47-.22v-.56c1.83.06,4.54.08,8.12.08,2.74,0,4.69-.03,5.85-.08-.13,1.23-.2,2.33-.2,3.3,0,.73.03,1.31.08,1.74h-.64c-.13-1.21-.3-2.11-.5-2.7s-.55-1.02-1.04-1.29c-.49-.27-1.22-.41-2.21-.41h-2.32c-.67,0-1.16.05-1.47.15-.31.1-.52.31-.63.63-.11.32-.17.83-.17,1.54v6.61h1.85c.65,0,1.16-.15,1.51-.46.35-.31.59-.67.71-1.09.12-.42.22-.95.29-1.58l.08-.56h.64c-.06.78-.08,1.66-.08,2.63v1.34c0,.95.06,2.28.17,3.98h-.64c-.02-.13-.08-.58-.17-1.36-.09-.77-.35-1.36-.77-1.75-.42-.39-1-.59-1.75-.59h-1.85v6.72c0,.71.06,1.22.17,1.54s.32.53.63.63c.31.1.8.15,1.47.15h2.04c1.16,0,2.04-.15,2.65-.46.61-.31,1.05-.8,1.33-1.48s.49-1.68.62-3.01h.64c-.06.5-.08,1.18-.08,2.02,0,1.06.07,2.26.2,3.58Z" fill="#243b2f"/>
  </g>
</svg>