<?xml version="1.0" encoding="UTF-8"?>
<svg id="Calque_1" data-name="Calque 1" xmlns="http://www.w3.org/2000/svg" width="476.06" height="463.41" viewBox="0 0 476.06 463.41">
  <path d="M141.49,144.78c.39.16,1.32,2.27,1.49,2.67s1.43.03,1.13,0l.79-4.56c.16-.95,3.44.12,3.93.95.65,1.11,1.79,3.4,2.83,3.45l4.06.21-3.48-3.45c-.76-.75,1.61-3.32,2.54-3.49l-1.98-3.25,6.83-1.87-2.16-1.94-.83-7.63c-2.32,4.51-6.47,7.56-8.62,6.84-.75-.25-1.62-2.45-1.35-3.19.61-1.69,3.63-3.26,5.98-4.39l-4.57-2.17c-1.36-1.61-.26-4.57,1.96-5.46,1.72-.69,3.81,1.02,5.59,3.01-.22-1.27-.57-4.27.44-4.83s4.14,1.09,4.09,2.22l-.2,4.49c2.5-1.08,3.4-1.34,6.45-1.3.02-.48-1.45-2.51-2.78-3.82-1.96-1.93.25-5.83,2.73-5.83l3.23,3.5-.63-3.83c-.17-1.05,3.93-2.09,4.29-1.07l1.6,4.61,1.34-2.65c.4-.8,3.55-.74,3.68.14l.56,3.72,2.04,2.11c1.2,1.24-5.24,2.45-4.81,3.15s1.56,2.48,1.44,2.29c.78-1.22,2.32-3.55,2.9-2.95l2.65,2.77,2.11-3.16c.6-.9,2.99,1.45,3.86,3.04.05.35,2.68-1.37,3.28-1.95l-4.73-1.64-.69-5.96c-.09-.8,1.47-2.58,2.22-2.31l3.64,1.29-1.06-4,7.63,1.2.67-2.84c.19-.82-5.25-.09-5.27-1.76-.01-.94.64-2.75,1.27-3.89l.59-2.05-2.86,1.74c-.47.29-1.68-1.01-1.99-1.26l-.83,4.12c-.86.98-2.26,1.36-3.59.91l-2.51-3.23c-.49.75-1.56,2.41-2.33,2.99-.9.67-3.46-.67-3.88-1.71-1.9-4.68,4.41-4.79,3.88-8.18l-2.19,1.42c-.36.24-1.59-.19-1.58-.63l.08-2.16-5.31,2.28c-1.26.51-3.23-3.12-2.33-4.32.83-1.1,3.21-1.67,5.14-1.83l-2.89-2.89c-.55-.55.58-2.64,1.34-2.61l3.82.17c.17-1.33,2.18-3.71,3.61-3.41,1.23.25,2.25,2.28,3.43,4.69l1.04-4.71c-1.12-.16-2.48-.43-2.36-1.06l.69-3.61c-1.08.11-2.47.39-3.03-.35-.65-.86-1.2-3.03-.65-3.78s2.65-1.22,4.57-1.53l-1.76-3.32c-.46-.87,1.76-3.1,2.73-2.92,3.47.64,3.92,4.99,4.16,4.42-.04.11.92-.68.92-.69s-.09-1.08-.06-1.35l.34-2.75c.07-.59,1.82.68,2.5,1.31l3.37-2.3c1.42.59,3.02,3.46,2.52,5.4-.37,1.43-2.05,2.77-4.36,4.62,1.51-.08,4.96-.78,6.3-1.67.78-.52-.1-4.33.83-4.24l4.15.39,6.87-1.59-2.04-2.57c-1.11-1.39-4.22,1.67-8-.66-.94-.58-.67-4.05.5-4.08l7.14-.23-5.06-2.51c-1.16-.57.65-4.57,1.9-4.2,1.31.39,2.86.99,3.64,1.52,1.16.8-.71,9.24,2.02,7.67,1.72-.99,1.44-4.64,1.25-6.62-.11-1.17,2.01-3.45,3.19-3.46s3.18,1.21,3.61,2.3c.66,1.67-.9,3.91-2.23,4.81l-2.66,1.81,5.03-.18c1.05-.04,1.72,3.33,1.33,3.71l-4.11.68c-1.04.17-1.56,2.44-1.63,3.67,1.02-.02,2.2-.22,2.43.3.3.64.43,2.39.35,3.16l-.29,2.63c-.13,1.15,5.97-1.04,9.75,1.86.61.1,2.16-.21,2.52.24l1.67,2.11,1,1.27c.16.2.6.22.59-.04l-.09-1.71-.13-2.9c-.03-.76,2.08-.88,2.78-.8.36-1.47,1.38-3.6,2.57-3.8,5.85-1.01,2.65,7.54,8.88,8.55.63-2.83-3.3-4.54-2.12-7.79.36-.99,2.69-2.1,3.72-1.87,1.53.34,5.73,5.58,4.71,3.14-1.54-3.69-3.77-4.43-3.1-4.99l2.37-2-2.29-1.85c-.46-.37.78-1.83,1.26-2.42.02-.1-1.07-.95-1.26-.68l-1.3,1.94c-.28.42-.86,1.71-1.36,1.71l-2.45-.02c-1.38-.01-3.98-1.06-4.09-2.35-.15-1.72,1.02-3.46,2.51-5.4l-4.53.78c-.76-.33-1.75-2.88-1.24-3.81.6-1.09,3.22-1.57,4.88-1.68-.88-.92-2.43-2.48-2.9-3.44s1.59-2.82,2.59-3.22c1.14-.46,3.66.84,4.55,1.61.65-1.64,2.27-3.83,3.46-3.69,1.52.17,2.44,1.65,3.61,4.38.45-.83,1.3-3.12,1.91-5.19l3.31-1.53-6.25-1.67c-1.03-.27-2.88-2.51-2.58-3.53.35-1.19,2.82-1.94,4.88-2.39l-2.72-2.15c-.64-.81,1.65-4.19,3.11-4.08,1.38.1,3.14,1.78,5.21,3.56l-.04-4.57c0-1.03,2.89-1.77,3.86-1.45s2.14,2.37,2.12,3.4l-.04,2.49c-.05,3.18,2.08-4.01,4.87-4.35,2.12-.26,3.86,2.5,3.4,4.49l5.42-2.03,1.17-1.96c.85-1.43-5.18-.71-5.01-4.08.05-.96,2.16-2.01,3.11-2.09l2.65-.21-2.3-2.85c-.46-.57,1.93-1.61,2.57-2.13l3.13-2.54c.73-.59,2.3,1.79,2.87,3.34l2.72-2.29c.73-.61,2.58,1.08,2.73,2.03s-1.34,2.56-2.39,3.26l.67.99,1.03,1.54c1.84-3.23,4.26-5.34,7.77-3.86.69.29,2.89.8,2.76,1.54l-.77,4.31c.43.26,3.58,1.17,4.77.86l4.61-1.2c-.66-1.29-1.45-2.85-1.28-3.71.2-1.01,2.93-1.36,3.9-1.3.75-.86,2.22-2.7,3.29-3.04s2.72,1.97,3.24,3.32l2.2-1.7c.54-.41,2.11.31,2.44.91.42.74.08,2.95-.62,3.44l-2.89,2.03c-.67.47-.06,3.24.26,3.62,1.31-2.01,3.23-4.67,4.69-4.43.76.66,2.65,2.35,2.3,2.04-.21-2.49-.44-4.31.4-5.07,1.03-.93,3.42-.2,4.51.49,1.2-.3,3.15-.92,4.21-.77,1.21.17,1.43,3.65.91,4.7l3.57-.44c.82-.1,1.91,2.43,1.63,3.32-.75,2.39-4.24,3.79-7.08,2.69l-.1,2.61,4.76,1.84c1.05-.22,2.32-.5,3.22-.49s1.9,2.71,1.75,3.66c-.58,3.63-3.38,7.22-7.07,8.13-.74-.4-2.09-1.64-2.6-1.26-.61.46-2.74,2.07-2.3,1.74l4.92,3.28-3.5,4.53,4.35,2.36,3.17-3.17c.75-.75,2.86,1.65,3.57,3.12l4.02-2.24-4.1-1.33c-.89-.29.57-2.67.77-3.61l.82-3.66c.21-.96,3.36.34,3.65.8l1.41-3.54c.34-.86,3.34-1.11,3.7-.25l1.49,3.63,2.5-2.01c.68-.55,3.11.49,3.01,1.36s-.63,2.31-1.24,3.86c-.81,1.14-.77,1.91.44.67l2.12-1.59c.51-.38,1.79.91,2.31,1.49,1.14.46,1.67.67.93.38l-1.06-4.76c-.24-1.08,2.72-2.68,3.73-2.24s1.96,1.73,3.39,3.44l1.9-3.01c1.09-1.72,6.75,1.9,5.92,3.29l-1.76,2.94,4.87.63c1.15.15,1.34,6.21.57,6.55l-4.34,1.92c-1.3-.82.77.48,1.3.81,1.16.04,3.08.53,2.95,1.22l-.71,3.89s1.2-1.55,1.73-2.24c.61-.79,3.63-2.04,4.12-1.18.49.86.44,2.02.52,3.73l3.5-2.74c.76-.59,3.23,1.48,3.27,2.44.04,1.13-1.32,2.45-3.2,4.27l4.68,1.38c-.18,1.37-.58,4.49-1.18,5.65-1.26,2.45-5.47,1.13-7.31-1.53-.18,2.67.89,5.03,3.38,7.7-.65,1.59-2.91,3.54-5.58,4.21-1.27.32-3.47-2.42-3.59-3.79l-2.78,3.04c-.71.78-3.51-1.1-3.76-2.12s.45-2.19,1.62-4.29l-5.46.85.7,2.83c.36,1.47-5.35,1.05-6.63,5.7l5.87.33c.81.05,3.25,1.19,2.88,1.93l-1.94,3.86,4.76-2.9c1.01.26,3.25,2.32,3.56,3.56.33,1.33-2.03,2.82-4.22,3.89l3.21,1.17c.87.32,1.39,3.27.49,3.54l-4.45,1.36,2.21,2.7,5.88-4.02,3.49,4.35,4.36-2.67-4.38-1.41c-.8-.26-.86-2.75-.14-3.18l2.85-1.72c-.79-1.38-1.54-3.24-1.13-4.21.72-1.69,3.21-2.85,4.28-.51l2.42-3.23,5.52,4.33c.23.18.62,1.68.88,1.55.29-.14,1.04-.44,1.02-.56l-.25-1.56-.48-3.23c-.11-.72,1.69-2.08,2.31-1.72l2.82,1.63c.78-1.04,2.39-2.75,3.49-2.94,1.41-.25,3.05,2.47,3.01,4.28l2.09.61c.67.19,1.81,2.04,1.23,2.37l-3.32,1.85,3.3-.23c.77-.05,2.01,1.49,2.13,2.26.14.92-1.4,2.45-2.53,3.19l1.62,2.05c1.48,1.88-3.75,3.76-3.51,4.05l1.69,1.97c.34.4,1.11-.76,1.69-1.55l3.14-2.06c.73-.48,2.65,1.52,3.06,1.86l3.83-1.45c.92-.35,2.8,2.41,2.47,2.89l-2.27,3.16,3.51-.54c.68-.1,1.82,1.24,1.57,1.88l-1.19,3.02,3.59,2.34c.89.58-.35,3.91-1.41,4.02s-2.49-.67-4.47-1.68l1.15,2.48c.3.64-.87,2.31-1.58,2.37s-2.36-.58-2.86-1.09l-3.03-3.17.4,5.13c.89.43,3.28,1.6,3.6,2.67.32,1.07-1.68,2.54-3.28,3.59l4.79,1.39-.02-.34c.24-1.11.88-3.29,1.69-3.72.97-.51,2.89,1.17,3.97,1.25l3.52.24c.82.06,2.16,1.92,1.84,2.67-.39.91-2.04,1.86-3.19,2.53l-2,1.15c-.55.32,1.25,1.48,1.88,1.52,1.48.09,2.51.13,3.34.39s1.45,2.68,1.18,3.5c-.66,1.96-4.7,3.57-6.81,1.65l-3.08-2.8c-.67-.61-3.35.53-3.33,1.15l2.45,2.24c.49.45.49,1.95.69,2.74.8,1.18,1.81,3.03,1.29,3.91-1.44,2.45-7.81,1.41-7.85.97l-.37-4.12-3.02,4.27c-1.32-.15-4.18-1.83-4.4-3.18-.28-1.74,1.35-3.96,2.82-5.46l-2.25.31c-1.89.26-1.37-2.02-4.64-1.82-.74.05-.28,2.14.25,3.28.36.78-1.54,2.97-2.34,2.57l-3.41-1.71-1.77-.88c-.38-.19-1.69.65-1.48,1.02,1.63,2.8,6.24,2.44,8.51,6.84.58,1.13-.65,4.21-1.72,4.73-1.19.58-2.94.16-4.97-1.01l-1.53,6.09c-.1.4-1.32,1.36-1.64,1.63s.05,1.52.45,1.41c2.91-.83,3.23-2.52,5.67-2.79.91-.1,2.54,1.14,3.51,1.89.35-.95,1.13-2.76,2.05-3.34s3.45.38,4.12,1.25c.78,1.01.69,3.91-.06,4.94l-1.17,1.6c-.31.42.37,1.9.58,1.84,1.43-.89,3.22-1.9,4.32-1.98s2.26,2.12,2.74,3.67c.36-.05,1.31-1.41,1.09-1.98l-1.43-3.57,4.04.94-2.03-3.74c-.4-.74,4.37-4.85,6.94-4.96,1.05-.04,2.04,2.69,2.74,3.49l3.61,4.1c.31.36,1.62,1.65,1.68,1.2l.4-3.12.25-1.93c.06-.5,1.56-1,1.73-.52l.89,2.52c-1.33,1.49-.7,1.77.67,1,.92-1.2,2.68-3.19,3.57-2.65.99.6,2.71,2.24,3.3,3.15s-1.64,2.84-2.34,3.15l3.49,1.67c.77.37-.29,3.37-1.15,3.4l-3.92.11c-.03-.06.69,1.92.09,2.05l-3.06.7,2.6,1.44c.69.38-.65,2.08-1.69,3.05l2.15,1.04c.58.28,1.92-3.47,5.34-3.35.88.03,1.41,2.57,1.53,3.44l2.91-1.46c.75-.38,3.27.56,3.05,1.37l-.97,3.54,3.96,1.18c.97.29,1.5,2.8,1,3.68-.37.65-1.34,1.66-1.81,1.5l-3.05-1.01,1.14,4.01c.24.83-2.26,2.07-3,1.64l-3.25-1.9c1.04,3.14.97,5.27-.84,7.69l7.01-.3,1.82,2.98c.46.75-1.77,2.12-3.12,2.43-2.11-.09-1.96.99-.11,1.33,1.66.65,3.42,2.27,3.54,3.48.17,1.74-1.55,4.01-2.94,4.09-4.65.28-2.82-5.73-9.09-6.07l1.11,5.48c.17.81-1.67,3.33-2.37,2.88l-3.37-2.19-3.35.11c-.8.03-2.15-2.13-1.66-2.75l2.7-3.42c-.08-1.19-.75-2.32-.99-.17-1.12.69-2.17,1.22-2.84,1.16-.83-.07-2.84-1.47-2.53-2.25s1.1-1.97,1.73-2.91l-4.08-2.22c-.04,1.43.13,3.67-.59,3.88l-3.77,1.1,2.26,3.04c.65.87-.77,3.72-1.8,4.08s-2.89-.53-4.18-.82l-3.28,1.71c-.75.39-1.54-2.31-1.92-3.05l-1.11-2.15c-.3-.59-2.62-.18-2.31.1l2.85,4.52c.67,1.06-1.52,3.53-3.07,4.24l3.92,2.76c.88-1.25,3.18-2.95,4.23-2.45l4.3,2.05,4.12,1.48c1.02.37-.38,2.88-1.65,3.86l3.82.39c.93.09.56,3.21.48,4.14l-.31,3.62c-.09,1.02-3.38.45-4.45-.14-.43.39-1.31,2.16-2.07,2.09l-4-.34,3.03,3.11-.8,2.37c-.62,1.85,4.03-3.53,6.97-2.07,1.21.6,2.81,3.4,2.56,4.26l-5.06,2.24,4.42.44c.82.08,1.83,1.78,1.35,2.47l-2.12,2.99-3.04,4.09-8.1-4.9,2.42,5.1c.21.8-1.05,3.83-2.04,3.83-.98,0-2.18-.44-3.56-.86l-3.12,1.26c-.74.3-1.58-2.31-2.01-2.96l-1.98-1.15c-.56-.32-1.01-1.95-.54-2.44l1.98-2.08c.54-.57-.76-2.78-1-2.73-.8,2.06-1.93,3.34-3.62,2.97-1.11-.24-2.09-2.14-2.71-4.46l-1.76,4.99c-.48,1.35-3.84.09-5.15-1.8-1.57,1.37-3.09,3.94-3.5,6.08,2.63-1.79,6.05-2.12,8.3-1.43.94.29,1.51,2.58,1.53,3.74l-5.42.85c-.52.08-1.29,2.01-.94,1.93l1.82-.39c1.05-.22,3.43.96,3.73,1.99s-1.04,3.29-2.16,3.67c-1.01.34-2.41-1.03-3.62-2.12l-.55,3.38c-.15.92-3.05,1.73-3.5.91l-1.91-3.51-2.91,2.83c-.82.79-3.66-1.38-3.51-2.56s1.45-2.65,2.48-3.63l-1.54-1.81c-.4-.46.75-1.72,1.3-2.37l-5.55-1.71.09,3.88c.02.93-2.16,1.46-2.98,1.89l-3.02,1.61c-.69.37-2.58-1.59-2.23-2.29l1.39-2.79-3.23-.67c-.75-.16-.71-3.17.05-3.31l2.89-.51c.25-.05,1.57.49,1.81.61s.22-.87,0-1.03l-1.06-.8c-.51-.39-2.49-1.68-2-2.1l2.46-2.09c1.64-1.39,3.83,4.21,5.03,3.79.86-.3,3.09-1.09,2.95-1.04-4.26-1.67-4.95-6.14-9.11-6.55-1.97-.19-4.13,1.13-5.55,2.68l-8.91-1.56c-12.32-2.16-9.95,6.28-20.89,11.75-9.22,4.61-12.3,14.02-11.22,23.59l1.71,15.06c2.2,10.33,8.2,17.96,18.81,21.34,3.63.34,7.36,1.71,10.2,4.33l15.76,2.87,25.26,6.41c-19.65,36.22-48.81,64.71-85.05,83.28-18.46-1.64-53.28-10.74-64.87-22.34-1.39-1.39-3.09-5.43-4.22-7.38-.64-1.11-.04-4.11.77-5.06.94-1.1,3.51-1.89,5.62-2.41-1.49-1.47-3.6-5.61-3.38-7.65.13-1.17,2.64-3.43,3.72-3.56,1.22-.15,2.71.37,4.84,1.11l-.47-5.24c-.1-1.15,2.59-2.25,3.52-2.99l3.19-2.53c.76-.6,3.01,1.33,3.59,2.03l1.7-4.51,6.78-1.24-.43,3.86c-.1.04-.25.24-.02.22.25-.02,1.05-.32,1.15-.57l.7-1.7c.32-.78,4.17,2.16,4.9,1.52l3.14-2.78,5.85-5.38c7.89-4.51,16.54-6.8,25.46-9.09,23.02-5.93,46.28-6.29,70.37-5.75l-8.28-1.5c-48.88-6.15-98.1-4.33-146.1,7.07-23.83,5.66-45.76,13.88-67.84,23.93l-8.33,3.79,4.76,2.99c-2.74-.13-6.58-1.15-8.37-.19l-11.48,6.15c1.17-6.53,6.92-8.6,11.66-10.27,7.79-6.24,16.11-10.3,25.38-15.34-10.96,2.25-28.42,1.97-28.78-2.9l-.28-3.82c-12.8,10.92-23.86,21.73-34.48,34.46,8.71-4.96,16.71-9.13,25.73-12.6l12.21-4.69-39.84,30.16,12.56-4.38c9.39-3.28,19.38-3.22,28.5-.12-5.46.36-10.73.35-15.47,2.71l-21.52,10.68c9.44-1.09,17.49-1.65,25.71.81-12.24,1.39-22.74,4.63-33.46,9.48l-12.95,5.86c73.78,44.58,165.34,45.54,238.33-1.06,49.13-31.37,82.82-81.55,94.25-138.54.34-1.69,2.95-3.17,4.22-2.96,1.74.28,3.56,2.44,3.08,4.82-11.23,56.26-43.59,106.6-91.06,139.25-72.92,50.16-165.96,53.08-243.52,11.09C47.22,395.98,2.03,321.84.07,241.37c-1.24-51.02,14.16-101.43,43.32-143.25C90.89,29.97,171.35-6.52,253.74.96c2.48.23,4.29,1.98,4.35,3.81.1,2.99-1.92,4.59-5.16,4.32-44.99-3.76-90.22,5.61-129.68,27.67C14.65,97.44-25.5,242.41,40.15,348.52c.94,1.51,1.96,1.96,3.77,1.7,4.18,4.03,7.61,8.64,11.27,14-3.89-18.35-10.69-35.85-21.13-52,14.73,11.79,22.67,27.98,28.89,46.07-3.57-26.17-12.03-49.79-25.3-73.67,16.69,16.26,25.59,37.63,30.79,60.18l-.08-28.01c-12.68-7.76-13.64-25.55-14.54-40.62l1.1-3.39c-.85-7.95-.54-15.72.92-23.96l2.8,5.05c-2.31-11.24-2-22.7.51-33.97l2.39,5.13c-.45-5.91-1.66-11.49-1.03-16.93l1.98-17.15c.1-1.44.53-1.65,1.55.25-.04-5.73.18-11.68,1.34-17.81l1.57-8.29c1.07-5.62.9-10.92,3.93-16.75l4.96,27.17c1.2,6.58,1.41,12.88.89,19.38l1.66-3.52,1.61,13.82,1.66,14.2,1.66,14.23,1.85,24.69,1.12,13.23c1.13,13.39-1.82,37.58-13.26,45.26l.26,40.4c1.28-2.47,1.22-4.57,1.58-7.16,2.67-19.22,8.34-37.7,17.4-55.01-3.76,20.58-7.13,39.79-8.3,60.69,4.18-12.2,8.63-23.53,16.19-34.05l.06-17.65-3.58-1.97c-.78-.43-1.11-3.27-.37-3.76.46-.31,1.68-.11,3.06.13,1.42-2.6-1.7-2.11-3.89-6.14-.44-.81,1.08-3.33,1.84-2.84l1.57,1c.23.15.5.17.44-.1-.1-.44-.62-1.56-.95-1.83l-3.14-2.55c-.85-.69,1.67-3.26,2.29-3.4l-2.28-2.78c-.55-.67,1.08-2.41,1.22-3.09l-2-2.44c-.45-.55,1.05-1.69,1.95-2.25-1.32-1.4-1.82-4.49.86-6.03,1.15.81,2.04,3.46,2.21,5.25.32.69,1.61,2.51,1.26,3.18l-1.64,3.14c.77-.03,3.43.1,3.17.56l-1.65,2.97,2.17,2.67c.66.8-1.08,3.19-1.93,4.05l.49,1.08c1.03.36,2.98,1.79,2.75,2.63-.27,1.01-1.15,2.63-1.84,3.77l-.85,1.41c-.15.25.02,1.14.26.99l2.03-1.29c.63-.21,2.03,2.88,1.34,3.68l-3.02,3.48-.19,15.75,8.41-8.35,1.96-19,.06-9.7-3.89-2.72c-1.15-.81-.62-4.58.8-5.8l3.35,1.97-.05-3.34c-1.7-.63-3.55-1.45-3.99-2.45-.52-1.17.35-3.98,1.04-4.89l3.05,1.9c.07-1.31.23-3.04-.21-2.97l-2.22.39-1.85-1.25c-.48-.32.08-2.6.65-2.49.75.15,1.49.49,3.45,1.39-.31,1.29.02-.1.25-1.04l-.02-2.04c-1.41-.15-2.85-.47-3.62-1.22-1.16-1.14.36-4.72,1.3-3.94l1.8,1.48c.23.19.6.27.62-.03.02-.34-.19-1.85-.45-2.06l-3.09-2.53c-.8-.65.69-3.91,1.24-3.84l1.66,1.39c.22.18.58.17.55-.13-.36-3.11-2.05-2.33-2.99-5.21-.34-1.03.69-4.26,1.07-4.12,2.14.55,2.15.55,1.49.37-1.3-3.55-1.45-6.47,1.81-7.6,1.33,1.79,1.32,5.76.81,7.95.64-.27,1.94-.9,2.06-.53l.94,2.92-3.96,6.47,3.05-1.45c.74-.35,1.44,2.88.88,3.48l-4.07,4.38,3.29-1.47c.79-.36,2.08,2.79,1.48,3.42l-3.94,4.18c.17.86.53,2.74.17.91l3.41-.64c.64-.12.42,2.36-.35,2.47-1.43.2-4.24,1.99-3.64,4.24l3.04-3.25c2.34,1.98,2.27,5.36-.46,6.76-1.58.81-2.49,2.14-2.89,4.48l4-2.54c.55,1.69,1.04,3.78.91,5.32-.1,1.23-2.28,2.77-4.06,3.53l-1.12,12.36-.34,13.3,5.61-3.78c-.5,3.9-5.52,4.63-6.1,10.74l-2.44,26.01,7.45-6.42,6.42-33.46c-1.78-1.67-3.33-4.4-3.1-6.04.06-.41,1.64-2.28,1.9-1.98l1.92,2.19c.04.16,1.12-1.4.7-1.77l-2.15-1.89c-.7-.61-.99-2.59-.38-3.69.53-.96,1.75-.98,3.71.29l.71-.79-3.98-4.66c-.21-.25,1.67-1.59,1.93-1.38l2.09,1.67-3.15-5.39,3.85.8-2.59-3.09c-.5-.6.51-2.79.97-3.04,2.03,1.52,1.76.79,1.05-.35l-.61-3.7c-.11-.69,1.93-.48,2.21-.44-.8-2.71-.48-5.09,2.98-6.89l.93,7.04c.24,1.81-.3,3.49-1.45,5.19-1.21.92-1.62,1.23.22-.17.65.4,1.8,2.08,1.36,2.57l-2.42,2.66c-.19-.2.04.05.46.47.3.04,1.96.38,1.77.61l-1.38,1.63-2.43,2.88,1.49-.75c.33-.17,1.25-1.28,1.33-.93l.7,3.08-4.96,3.39,2.45.33c.59.08,1.84,1.87,1.45,2.26l-3.56,2.95c-.16.19-.28,1.38-.03,1.3l2.4-.74-.26,3.72c-.08,1.09-2.26,1.87-3.93,2.27l-6.2,31.89,4.22-2.55c.71-.43,2.71-.81,2.99-.07s-.39,2.41-.96,2.97l-7.45,7.45-3.99,19.6,6.84-5.88,8.73-25.77,7.58-22.27-2.83-3.9c-.65-.9,1.1-4.45,2.18-4.2.42.1,1.72,1.24,2.01,1.56s1.06-.2,1.19-.62c.57-1.78-1.12-1.28-2.92-5.44-.39-.89,1.26-3.67,2.18-3.33l2.57.95c2.43.9-1.49-3.51-1.83-5.57-.17-1.02,1.58-3.09,2.36-3.07,2.23,1.48,2.3.65,1.51-.51l-1.4-2.78c-.37-.74,2.33-1.48,3.57-1.47l-2.14-3.58,3.01-1.3c.39-.17-.45-1.53-.44-1.97l.08-2.79c.02-.63,1.87-.29,2.07-.28l2.74-5.6c2.97,1.96,1.64,4.8-.17,6.56.42.42,2.37,2.16,1.84,2.69l-3.38,3.37,1.27.29c.43.1,1.51,1.51,1.1,1.68l-2.13.91-1.53.66c-.28.12-.09,1.24.22,1.19l1.87-.31.36,2.67c.22,1.68-4.79,2.05-4.79,2.02.01-.09.04,1.38.1,1.39.11.02.32-.04,2.34-.31.54-.12,1.36,2.94.87,3.98-.76,1.63-8.33,3.1-5.45,3.5l3.28.45c.55.21.17,3.28-.54,4.09-2.45,2.79-4.78.76-5.42,3.46-.07.29.08.97.35.88l3.3-1.09c.29,1.64.18,2.79-.82,5.52l-4.62,1.08-3.05,7.48-4.26,14.56,7.08-6.24c-.86,5.32-5.96,8.03-8.68,12.47-2.96,4.84-4.03,10.47-6.03,16.3l7.88-3.02,14.89-29.68-1.42-4.18c-.38-1.12,1.93-3.73,2.55-3.45l1.52,1.51c.19.19,1.14.45,1.04.21l-.73-1.8c-.35-.86-.92-3.62-.24-4.24.82-.74,2.17-.82,4.48-1.22l-2.04-1.59c-.45-.35.03-2.91.58-2.74l3.19.99-.84-3.45c-.24-1,1.82-2.48,3.2-3.04-.03-.27-.65-1.92-.14-2.17l2.49-1.25.16-2.87c.04-.67,2.21-.72,2.6-.68.79-1.83,1.83-3.28,4.29-3.8l-.97,4.93-1.64,5.15c-.44,1.4-2.8,2.83-4.23,2.95l1.78,1.24c.4.28.45,1.75-.02,1.87l-2.34.63-1.84.49c-.28.07-.35.58-.09.7l2.17.94c.39.17.75,1.99.31,2.09l-2.86.69-1.55.37c-.28.07-.27,1.07,0,1.17l1.91.67c.22.35-.15,2.54-.9,3.01-2.51,1.58-5.28.48-5.28,1.37,0,.38,0,1.41-.02,1.43-.03.03,1.71-.02,2.23-.04,1.13-.03.49,3.3-.35,4.13-1,.99-2.86,1.24-5.2.95l-9.31,18.5-3.77,8.7,12.45-8.42-5.63,6.32c-2.44,2.74-4.41,4.78-7.55,6.83-3.27,2.14-4.15,7.22-5.74,10.65l-7.61,16.34c5.1-4.14,6.58-9.23,11.05-15.08l-2.24,7.32,13.04-9.25,18.59-12.23,8.05-5.39,1.46-.87c.33-.2-1.05-.5-1.38-.32l-5.89,3.17c-1.98-1.71-2.87-4.37-2-6.35.63-1.44,2.91-1.63,5.94-1.6l-2.69-1.96-.15-5.31,9.95-1.55c-1.16-.99-3.11-2.77-3.34-3.99-.58-3.01,3.68-9.25,4.17-9.27l5.45-.21,1.34-3.64c.41-1.12,3.86.87,4.23,1.71-.07-1.35,1.17-3.91,2.54-3.97,2.5-.1,4.11.92,5.32,3.18l4.46-2.58.19-4.48-2.79-1.56c-.93-.52-.61-3.93.4-4.24l4.24-1.34c-1.38-.95-3.04-3.5-2.71-5.23.38-1.96,2.83-3.47,5.1-2.68l-.33-2.98c-.11-.98,3.03-1.49,4.05-1.2l6.22,1.79c-.46,1.27-.14.39.43-1.13.79-1.38-2.69-3.73-1.21-5.14l2.75-2.61c.74-.7,2.3-3.14,3.2-2.75l3.66,1.59,1.83-2.05c.41-.46,2.12.03,2.53.09,1.14-1.01,2.53-2.2,3.54-2.56,1.18-.42,3.69,1.45,4.43,2.46h2.47c.59,0,1.45,1.61,1.68,2,.97-.57,2.75-1.5,3.8-1.6,1.22-.12,2.21,3.05,2.9,4.01l3.33,2.35c.76.53-1.23,2.51-2.06,3.09l2.12,3.02,5-3.57c1.07-.77,3.52.67,5.09,1.42l2.94,1.41c.75.36-.07,2.71-.07,3.23l2.92,2.16c.79.58-.6,3.09-.99,3.76.53,1.06,1.38,3.2,1.24,4.38-.16,1.33-2.21,2.29-4.24,1.93l.6,3.11-.6,1.52c-.65,1.65,2.64-1.3,6.46-2.07l3.48-.7c.73-.15,1.54,1.92,1.77,2.5,1.21-.18,3.49.02,4.11.92s.1,3.32-.55,4.44c1.04.33,2.86,1,3.32,1.98.66,1.41-1.2,3.93-2.44,4.22l-1.89.44c-1.93.45,4.08.84,4.02,1.34l-.5,3.99,9.54-4.34c7.33-3.33,11.4-10.62,13.65-18.05,1.51-4.98,1.82-9.45,2.41-14.81,1.26-11.54-2.02-24.38-12.1-31.27-4.68-3.2-8.11-5.94-11.43-11.06-1.26-1.95-5.98-4.03-8.27-4.16l-5.43,1.57c-.32.09-1.24,1.17-.93,1.19l1.85.11c.83.05,2.86,2.25,2.19,2.71l-3.41,2.35-3.11,1.92c-.87.54-2.06-2.71-1.98-3.96-.09-.03-1.19-.38-.86-.27-1.02,1.9-1.77,3.22-2.92,4.36-.91.9-3.64-.86-4.14-2.28l2.95-4.03-5.19,1.09c-.3-1.47-.21-4.39.77-4.79s2.73-.61,3.95-.74c-.34-.59-1.3-3.08-.63-3.15l2.94-.29c.32-.03,1.5.46,1.81.54.46.13,1.02-1.03,1.04-1.42l-5.46-2.95c-2.48-1.34-4.12-1.84-6.08-3.33l-2.15,1.89c-.65.57-2.22-1.47-2.62-2.35-5.59-.69,1.58,4.12.86,5.78-.33.76-1.71,1.94-2.5,2.2s-2.33-.91-2.86-1.55l-1.1-1.35c-.18-.22-1.07-.28-.93-.03l.91,1.67c.41.75,1.11,2.5,1.19,3.34s-1.54,2.09-2.37,2.23c-.99.16-2.53-1.43-2.89-2.2l.12-2.09c.03-.55-2.44-.68-1.67-.43l-.17,4.09c-.04.93-2.8,1.84-3.5,1.23-.7-.61-1.74-2.56-1.55-3.47.23-1.09,2.09-1.88,4.02-2.96-3.19-.47-6.47,1.6-9.72,3.57l-4.67,2.68c1.64,1.33,2.98,2.38,3.55,3.22.69,1.01-1.13,3.88-2.31,3.72l-5.04-.67,3.19,3.09c.77.75-.68,3.51-1.65,4.01-1.03.53-3.48,1.07-3.75.24l-1.32-4.02-2.09,5.36c-.37.95-4.11.84-4.44-.18s.1-2.73.81-4.92l-4.59.35,3.05-5.21-3.54,2.32c-.74.49-2.45-1.49-2.97-2.27l-3.58,3.32,3.4,1.06c.71.22.69,2.78-.03,2.99l-3.39,1.01,3.74,2.09c.89.5-.51,3.39-1.32,4-1.01.76-3.13.36-4.41-.6l-2.12,2.49c-.61.72-3.6-.24-3.75-1.17s.15-2.24.79-4.62l-3.74-2.02c.25,2.13-.51,6.11-1.94,5.63-2.28-.76-3.77-1.27-5.65-1.08-1.13.11-2.91-2.74-2.32-3.69.75-1.21,1.94-2.18,4.23-4.28l-5.16.4-.77-4.15c-.18-.97,1.72-1.91,3.2-2.51.56-.63,1.06-2.5,1.9-2.66l4.69-.85-6.77-1.63,4.69-4.54-5.59,1.77c-.44-.25-1.89-1.99-1.53-2.56l1.84-2.88s-.86-.99-.86-.99l-5.47,4.62,2.42,1.78c1.05.77-3.53,5.9-5.55,4.13-.87-.76-1.36-2.72-1.9-5.04.8-.32-1.11.44-1.59.63-.61.24,1.54,3.16.92,6.04-.21.99-2.79,1.65-4.06,1.74-.82.06-3.05-1.05-3.22-1.85-.6-2.81,3.65-3.93,1.52-7.81-2.24,2.53-3.61,4.24-6.46,6.21-1.08.75-4.21-1.97-4.03-3.31.17-1.3,1.78-3.3,2.98-3.97l1.71-.96c.27-.15.37-.77.09-.85l-2.46-.72c-1.16-.34-3.06-1.36-3.27-2.39-.29-1.43,1.91-3.59,3.11-3.35.94.18,2.71.61,2.6.2s-.25-2.08-.04-2.46c.84-1.49,4.67-.51,6.26,1.03l-.11-2.43c-.03-.6,1.18-1.09,2.36-1.71l-1.91-1.07c-.59-.33-.82-1.75-1.07-2.79l-3.98,2.59c-.41-.45-1.24-1.73-.9-2.09l2.26-2.43-4.8,2.43c-1.11.56-3.63-1.42-3.36-2.78.4-2.03,1.8-3.07,4.37-3.91l-.36-1.06c-1.59-.79-2.23-2.94-1.17-4.14.77-.87,3.18-.77,4.94-.24l.15-2.83c.04-.82,3.08-1.09,3.58-.44,1.76,2.27.85,5.92,1.6,4.95l.94-1.21,1.82-2.36c.49-.63,2.03,1.81,2.72,2.19l1.59.86c.33.18.05-1.03-.07-1.24l-2.59-2.43c-.51-.48.97-2.03,1.22-2.28l-3.46-1.72c-.76-.38.31-3.32,1.17-3.35l3.62-.09.88-3.22c.28-1.01,3.57-1.16,4.02-.22l1.94,4.1,1.63-3.57c.45-.99,4.11-.57,4.28.51s-.02,2.63-.26,4.86l5.08-2.82.95,3.92,4.91-.17-1.48-2.15c-.39-.57,1.1-2,1.54-2.4l-3.4-.68c-.67-.13-1.47-1.97-.96-2.43l2.11-1.94c-.28-1.25-.14-3.71.82-4.36,1.19-.8,4.09-.02,5.23.6.45-1.05,2.49-2.8,3.74-2.41,2.1.66,2.72,2.21,2.29,5.29l2.05-.06c-.34-2.73.22-5.4,1.77-8.1l5.92.25-2.3-3.82c-.59-.98,2.7-2.88,3.82-2.63l2.38.52c.61.13.67,1.66.22,2.11l-1.19,1.17c-.3.3.87,1.01,1.17,1.32s.64-1.69.95-1.99l2.84-2.72c-2-2.84-7.48-4.88-10.55-2.32-2.65,2.77-3.15,6.88-6.77,6.73-1.35-.06-2.96-1.78-4.19-3.6l-8.11.98c-.59.07-2.39-1.13-2.79-1.57s.25-1.15,1.36-2.62l-10.1-4.63-3.92,3.65c.61.17,2.03.21,2.95.05,1.09-.19,3.85.96,3.86,2.07s-1.94,2.72-3.03,3.46l1.95,2.72c.58.81-1.71,2.74-2.69,2.96-2.29.5-2.59-4.48-5.34-4.06,1.42,1.8,2.9,4.86,2.17,6.52-.36.81-3.76,1.11-4.23.35l-2.25-3.57-1.41,6.43-2.64-1.27c-.46-.22-1.03.27-2.36.94-1.84.92-4.9-2.46-4.46-4.53l5.11-2.66-3.99.28c-.95.07-3.28-1.58-2.78-2.35.84-1.3,3.18-2.89,3.91-3.19l-2.01-3.21-2.14,3.36c-.53.83-2.86-1.09-3.18-2.34-.12-.29-1.95-.15-1.89.4l.28,2.59c.13,1.21,1.31,3.1.7,3.8s-2.45,1.75-3.37,2.15l-2.89,1.25c-.73.32-2.39-1.05-2.75-1.81l.25-6.53-3.78,4.65c-.92.22-3.25.19-4.21-.13s-1.67-3.15-.88-3.79l3.87-3.16-5.11-1.04c.38-1.87,1.14-3.7,2.66-5.36,1.07-1.17,3.99-.37,5.82.5l-1.5-3.37c-.35-.79,2.67-1.42,3.51-1.2l2.36.62c.55.15-.07-1.66-.39-1.98-.69-.19-3.1-.74-2.96-1.38l.74-3.29c-2.12,1.16-3.89,2.16-5.04,2.09s-2.87-2.86-2.13-3.76,2.61-1.74,4.71-2.77l-3.28-1.88c.21-3.14,5.18-6.54,7.45-5.59ZM294.2,38.97l-.05-2.97c-.03-1.81-.33-4.02-.77-5.57-.62,4.6-2.53,6.14-6.39,8.52l7.21.02ZM294.98,64.67c-4.47-2.37-4.29-8.06-8.47-8.3,1.2,5.03,3.46,8.78,7.02,12.9l1.45-4.61ZM284.68,66.47c1.21-.71-.02-4.34-1.29-5.26-1.03-.76-4.25-.11-5.76.5l-1.35,4.14,8.4.63ZM366.72,91.1l3.35,2.4-1.1-3.82c-.24-.84,3.23-1.64,3.47-2.54l3.08-11.21c-1.21,0-2.93,1.49-3.4,2.56-.33.74.19,1.82.42,3.11-5.35,3.01-10.06,5.81-11.21,11.55l5.39-2.05ZM317.21,125.94c-4.65,1.11-6.26-.94-6.13-3.04.07-1.26,1.47-2.97,2.82-4.31l-2.03-3.78c-.48-.89,1.44-2.87,2-3.72.24-.36-1.05-2.12-1.29-1.77l-1.23,1.74c-3.04,4.29,1.05,9.78-5.85,11.76-1.58,4.93,1.17,10.65,5.5,14.49,2.6-3.42,4.65-7.31,6.22-11.37ZM299.47,130.04c.15-5.13-.15-6.54-2.01-9.19-2.53,1.32-7.1-.25-7.7-2.77-.7-2.95-1.64-4.42-3.7-6.31l-1.11,3.58,7.94,10.55c1.7,2.26,4.33,4.01,6.58,4.15ZM293.08,156.36c-.6-1.8-1.34-4.18-.38-4.39l3.86-.84,2.24-3.06c.54-.73,3.37-.08,3.5.83l.48,3.46,2.74-1.52c.33-5.45-1.38-11.44-5.79-15.13-1.56-1.3-5.8-1.05-7.93-.85l-5.41-8.71-3.39-6.51c-.55-.13-2.51,1.92-2.73,3.31-.16,1.02,1.25,2.06,3.51,3.08l-1.47,3.51c-.39.94-3.37.97-4.18.85l1.3,8.28c.26,1.63,2.14,5.07,2.91,5.81l4.64-2.03c.87-.38,6.32,2.87,5.64,5.85-.22.96-1.91,2.14-2.92,2.67l-3.05,1.62c.72,2.86,3.72,4.17,6.42,3.75ZM333.32,123.82c-2.3.05-3.73.42-5.79,1.41l-1.71.82c-.24.12-.11-.77-.11-1.04v-1.67c-1.14.8-2.08,3.33-2.08,4.84,2.89-.76,4.3-.95,7.22-.81l2.47-3.53ZM271.41,127.79c-1.58,1.28-3.27,2.54-3.72,1.99l-1.91-2.36-1.76-2.33c-.4-.52-2.37.82-2.19,1.45l.7,2.51c.48,1.7,2.08,4.18,3.44,4.78l8.08,3.51c-.45-3.95-1.33-6.96-2.63-9.54ZM256.66,157.28c1.83.76,4,1.57,4.39.89l1.84-3.21c.48-.84,1.89-2.86,2.79-2.52l3.53,1.35-3.65-3.59c1.3-2.55,5.18-3.58,9.25-1.89-.45-6.05-5.93-8.02-10.95-10.35l-6.17-5.2c-3.11-2.62-5.8-4.33-9.67-5.33l-3.84-.99,7.4,6.28c.85.72,2.16,3.42,1.27,3.87l-3.44,1.77c-1.94,1-4.23,1.13-6.74.43.16,2.26,2.21,5.68,4.35,6.71.89-1.48,2.07-3.28,2.82-2.88l2.7,1.42,2.96-1.67c.77-.43,2.8.64,3.76,1.33.99.71,2.66,3.63,1.72,4.28l-3.43,2.37,4.86.87c-.29,3.47-3.29,5.43-5.74,6.07ZM341.36,144.81l-.21-3.1c-.04-.54-2.48-.13-2.42.41l.85,8.47-6.49-.82.71-4.91c-.05-1.65-1.05-1.6-1.26.27-.08.99-2.46,3.61-3.03,2.83l-2.38-3.29-2.91.52c-.64.11-2.12-1.43-1.73-1.96l1.95-2.58-3.9-3.01c3.12-2.56,5.08-1.99,8.84-1.71l-8.25-3.72-3.55,7.12c-2.26,4.53-3.03,9.49-1.68,13.76,1.46-.64,3.92-1.19,4.19-.31l1.35,4.41c-.08,1.84.81,1.92,1.1.04.59-1.3,1.68-3.02,2.53-3.09,2.41-.2,6.67,3.98,6.13,4.85l-2.32,3.75,2.98,1.37c.48.22.77,1.27,1.47,2.65,2.85-4.71,4.88-9.37,6.66-14.84l2.91-3.5c-.75-1.35-1.49-2.75-1.55-3.6ZM233.25,148.46c.43.12,2.43-1.65,2.71-1.29l1.3,1.69,1.23,1.59c.17.22.31-.8.32-1.08.1-3.73,1.77-3.62.32-6.29-.92-1.68-4.66-1.12-4.4.24l.48,2.6c.06.35-.93,1.06-1.19.83l-1.51-1.33c-.68-.61-2.54-2-3.16-1.37l-2.54,2.57,6.45,1.85ZM353.87,150.4l2.43-5.31c.27-.6.63-2.06.04-2.07l-2.65-.03c-.56,3.97-2.85,6.5-6.75,7.02l-3.39,8.64c6.09-.22,8.25-3.7,10.32-8.24ZM401.74,149.16l4.71-2.49c.44-.23.75-1.13.91-1.67.15-.5-2.41-1.08-2.88-.87l-6.97,3.18,4.23,1.84ZM207.82,163.56l9.51,1.81c.48.09,1.74-1.54,1.38-1.87l-1.25-1.12c-3.24-2.91-6.26-6.12-8.37-9.5l-2.63.73,5.7,6.31-4.35,3.63ZM349.57,177.34c.28.01,1.58-.45,1.33-.58l-1.54-.79c-.98-.51-2.25-3.15-1.58-4.02,1.48-1.9,8.55-2.19,8.9-1.24l1.64,4.47c.66-2.54.91-4.53,1.58-5.69,1.4-2.4,7.59,1.27,7.86.34l.55-1.92c.13-.44-1.37-1.02-1.82-1.12l-6.43-1.44c-1.45-.33-2.1-3.96-1.03-5.08.79-.83,2.53-1.29,4.61-1.72.17.42.43-2.08-.16-2.15s-2.48-.02-3.08.33l-10.43,6.06c-13.09,7.6-10.25,14.11-11.67,14.46l-4.7,1.18c-.15-.84.22,1.23.24,1.31,1.36.27,2.83.71,2.51,1.17l-1.15,1.68c-.32.47-1.24,2.21-.7,2.35l2.32.63c1.15.31-.49-2.37,1.84-5.51.53-.72,3.3-.24,3.68.56.8,1.7,2.97,4.64,5.58,2.98l-3.42-2.89c-.45-.65-.03-3.65,1.04-3.6l4.06.21ZM202.13,167l-7.46-4.86-2.6-4.2c-.22-.36-1.59-.93-2.05-1.14-.25-.12-.21,1.01-.02,1.22l.91,1.04c1.63,1.87,2.3,3.84.73,6.07-.66.95-1.04,2.94-.35,3.5.58.47,2.58,1.11,3.38.85l7.45-2.48ZM282.63,162.04c-.63-1.53-1.21-3.69-1.89-3.53l-2.45.56c-.52.12-1.99,1.29-1.59,1.63l1.5,1.24,2.42,1.65c.54.37,2.39-1.33,2.02-1.54ZM271.04,172.18c1.41-3.84,1.95-4.03,5.2-4.48l-1.25-3.86c-4.43,2-6.44,6.92-5.27,7.58.49.28,2.29,1.3,1.32.75ZM379.6,173.54c1.17-.13,4.13,2.1,4.42,2.45l2.94-3.81-4.7-2.84-9.23,3.4,2.75,6.81c.42-2.03,1.34-5.74,3.81-6.01ZM259.55,179.21c.33-.82,1.82-2.88,2.58-2.48l3.94,2.06.23-4.89-9.68,3.11c-.78.25-3-.1-3.15-.82l-.72-3.43c-2.53,1.29-2.56,3.39-1.79,6.5.43,1.73,1.73,4.22,2.77,3.46,1.66-2.51,3.54-4.09,5.83-3.52ZM254.04,198.04l3.26-.99c.25-.08-.08-1.18-.39-1.13l-1.89.32c-.66.11-2.44.45-2.81-.11l-1.64-2.51-1.89-2.89c-.36-.54.22-1.87.6-3.28-6.07-3.11-10.16.06-12.61-4.71-.76-1.48-3.01-2.52-3.95-2.06l3.24,4.36,2.38,1.99c.5.42-1.27,2.41-1.87,2.17l-2.36-.96c-1.42-1.85-3.64-2.39-5.17-.58l8.75,10.97c3.74-.93,4.75.98,6.64,3.99.58-2.91,1.43-5.42,3.79-5.15,1.47.17,3.14,2.11,4,3.48l1.05,1.67c1.53,2.43.52-4.48.86-4.58ZM219.76,192.23c.5-1.12,3.9-.54,4.81.52,1.26,1.46,1.17,2.7-.34,4.81,1.52,1.06,3.78,1.1,6.77-.12l-10.15-13.14-3.3,3.28c.57,1.11,1.66,3.19,1.11,3.86l-2.54,3.07,1.96.79c.55.22,1.12-1.81,1.68-3.08ZM305.71,198.61c-.49-.38-1.56,1.09-1.2,1.36l1.73,1.34c.94.73-.6,3.23-1.75,4.15-.93.74-3.5.08-4.57-.97l-4.31-4.27c.81-2.12,1.27-4.52,1.25-6.23-1.97,2.95-2.6,4.05-5.36,4.91,1.91,7,5.53,15.22,12.36,19.16l9.65,5.57c.46-8.12-.58-15.55-1.94-22.47-2.08.16-4.72-1.68-5.85-2.54ZM408.11,194.52l-7.02,1.8-3.08-3.05-.65,5.94c4.69-1.64,6.72-2.25,10.75-4.68ZM331.86,208.22l5.02-8.64c.2-.35-1.22-2.4-1.31-2s-.69,2.28-1.09,2.37c-1.26.3-3.12-.17-5.9-.79l3.27,9.06ZM388.36,204.19c.68-.37.49-4.07-.16-3.9l-2.73.73c-3.77,1.01-6.99,3.68-7.04,8.53l9.93-5.36ZM234.89,221.25c.46-2.46.31-4.7-.62-5.12l-3.71-1.65c-.68-2.92,3.29-6.68,6.98-5.79l-2.79-4.81-6.54-.78c-.34,1.53-.66,3.6-1.58,3.68l-4.39.37-2.48.21c-.33.03.81.99.86.95l3.23.61c.72.14.71,3.07-.02,3.23l-4.17.93,6.62,3.18,8.61,4.99ZM352.37,222.65l2.9-11.1c-2.86,1.58-3.89,2.29-5.29,2.49s-3.95-2.18-3.61-3.41c.28-1.02,3.63-.88,4.03-.47l2.89-3.94c.16-.95-3.38-1.73-4.55-1.59l1.32,3.83-5.34-1.08c-6.9,8.46-6.77,16.27-4.8,27.34l5.39-4.41c2.06-1.69,6.31-4.83,7.06-7.67ZM414.45,212.99c-.85-.54-2.52-1.36-2.43-2.01l.34-2.55-5.62-1.48c-2.3-.61-4.65-.56-7.39.36,3.01,3.82,7.5.41,10.89,8.37l4.2-2.68ZM290.91,213.89l-5-6.87-4.62,4.33c2.28,2.06,6.21,3,9.62,2.53ZM359.79,220.84l8.82-5.25-3.93-3.72c-.5,1.05-1.84,2.3-3.77,3.19-.88.76-1.29,3.41-1.12,5.78ZM309.4,251.31c3.18-12.03-6.39-24.4-15.39-29.18-2.4-1.27-6.79-2.44-9.28-2.66l-5.81-.52-1.03,3.9,5.04-.62c.98-.12,2.3,2.61,1.63,3.33l-2.12,2.26,6.93,10.11c2.12,3.09,5.45,5.22,8.7,7.04l11.33,6.35ZM373.04,241.59c11.04-3.4,10.85-9.8,11.11-9.84l3.45-.56.85-2.99,3.09-.79c.67-.17,2.75-1.12,2.44-1.04-4.52-2.7-2.93-7.19-7.42-6.76l1.27,3.71c.45,1.33-4.46,5.89-6.95,3.92-1.06-.84-1.72-3.38-1.8-4.87l-.15-3.02c.03.58-14.05,2.95-19.9,10.69l-7.99,10.57c-3.94,5.22-7.58,10.56-6.58,17.6l8.45-3.27c9.1-3.52,8.03-8.56,16.01-11.06,2.12-7.73,5.62-18.56,10.64-16.96-3.08,5.44-5.06,9.21-6.51,14.67ZM264.05,228.51l-3.35-6.05c-1.33.07-2.51,3.12-1.45,4.58,1.24,1.7,4.14,2.29,4.79,1.48ZM216.39,240.11l-1.75,4.42,3.94-4.08,7.59-4.01c-.5-1.87-.57-4.35.39-5.09.82-.64,2.93-.92,4.39-1.35l2.33-.69c.44-.13-.26-1.08-.68-1.25l-1.7-.7c-1-.41-3.35-1.85-4.05-1.05l-2.82,3.17-3.37,1.38-1.54,3.74c-.28.68-2.91.51-3.3-.12l-1.7-2.77-.06,4.36-5.98.86c.87,3.32,9.66-.26,8.3,3.17ZM276.73,234.31c-.88-2.65-1.84-3.89-3.59-5.87l-1.96-3.25-3.16,6.16,8.71,2.96ZM404.33,248.15l-4.02-5.65-4.16,2.44-4.56-1.04c-2.22-2.55-6.57-4.15-9.97-1.71l-6.74,4.83,10.54,2.21,7.48-2.3c2.09-.64,4.54.53,6.1,2.6l5.34-1.4ZM413.76,255.45l1.76-2.06-7.55-5.97c-.94.35-1.41,1.95-.59,2.2,1.3.85,2.2,1.5,1.8,1.79l-1.7,1.23,1.23,1.27,1.61-.85,3.43,2.38ZM407.13,259.74c-.7-1.12-1.49-2.13-2.23-2.1-4.22.17.67,1.25,2.84,8.26.43-.34,1.73-2.44,1.28-3.15l-1.89-3.01ZM316.09,287.62c.9-4.89.84-9.84-.86-14.45-.68,5.06-.95,9.54.86,14.45ZM102.67,349.47l5.5-6.56,2.08-27.47c-3.31,4.31-7.64,9.24-7.62,14.36l.04,19.68ZM91.85,366.68c3.24-5.86,7.44-10.69,8.84-15.82,1.39-5.11-.22-11.65.05-16.82-2.16,4.84-4.03,9.76-5.06,14.65l-3.82,17.99ZM108.57,366.16c1.52-1.48,3.92-4.22,4.28-6.03l3.44-17.39c-3.59,3.79-5.67,7.77-7.49,12.31l-.23,11.1ZM124.45,366.72l6.2-12.27c-5.46,2.57-7.92,6.68-9.69,11.69l-2.56,7.24c2.18-1.41,4.69-3.97,6.04-6.66ZM107.19,367.51l-1.14-7.21c-2.89,5.58-4.95,10.94-5.81,17.41l6.95-10.2ZM118.65,367.41l-.78-1.42c-4.18,4.56-5.28,8.94-4.71,14.33,3.35-4.11,3.91-7.37,5.48-12.91Z" fill="#243b2f"/>
  <path d="M209.09,381.32l26.71-2.34,4.9-3.62c1.5-1.11,3.59-4.07,5.47-6.26l-19-3.44,22.46-2.32c5.4-.56,10.38-4.29,14.88-6.67l-8.23-1.41c4.62-4.18,9.92-.77,14.29-2.12l16.6-5.15,9.36-2.97-12-.52c5.66-1.89,10.82-.42,16.14-.67l12.01-.56-15.54,5.1c-17.21,5.64-37.15,12.35-48.41,26.38-6.35,7.91-5.63,17.95,1.34,25.16,16.01,16.53,42.78,22.87,65.16,28.37l-12.01,5.18c-15.38-3.37-29.91-8.05-43.48-15.88-12.52-7.23-23.83-18.54-21.6-32.93-9.86-.61-18.88-.64-29.05-3.33Z" fill="#6a7f50"/>
  <path d="M200.87,422.86l38.04-5.46,7.3-2.55c2.76,1.28,5.73,4.8,6.1,8.5-17.54.52-34.02,1.62-51.44-.49Z" fill="#6a7f50"/>
  <path d="M228.12,444.44c14.92-2.3,29.71-4.23,44.27-8.81,1.67-.53,3.43-4.03,12.39,3.06-18.97,4.79-37.32,7.26-56.67,5.75Z" fill="#6a7f50"/>
  <path d="M140.58,359.87l-5.86,11.71c-.39.89-2.93.24-4.07-.36l19.53-31.37,3.56-6.37-.69-4.32c-.18-1.15,3.55-1.6,4.51-1.42l.04-5.4,3.32-.3c-.15-2.87,1.08-4.22,2.98-5.69l3.47-2.69,4.18-3.06-4.16,8.88-4.49,9.07-3,1.02c-.52.18,1.2,1.73,1.22,2.29.04,1.75-3.53,4.11-5.83,2.74l-3.56,6.76-11.14,18.5Z" fill="#233a2e"/>
  <path d="M235.28,403.19l-36.76-1.13-1.08-1.89,29.89-2.57c2.01-.17,3.99-1.62,6.9-3.33l1.05,8.92Z" fill="#6a7f50"/>
  <path d="M236.07,70.04c-.68,2.25-4.13-1.97-7.65,1.09-.56.49-2.82,1.59-3.07.94l-1.1-2.89c-.27-.71-.42-3.13.32-3.21l3.78-.43c-1.29-2.12-1.56-5.02.55-6.96.94-.87,3-1.77,3.85-1.31s2.32,2.06,2.55,3c.44,1.74-5.57,5.25-3.99,5.69l2.23.62c2.13.6,3.15,1.45,2.53,3.47Z" fill="#233a2e"/>
</svg>