<?xml version="1.0" encoding="UTF-8"?>
<svg id="Calque_1" data-name="Calque 1" xmlns="http://www.w3.org/2000/svg" width="897.67" height="248.52" viewBox="0 0 897.67 248.52">
  <g>
    <path d="M317.92,52.55v34.21c0,1.25.1,2.17.3,2.76.2.6.61,1,1.23,1.19.62.2,1.53.3,2.73.3h2.54c3.88,0,7.24-1.05,10.08-3.14,2.84-2.09,4.73-4.88,5.68-8.36.05-.15.2-.2.45-.15.25.05.37.15.37.3-.15,1.64-.3,3.62-.45,5.94-.15,2.32-.22,4.44-.22,6.39,0,.75-.37,1.12-1.12,1.12h-35.25c-.1,0-.15-.15-.15-.45s.05-.45.15-.45c1.54,0,2.69-.12,3.44-.37.75-.25,1.26-.75,1.53-1.49.27-.75.41-1.84.41-3.29v-34.58c0-1.44-.14-2.53-.41-3.25-.27-.72-.78-1.22-1.53-1.49-.75-.27-1.89-.41-3.44-.41-.1,0-.15-.15-.15-.45s.05-.45.15-.45c1.19,0,2.63.04,4.29.11,1.67.07,3.4.11,5.19.11,1.89,0,3.63-.04,5.23-.11,1.59-.07,3.01-.11,4.26-.11.15,0,.22.15.22.45s-.07.45-.22.45c-1.49,0-2.63.14-3.4.41-.77.27-1.28.78-1.53,1.53-.25.75-.37,1.84-.37,3.29Z" fill="#243b2f"/>
    <path d="M360.27,94c-3.24,0-5.99-.67-8.25-2.02-2.27-1.34-3.98-3.12-5.15-5.34-1.17-2.21-1.76-4.59-1.76-7.13,0-2.94.72-5.6,2.17-7.99,1.44-2.39,3.44-4.31,5.97-5.75,2.54-1.44,5.45-2.17,8.74-2.17,2.94,0,5.29.67,7.06,2.02,1.77,1.34,2.65,3.54,2.65,6.57,0,.65-.05,1.19-.15,1.64-.1.45-.32.67-.67.67h-7.17c.1-2.84-.17-5.12-.82-6.83-.65-1.72-1.89-2.58-3.73-2.58-1.99,0-3.57,1.02-4.74,3.06-1.17,2.04-1.75,4.76-1.75,8.14,0,2.89.45,5.38,1.34,7.47s2.21,3.71,3.96,4.85c1.74,1.15,3.88,1.72,6.42,1.72,1.49,0,2.75-.19,3.77-.56,1.02-.37,2.15-.88,3.4-1.53.1-.1.24-.05.41.15.17.2.21.37.11.52-1.84,1.84-3.72,3.15-5.64,3.92-1.92.77-3.97,1.16-6.16,1.16ZM350.04,74.59l-.07-1.42,16.36-.3v1.64l-16.28.07Z" fill="#243b2f"/>
    <path d="M382.75,67.86c0,1.05.29,1.98.86,2.8.57.82,1.31,1.57,2.2,2.24s1.87,1.33,2.91,1.98c1.24.7,2.46,1.43,3.66,2.2,1.19.77,2.19,1.71,2.99,2.8.8,1.1,1.19,2.51,1.19,4.26,0,1.59-.41,3.15-1.23,4.67-.82,1.52-2.05,2.75-3.7,3.7-1.64.95-3.71,1.42-6.2,1.42-1.25,0-2.49-.14-3.73-.41-1.25-.27-2.59-.81-4.03-1.61-.1-.1-.2-.22-.3-.37-.1-.15-.15-.32-.15-.52l-.15-7.39c0-.15.14-.24.41-.26.27-.02.44.01.49.11.55,1.59,1.32,3.07,2.32,4.44,1,1.37,2.13,2.46,3.4,3.29,1.27.82,2.55,1.23,3.85,1.23,1,0,1.82-.31,2.46-.93.65-.62.97-1.58.97-2.88,0-1.39-.31-2.55-.93-3.47-.62-.92-1.41-1.72-2.35-2.39-.95-.67-1.92-1.28-2.91-1.83-1.15-.65-2.29-1.32-3.44-2.02-1.15-.7-2.09-1.58-2.84-2.65-.75-1.07-1.12-2.48-1.12-4.22,0-2.09.52-3.76,1.57-5,1.05-1.24,2.4-2.14,4.07-2.69,1.67-.55,3.4-.82,5.19-.82,1.09,0,2.1.07,3.02.22.92.15,1.98.45,3.17.9.45.15.67.42.67.82,0,1-.03,2.03-.07,3.1-.05,1.07-.08,2.25-.08,3.55,0,.15-.15.22-.45.22s-.45-.07-.45-.22c0-.95-.39-1.97-1.16-3.06-.77-1.09-1.78-2.05-3.02-2.88-1.25-.82-2.59-1.23-4.03-1.23-.7,0-1.38.18-2.05.52-.67.35-1.01,1.15-1.01,2.39Z" fill="#243b2f"/>
    <path d="M430.62,64.58c0,.6-.03,1.59-.07,2.99-.05,1.39-.07,3.39-.07,5.97v23.15c0,3.29-.41,6.04-1.23,8.25-.82,2.21-2.19,4.04-4.11,5.49-1.92,1.44-4.57,2.69-7.95,3.73-.1.05-.21-.06-.34-.34-.12-.27-.11-.44.04-.49,2.44-1.05,4.15-2.74,5.12-5.08.97-2.34,1.46-5.63,1.46-9.86v-24.72c0-1.64-.15-2.85-.45-3.62-.3-.77-.87-1.16-1.72-1.16-.35,0-.76.07-1.23.22-.47.15-.98.35-1.53.6-.2.05-.37-.07-.52-.37s-.15-.47,0-.52l11.28-5.23c.1-.05.17-.07.22-.07.25,0,.5.12.75.37.25.25.37.47.37.67ZM426.51,56.14c-1.39,0-2.5-.4-3.32-1.19-.82-.8-1.23-1.92-1.23-3.36,0-1.29.41-2.33,1.23-3.1.82-.77,1.93-1.16,3.32-1.16s2.46.39,3.21,1.16c.75.77,1.12,1.81,1.12,3.1,0,3.04-1.44,4.56-4.33,4.56Z" fill="#243b2f"/>
    <path d="M445.71,93.63c-2.19,0-3.82-.49-4.89-1.46-1.07-.97-1.61-2.28-1.61-3.92s.45-2.9,1.34-3.77c.9-.87,2.07-1.57,3.51-2.09,1.44-.52,2.94-1.06,4.48-1.61l7.47-2.76.3,1.12-4.26,1.94c-.4.15-.97.39-1.72.71-.75.32-1.42.8-2.02,1.42-.6.62-.9,1.51-.9,2.65,0,1.3.42,2.25,1.27,2.88.85.62,1.69.93,2.54.93.4,0,.78-.05,1.16-.15.37-.1.81-.32,1.31-.67l3.73-2.54.07,1.19-5.23,3.73c-1.1.85-2.14,1.46-3.14,1.83-1,.37-2.14.56-3.44.56ZM460.05,93.56c-.2.1-.45.15-.75.15-.9,0-1.79-.6-2.69-1.79-.9-1.2-1.34-2.91-1.34-5.15v-12.7c0-3.14-.25-5.44-.75-6.91-.5-1.47-1.39-2.2-2.69-2.2s-2.18.39-2.8,1.16c-.62.77-1.05,1.63-1.27,2.58-.22.95-.36,1.74-.41,2.39-.15,1.54-.6,2.63-1.34,3.25-.75.62-1.74.93-2.99.93s-2.22-.27-2.76-.82c-.55-.55-.82-1.22-.82-2.02,0-1.2.53-2.33,1.61-3.4,1.07-1.07,2.43-2.02,4.07-2.84s3.35-1.47,5.12-1.94c1.77-.47,3.32-.71,4.67-.71,2.04,0,3.78.65,5.23,1.94,1.44,1.3,2.17,3.41,2.17,6.35v13.22c0,1.44.26,2.56.78,3.36.52.8,1.26,1.19,2.2,1.19.7,0,1.42-.17,2.17-.52.2-.1.36-.01.49.26.12.27.06.46-.19.56l-7.69,3.66Z" fill="#243b2f"/>
    <path d="M470.58,93.11c-.15,0-.22-.15-.22-.45s.07-.45.22-.45c1.54,0,2.59-.36,3.14-1.08.55-.72.82-2.08.82-4.07v-14.04c0-1.54-.17-2.68-.52-3.4-.35-.72-.95-1.08-1.79-1.08-.45,0-.97.09-1.57.26-.6.17-1.27.44-2.02.78-.2.1-.35,0-.45-.3-.1-.3-.1-.47,0-.52l10.38-5.08c.3-.1.47-.15.52-.15.55,0,1.09.6,1.64,1.79.55,1.19.82,2.91.82,5.15v16.58c0,1.3.2,2.33.6,3.1.4.77,1.08,1.31,2.05,1.61.97.3,2.3.45,4,.45.2,0,.3.15.3.45s-.1.45-.3.45c-1.34,0-2.88-.02-4.59-.07-1.72-.05-3.57-.07-5.56-.07-1.39,0-2.74.03-4.03.07-1.3.05-2.44.07-3.44.07ZM479.69,72.87l-.6-.97c1.94-2.24,3.58-3.96,4.93-5.15,1.34-1.19,2.49-2.03,3.44-2.5.95-.47,1.79-.71,2.54-.71,1.05,0,2.13.39,3.25,1.16,1.12.77,1.68,1.78,1.68,3.02,0,1.05-.31,1.9-.93,2.58-.62.67-1.48,1.01-2.58,1.01s-1.83-.27-2.35-.82c-.52-.55-1-1.08-1.42-1.61-.42-.52-1.03-.78-1.83-.78-.35,0-.74.11-1.16.34-.42.22-1.02.67-1.79,1.34-.77.67-1.83,1.71-3.17,3.1Z" fill="#243b2f"/>
    <path d="M509.19,94.08c-2.14,0-4.1-.57-5.86-1.72-1.77-1.14-3.19-2.8-4.26-4.97-1.07-2.17-1.61-4.79-1.61-7.88s.55-5.59,1.64-7.66c1.09-2.07,2.5-3.72,4.22-4.97,1.72-1.24,3.57-2.15,5.56-2.73,1.99-.57,3.88-.86,5.68-.86s3.46.22,5,.67c1.54.45,2.94,1,4.18,1.64l-1.72,6.05c-1.05-2.24-2.24-3.87-3.58-4.89-1.34-1.02-3.01-1.53-5-1.53-2.54,0-4.56.88-6.05,2.65-1.49,1.77-2.24,4.84-2.24,9.22,0,2.84.35,5.25,1.05,7.24.7,1.99,1.67,3.51,2.91,4.56,1.24,1.05,2.64,1.57,4.18,1.57,1.99,0,3.73-.55,5.23-1.64,1.49-1.09,2.94-2.41,4.33-3.96l.75.67c-1.05,1.2-2.28,2.45-3.7,3.77-1.42,1.32-3.01,2.44-4.78,3.36-1.77.92-3.75,1.38-5.94,1.38ZM527.41,39.93v44.51c0,1.69.16,2.89.49,3.58.32.7.86,1.05,1.61,1.05.35,0,.78-.07,1.31-.22s1.11-.35,1.75-.6c.15-.1.3-.01.45.26.15.27.17.46.07.56l-10.31,5c-.15.05-.27.07-.37.07-.5,0-.96-.62-1.38-1.87-.42-1.24-.64-3.01-.64-5.3v-37.87c0-1.69-.15-2.92-.45-3.7-.3-.77-.87-1.16-1.72-1.16-.35,0-.76.07-1.23.22-.47.15-.98.35-1.53.6-.2.05-.37-.07-.52-.37s-.17-.47-.07-.52l10.98-5.15c.1-.05.2-.07.3-.07.25,0,.52.11.82.34.3.22.45.44.45.64Z" fill="#243b2f"/>
    <path d="M536.07,93.11c-.15,0-.22-.15-.22-.45s.07-.45.22-.45c1.54,0,2.59-.36,3.14-1.08.55-.72.82-2.08.82-4.07v-13.37c0-1.64-.16-2.85-.49-3.62-.32-.77-.91-1.16-1.75-1.16-.35,0-.76.07-1.23.22-.47.15-.98.35-1.53.6-.2.05-.36-.07-.49-.37-.12-.3-.11-.47.04-.52l11.28-5.23c.1-.05.17-.07.22-.07.25,0,.5.12.75.37.25.25.37.47.37.67,0,.6-.03,1.59-.07,2.99-.05,1.39-.07,3.39-.07,5.97v13.52c0,1.99.29,3.35.86,4.07.57.72,1.63,1.08,3.17,1.08.15,0,.22.15.22.45s-.07.45-.22.45c-1,0-2.14-.02-3.44-.07-1.3-.05-2.66-.07-4.11-.07s-2.74.03-4.03.07c-1.3.05-2.44.07-3.44.07ZM543.24,56.14c-1.39,0-2.5-.4-3.32-1.19-.82-.8-1.23-1.92-1.23-3.36,0-1.29.41-2.33,1.23-3.1.82-.77,1.93-1.16,3.32-1.16s2.46.39,3.21,1.16c.75.77,1.12,1.81,1.12,3.1,0,3.04-1.44,4.56-4.33,4.56Z" fill="#243b2f"/>
    <path d="M555.71,93.11c-.15,0-.22-.15-.22-.45s.07-.45.22-.45c1.54,0,2.59-.36,3.14-1.08.55-.72.82-2.08.82-4.07v-14.04c0-1.54-.17-2.68-.52-3.4-.35-.72-.95-1.08-1.79-1.08-.45,0-.97.09-1.57.26-.6.17-1.27.44-2.02.78-.2.1-.35,0-.45-.3-.1-.3-.1-.47,0-.52l10.38-5.08c.3-.1.47-.15.52-.15.55,0,1.09.6,1.64,1.79.55,1.19.82,2.91.82,5.15v16.58c0,1.99.29,3.35.86,4.07.57.72,1.63,1.08,3.17,1.08.15,0,.22.15.22.45s-.07.45-.22.45c-1,0-2.14-.02-3.44-.07-1.3-.05-2.66-.07-4.11-.07s-2.74.03-4.03.07c-1.3.05-2.44.07-3.44.07ZM575.8,93.11c-.15,0-.22-.15-.22-.45s.07-.45.22-.45c1.54,0,2.59-.36,3.14-1.08.55-.72.82-2.08.82-4.07v-10.75c0-2.69-.49-4.68-1.46-5.97-.97-1.29-2.5-1.94-4.59-1.94-1.49,0-3.02.37-4.59,1.12-1.57.75-2.83,1.77-3.77,3.06l-.37-.9c1.74-2.49,3.71-4.49,5.9-6.01,2.19-1.52,4.58-2.28,7.17-2.28,2.79,0,4.94.87,6.46,2.61,1.52,1.74,2.28,3.98,2.28,6.72v14.34c0,1.99.29,3.35.86,4.07.57.72,1.63,1.08,3.17,1.08.15,0,.22.15.22.45s-.07.45-.22.45c-1,0-2.14-.02-3.44-.07-1.3-.05-2.66-.07-4.11-.07s-2.74.03-4.03.07c-1.3.05-2.44.07-3.44.07Z" fill="#243b2f"/>
    <path d="M600.9,67.86c0,1.05.29,1.98.86,2.8.57.82,1.31,1.57,2.2,2.24.9.67,1.87,1.33,2.91,1.98,1.24.7,2.46,1.43,3.66,2.2,1.19.77,2.19,1.71,2.99,2.8.8,1.1,1.19,2.51,1.19,4.26,0,1.59-.41,3.15-1.23,4.67-.82,1.52-2.05,2.75-3.7,3.7-1.64.95-3.71,1.42-6.2,1.42-1.25,0-2.49-.14-3.73-.41-1.25-.27-2.59-.81-4.03-1.61-.1-.1-.2-.22-.3-.37-.1-.15-.15-.32-.15-.52l-.15-7.39c0-.15.14-.24.41-.26.27-.02.44.01.49.11.55,1.59,1.32,3.07,2.32,4.44,1,1.37,2.13,2.46,3.4,3.29,1.27.82,2.55,1.23,3.85,1.23,1,0,1.82-.31,2.46-.93.65-.62.97-1.58.97-2.88,0-1.39-.31-2.55-.93-3.47-.62-.92-1.41-1.72-2.35-2.39-.95-.67-1.92-1.28-2.91-1.83-1.15-.65-2.29-1.32-3.44-2.02-1.15-.7-2.09-1.58-2.84-2.65-.75-1.07-1.12-2.48-1.12-4.22,0-2.09.52-3.76,1.57-5,1.05-1.24,2.4-2.14,4.07-2.69,1.67-.55,3.4-.82,5.19-.82,1.09,0,2.1.07,3.02.22.92.15,1.98.45,3.17.9.45.15.67.42.67.82,0,1-.03,2.03-.07,3.1-.05,1.07-.08,2.25-.08,3.55,0,.15-.15.22-.45.22s-.45-.07-.45-.22c0-.95-.39-1.97-1.16-3.06-.77-1.09-1.78-2.05-3.02-2.88-1.25-.82-2.59-1.23-4.03-1.23-.7,0-1.38.18-2.05.52-.67.35-1.01,1.15-1.01,2.39Z" fill="#243b2f"/>
    <path d="M648.84,94.08c-2.14,0-4.1-.57-5.86-1.72-1.77-1.14-3.19-2.8-4.26-4.97-1.07-2.17-1.61-4.79-1.61-7.88s.55-5.59,1.64-7.66c1.09-2.07,2.5-3.72,4.22-4.97,1.72-1.24,3.57-2.15,5.56-2.73,1.99-.57,3.88-.86,5.68-.86s3.46.22,5,.67c1.54.45,2.94,1,4.18,1.64l-1.72,6.05c-1.05-2.24-2.24-3.87-3.58-4.89-1.34-1.02-3.01-1.53-5-1.53-2.54,0-4.56.88-6.05,2.65-1.49,1.77-2.24,4.84-2.24,9.22,0,2.84.35,5.25,1.05,7.24.7,1.99,1.67,3.51,2.91,4.56,1.24,1.05,2.64,1.57,4.18,1.57,1.99,0,3.73-.55,5.23-1.64,1.49-1.09,2.94-2.41,4.33-3.96l.75.67c-1.05,1.2-2.28,2.45-3.7,3.77-1.42,1.32-3.01,2.44-4.78,3.36-1.77.92-3.75,1.38-5.94,1.38ZM667.07,39.93v44.51c0,1.69.16,2.89.49,3.58.32.7.86,1.05,1.61,1.05.35,0,.78-.07,1.31-.22s1.11-.35,1.75-.6c.15-.1.3-.01.45.26.15.27.17.46.07.56l-10.31,5c-.15.05-.27.07-.37.07-.5,0-.96-.62-1.38-1.87-.42-1.24-.64-3.01-.64-5.3v-37.87c0-1.69-.15-2.92-.45-3.7-.3-.77-.87-1.16-1.72-1.16-.35,0-.76.07-1.23.22-.47.15-.98.35-1.53.6-.2.05-.37-.07-.52-.37s-.17-.47-.07-.52l10.98-5.15c.1-.05.2-.07.3-.07.25,0,.52.11.82.34.3.22.45.44.45.64Z" fill="#6a7f50"/>
    <path d="M687.16,94c-2.74,0-4.89-.87-6.46-2.61-1.57-1.74-2.35-3.98-2.35-6.72v-10.98c0-1.64-.19-2.86-.56-3.66-.37-.8-.96-1.19-1.75-1.19-.55,0-1.17.17-1.87.52-.2.05-.36-.07-.49-.37-.12-.3-.11-.47.04-.52l10.01-4.78c.15-.05.27-.07.37-.07.25,0,.51.11.78.34.27.22.41.44.41.63v16.51c0,2.69.51,4.71,1.53,6.05,1.02,1.34,2.58,2.02,4.67,2.02,1.44,0,2.89-.41,4.33-1.23,1.44-.82,2.59-1.85,3.44-3.1l.45.9c-1.69,2.44-3.58,4.43-5.68,5.98-2.09,1.54-4.38,2.32-6.87,2.32ZM704.78,64.58v19.87c0,1.69.16,2.89.49,3.58.32.7.86,1.05,1.61,1.05.35,0,.78-.07,1.31-.22.52-.15,1.11-.35,1.75-.6.2-.1.37-.01.52.26.15.27.15.46,0,.56l-10.31,5c-.1.05-.22.07-.37.07-.5,0-.95-.62-1.34-1.87-.4-1.24-.6-3.01-.6-5.3v-13.29c0-1.64-.19-2.86-.56-3.66-.37-.8-.96-1.19-1.75-1.19-.55,0-1.19.17-1.94.52-.15.05-.29-.07-.41-.37-.12-.3-.11-.47.04-.52l10.01-4.78c.1-.05.22-.07.37-.07.25,0,.51.11.78.34.27.22.41.44.41.63Z" fill="#6a7f50"/>
    <path d="M745.48,94c-3.44,0-6.27-.74-8.51-2.2-2.24-1.47-3.9-3.35-4.97-5.64-1.07-2.29-1.61-4.6-1.61-6.95,0-2.49.52-4.71,1.57-6.65,1.05-1.94,2.43-3.57,4.15-4.89,1.72-1.32,3.62-2.33,5.71-3.02,2.09-.7,4.16-1.05,6.2-1.05,1.44,0,2.89.21,4.33.63,1.44.42,2.64,1.05,3.58,1.87.95.82,1.42,1.86,1.42,3.1,0,.85-.35,1.63-1.05,2.35-.7.72-1.72,1.08-3.06,1.08-1.25,0-2.22-.32-2.91-.97-.7-.65-1.25-1.59-1.64-2.84-.35-1.19-.73-2.1-1.16-2.73-.42-.62-1.23-.93-2.43-.93-2.14,0-3.85,1.07-5.12,3.21-1.27,2.14-1.9,4.93-1.9,8.36,0,2.49.37,4.77,1.12,6.83.75,2.07,1.97,3.71,3.66,4.93,1.69,1.22,3.96,1.83,6.8,1.83,1.49,0,2.75-.17,3.77-.52,1.02-.35,2.15-.82,3.4-1.42.1-.1.24-.05.41.15.17.2.21.35.11.45-1.74,1.59-3.54,2.83-5.38,3.7-1.84.87-4.01,1.31-6.5,1.31Z" fill="#6a7f50"/>
    <path d="M761.32,93.11c-.1,0-.15-.15-.15-.45s.05-.45.15-.45c1.54,0,2.6-.36,3.17-1.08.57-.72.86-2.08.86-4.07v-37.94c0-1.69-.15-2.92-.45-3.7-.3-.77-.87-1.16-1.72-1.16-.7,0-1.64.27-2.84.82-.15.05-.3-.07-.45-.37s-.17-.47-.07-.52l10.9-5.15c.1-.05.17-.07.22-.07h.15c.25,0,.51.11.78.34.27.22.41.44.41.64v47.13c0,1.99.29,3.35.86,4.07.57.72,1.63,1.08,3.17,1.08.2,0,.3.15.3.45s-.1.45-.3.45c-1,0-2.13-.02-3.4-.07-1.27-.05-2.63-.07-4.07-.07s-2.81.03-4.11.07c-1.3.05-2.44.07-3.44.07ZM781.41,93.11c-.1,0-.15-.15-.15-.45s.05-.45.15-.45c1.54,0,2.6-.36,3.17-1.08.57-.72.86-2.08.86-4.07v-10.75c0-5.28-2.04-7.92-6.12-7.92-1.49,0-3.02.37-4.59,1.12-1.57.75-2.8,1.77-3.7,3.06l-.45-.9c1.74-2.49,3.71-4.49,5.9-6.01,2.19-1.52,4.58-2.28,7.17-2.28,2.79,0,4.94.87,6.46,2.61,1.52,1.74,2.28,3.98,2.28,6.72v14.34c0,1.99.29,3.35.86,4.07.57.72,1.63,1.08,3.17,1.08.2,0,.3.15.3.45s-.1.45-.3.45c-1,0-2.13-.02-3.4-.07-1.27-.05-2.63-.07-4.07-.07s-2.81.03-4.11.07c-1.3.05-2.44.07-3.44.07Z" fill="#6a7f50"/>
    <path d="M815.31,94c-3.24,0-5.99-.67-8.25-2.02-2.27-1.34-3.98-3.12-5.15-5.34-1.17-2.21-1.75-4.59-1.75-7.13,0-2.94.72-5.6,2.17-7.99,1.44-2.39,3.44-4.31,5.97-5.75,2.54-1.44,5.45-2.17,8.74-2.17,2.94,0,5.29.67,7.06,2.02,1.77,1.34,2.65,3.54,2.65,6.57,0,.65-.05,1.19-.15,1.64-.1.45-.32.67-.67.67h-7.17c.1-2.84-.17-5.12-.82-6.83-.65-1.72-1.89-2.58-3.73-2.58-1.99,0-3.57,1.02-4.74,3.06-1.17,2.04-1.76,4.76-1.76,8.14,0,2.89.45,5.38,1.34,7.47.9,2.09,2.21,3.71,3.96,4.85,1.74,1.15,3.88,1.72,6.42,1.72,1.49,0,2.75-.19,3.77-.56,1.02-.37,2.15-.88,3.4-1.53.1-.1.24-.05.41.15.17.2.21.37.11.52-1.84,1.84-3.72,3.15-5.64,3.92-1.92.77-3.97,1.16-6.16,1.16ZM805.08,74.59l-.07-1.42,16.36-.3v1.64l-16.28.07ZM821.21,57.56c.1.1.02.19-.22.26-.25.07-.42.04-.52-.11l-5.08-8.07-5.15,8.07c-.05.15-.21.19-.49.11-.27-.07-.39-.16-.34-.26l5.08-18.6c.05-.25.32-.37.82-.37s.8.12.9.37l5,18.6Z" fill="#6a7f50"/>
    <path d="M831.89,93.11c-.15,0-.22-.15-.22-.45s.07-.45.22-.45c1.54,0,2.59-.36,3.14-1.08.55-.72.82-2.08.82-4.07v-14.04c0-1.54-.17-2.68-.52-3.4-.35-.72-.95-1.08-1.79-1.08-.45,0-.97.09-1.57.26-.6.17-1.27.44-2.02.78-.2.1-.35,0-.45-.3-.1-.3-.1-.47,0-.52l10.38-5.08c.3-.1.47-.15.52-.15.55,0,1.09.6,1.64,1.79.55,1.19.82,2.91.82,5.15v16.58c0,1.99.29,3.35.86,4.07.57.72,1.63,1.08,3.17,1.08.15,0,.22.15.22.45s-.07.45-.22.45c-1,0-2.14-.02-3.44-.07-1.3-.05-2.66-.07-4.11-.07s-2.74.03-4.03.07c-1.3.05-2.44.07-3.44.07ZM851.98,93.11c-.15,0-.22-.15-.22-.45s.07-.45.22-.45c1.54,0,2.59-.36,3.14-1.08.55-.72.82-2.08.82-4.07v-10.75c0-2.69-.49-4.68-1.46-5.97-.97-1.29-2.5-1.94-4.59-1.94-1.49,0-3.02.37-4.59,1.12-1.57.75-2.83,1.77-3.77,3.06l-.37-.9c1.74-2.49,3.71-4.49,5.9-6.01,2.19-1.52,4.58-2.28,7.17-2.28,2.79,0,4.94.87,6.46,2.61,1.52,1.74,2.28,3.98,2.28,6.72v14.34c0,1.99.29,3.35.86,4.07.57.72,1.63,1.08,3.17,1.08.15,0,.22.15.22.45s-.07.45-.22.45c-1,0-2.14-.02-3.44-.07-1.3-.05-2.66-.07-4.11-.07s-2.74.03-4.03.07c-1.3.05-2.44.07-3.44.07Z" fill="#6a7f50"/>
    <path d="M885.81,94c-3.24,0-5.99-.67-8.25-2.02-2.27-1.34-3.98-3.12-5.15-5.34-1.17-2.21-1.75-4.59-1.75-7.13,0-2.94.72-5.6,2.17-7.99,1.44-2.39,3.44-4.31,5.97-5.75,2.54-1.44,5.45-2.17,8.74-2.17,2.94,0,5.29.67,7.06,2.02,1.77,1.34,2.65,3.54,2.65,6.57,0,.65-.05,1.19-.15,1.64-.1.45-.32.67-.67.67h-7.17c.1-2.84-.17-5.12-.82-6.83-.65-1.72-1.89-2.58-3.73-2.58-1.99,0-3.57,1.02-4.74,3.06-1.17,2.04-1.76,4.76-1.76,8.14,0,2.89.45,5.38,1.34,7.47.9,2.09,2.21,3.71,3.96,4.85,1.74,1.15,3.88,1.72,6.42,1.72,1.49,0,2.75-.19,3.77-.56,1.02-.37,2.15-.88,3.4-1.53.1-.1.24-.05.41.15.17.2.21.37.11.52-1.84,1.84-3.72,3.15-5.64,3.92-1.92.77-3.97,1.16-6.16,1.16ZM875.58,74.59l-.07-1.42,16.36-.3v1.64l-16.28.07Z" fill="#6a7f50"/>
  </g>
  <g>
    <path d="M443.44,183.45c.06,0,.08.06.08.17s-.03.17-.08.17c-.46,0-.82.06-1.06.17-.24.11-.4.31-.47.59-.07.28-.11.69-.11,1.23v15.22c0,2.08-.52,3.71-1.55,4.88-1.03,1.17-2.47,1.76-4.31,1.76-.69,0-1.26-.14-1.71-.43-.46-.29-.68-.7-.68-1.24,0-.33.11-.66.33-.96.22-.31.59-.46,1.11-.46.45,0,.79.13,1.03.38.24.25.43.54.57.88.14.33.27.63.39.88.12.25.29.38.52.38.39,0,.68-.31.86-.93.19-.62.28-1.68.28-3.16v-17.23c0-.54-.06-.94-.17-1.21-.11-.27-.33-.46-.67-.56-.33-.1-.84-.15-1.51-.15-.04,0-.06-.06-.06-.17s.02-.17.06-.17c.58,0,1.19.01,1.84.04s1.33.04,2.03.04c.65,0,1.25-.01,1.8-.04.55-.03,1.04-.04,1.46-.04Z" fill="#243b2f"/>
    <path d="M465.82,200.54c.09,0,.14.06.14.17s-.05.17-.14.17c-.56,0-1.14-.02-1.74-.06-.6-.04-1.18-.06-1.74-.06-.63,0-1.18.02-1.64.06-.46.04-.99.06-1.56.06-.07,0-.11-.06-.11-.17s.04-.17.11-.17c.76,0,1.2-.15,1.32-.46.12-.31-.05-.91-.52-1.83l-5.66-11.18,1.37-2.4-5.55,12.24c-.5,1.11-.51,2-.03,2.65.48.65,1.24.98,2.29.98.09,0,.14.06.14.17s-.05.17-.14.17c-.56,0-1.07-.02-1.53-.06-.46-.04-1.05-.06-1.76-.06s-1.31.02-1.74.06c-.44.04-.97.06-1.6.06-.07,0-.11-.06-.11-.17s.04-.17.11-.17c.5,0,.93-.11,1.3-.32.36-.21.72-.6,1.09-1.17.36-.57.78-1.37,1.24-2.41l6.05-13.29c.02-.06.1-.09.25-.1.15,0,.23.02.25.1l6.97,13.71c.45.87.83,1.57,1.16,2.08.32.51.63.87.92,1.09.29.21.58.32.88.32ZM450.6,194.49l.42-.78h8.03l.2.78h-8.64Z" fill="#243b2f"/>
    <path d="M475.82,183.37c1.71,0,3.02.31,3.94.93.92.62,1.38,1.49,1.38,2.61s-.31,2.07-.92,2.91-1.4,1.5-2.36,1.97c-.96.46-1.97.7-3.02.7h-.79c-.27,0-.52,0-.74-.03v6.16c0,.54.05.95.14,1.23.09.28.28.46.56.56.28.09.71.14,1.28.14.04,0,.06.06.06.17s-.02.17-.06.17c-.48,0-1.02,0-1.62-.03-.59-.02-1.25-.03-1.95-.03-.67,0-1.31,0-1.91.03-.6.02-1.15.03-1.63.03-.06,0-.08-.06-.08-.17s.03-.17.08-.17c.58,0,1-.05,1.28-.14.28-.09.47-.28.57-.56.1-.28.15-.69.15-1.23v-12.9c0-.54-.05-.94-.14-1.21-.09-.27-.28-.46-.56-.56-.28-.1-.71-.15-1.28-.15-.04,0-.06-.06-.06-.17s.02-.17.06-.17c.48,0,1.02.01,1.62.04s1.23.04,1.9.04c.61,0,1.29-.03,2.02-.08.73-.06,1.43-.08,2.08-.08ZM477.97,187.97c0-1.1-.11-1.93-.33-2.51-.22-.58-.53-.97-.92-1.18-.39-.21-.84-.32-1.34-.32-.74,0-1.27.14-1.59.42-.32.28-.47.74-.47,1.39v5.91c.26.04.54.07.84.08.3.02.56.03.78.03,1.1,0,1.88-.3,2.34-.91.46-.6.7-1.57.7-2.91ZM481.82,200.88c-.28,0-.73-.35-1.35-1.05-.62-.7-1.37-1.7-2.24-3.02-.87-1.32-1.86-2.9-2.95-4.74l2.56-.78c1.49,2.25,2.75,4.05,3.8,5.41,1.05,1.36,1.98,2.34,2.8,2.94.82.6,1.6.91,2.34.91.04,0,.06.06.06.17s-.02.17-.06.17h-4.96Z" fill="#243b2f"/>
    <path d="M496.84,200.99c-.59,0-1.34-.03-2.23-.08s-1.71-.08-2.45-.08c-.67,0-1.31,0-1.92.03-.61.02-1.16.03-1.64.03-.04,0-.06-.06-.06-.17s.02-.17.06-.17c.58,0,1.01-.05,1.3-.14.29-.09.48-.28.59-.56.1-.28.15-.69.15-1.23v-12.9c0-.54-.05-.94-.14-1.21-.09-.27-.28-.46-.57-.56-.29-.1-.71-.15-1.27-.15-.06,0-.08-.06-.08-.17s.03-.17.08-.17c.48,0,1.02.01,1.62.04.59.03,1.24.04,1.92.04s1.4-.02,2.2-.07c.8-.05,1.49-.07,2.06-.07,1.93,0,3.61.37,5.05,1.11,1.43.74,2.55,1.76,3.34,3.04.8,1.28,1.2,2.72,1.2,4.32,0,1.39-.24,2.65-.72,3.78-.48,1.12-1.15,2.08-2.01,2.87-.85.79-1.84,1.4-2.94,1.83-1.11.43-2.28.64-3.53.64ZM496.56,200.35c1.17,0,2.21-.3,3.12-.91.91-.6,1.63-1.49,2.15-2.66.52-1.17.78-2.6.78-4.29,0-1.58-.24-3.01-.72-4.29-.48-1.28-1.16-2.3-2.03-3.05-.87-.75-1.91-1.13-3.12-1.13-1.08,0-1.85.1-2.31.31-.46.2-.7.69-.7,1.45v12.54c0,.69.18,1.2.54,1.53.36.33,1.13.5,2.3.5Z" fill="#243b2f"/>
    <path d="M514.98,198.62c0,.54.05.95.14,1.23.09.28.28.46.56.56.28.09.71.14,1.28.14.06,0,.08.06.08.17s-.03.17-.08.17c-.48,0-1.02,0-1.62-.03-.59-.02-1.25-.03-1.95-.03-.67,0-1.31,0-1.92.03-.61.02-1.16.03-1.64.03-.04,0-.06-.06-.06-.17s.02-.17.06-.17c.58,0,1.01-.05,1.3-.14.29-.09.48-.28.59-.56.1-.28.15-.69.15-1.23v-12.9c0-.54-.05-.94-.15-1.21-.1-.27-.3-.46-.59-.56-.29-.1-.72-.15-1.3-.15-.04,0-.06-.06-.06-.17s.02-.17.06-.17c.48,0,1.03.01,1.64.04s1.25.04,1.92.04c.71,0,1.36-.01,1.97-.04.6-.03,1.14-.04,1.6-.04.06,0,.08.06.08.17s-.03.17-.08.17c-.56,0-.98.06-1.27.17-.29.11-.48.31-.57.59-.09.28-.14.69-.14,1.23v12.85Z" fill="#243b2f"/>
    <path d="M537.2,201.29c0,.06-.04.09-.12.1-.08,0-.14,0-.18-.01l-13.74-15.64c-.67-.76-1.24-1.28-1.7-1.55-.46-.27-.93-.4-1.39-.4-.04,0-.06-.06-.06-.17s.02-.17.06-.17c.37,0,.75,0,1.14.03.39.02.75.03,1.09.03.67,0,1.27,0,1.81-.03.54-.02.96-.03,1.25-.03.24,0,.42.11.54.32s.4.59.85,1.13l10.23,11.79.22,4.6ZM522.98,197.34v-13.24l.84.06v13.18c0,.99.2,1.77.61,2.34.41.58.98.86,1.7.86.04,0,.06.06.06.17s-.02.17-.06.17c-.41,0-.83,0-1.27-.03-.44-.02-.92-.03-1.44-.03-.56,0-1.1,0-1.63.03-.53.02-1.02.03-1.46.03-.06,0-.08-.06-.08-.17s.03-.17.08-.17c.82,0,1.46-.29,1.94-.86.47-.58.71-1.36.71-2.34ZM537.2,187.02v14.27l-.81-.84v-13.43c0-.98-.2-1.77-.61-2.36-.41-.59-.98-.88-1.7-.88-.04,0-.06-.06-.06-.17s.02-.17.06-.17c.41,0,.83.01,1.27.04.44.03.91.04,1.43.04s.99-.01,1.48-.04c.48-.03.93-.04,1.34-.04.04,0,.06.06.06.17s-.02.17-.06.17c-.74,0-1.33.29-1.76.88-.43.59-.64,1.37-.64,2.36Z" fill="#243b2f"/>
    <path d="M547.51,198.62c0,.54.05.95.14,1.23.09.28.28.46.56.56.28.09.71.14,1.28.14.06,0,.08.06.08.17s-.03.17-.08.17c-.48,0-1.02,0-1.62-.03-.59-.02-1.25-.03-1.95-.03-.67,0-1.31,0-1.92.03-.61.02-1.16.03-1.64.03-.04,0-.06-.06-.06-.17s.02-.17.06-.17c.58,0,1.01-.05,1.3-.14.29-.09.48-.28.59-.56.1-.28.15-.69.15-1.23v-12.9c0-.54-.05-.94-.15-1.21-.1-.27-.3-.46-.59-.56-.29-.1-.72-.15-1.3-.15-.04,0-.06-.06-.06-.17s.02-.17.06-.17c.48,0,1.03.01,1.64.04s1.25.04,1.92.04c.71,0,1.36-.01,1.97-.04.6-.03,1.14-.04,1.6-.04.06,0,.08.06.08.17s-.03.17-.08.17c-.56,0-.98.06-1.27.17-.29.11-.48.31-.57.59-.09.28-.14.69-.14,1.23v12.85Z" fill="#243b2f"/>
    <path d="M565.43,200.88h-12.32c-.06,0-.08-.06-.08-.17s.03-.17.08-.17c.58,0,1-.05,1.28-.14.28-.09.46-.28.56-.56.09-.28.14-.69.14-1.23v-12.9c0-.54-.05-.94-.14-1.21-.09-.27-.28-.46-.56-.56-.28-.1-.71-.15-1.28-.15-.06,0-.08-.06-.08-.17s.03-.17.08-.17h11.82c.19,0,.28.08.28.25l.06,3.71s-.05.07-.14.08c-.09.02-.16,0-.2-.06-.3-1.1-.8-1.9-1.51-2.41-.71-.51-1.64-.77-2.79-.77h-.84c-.37,0-.68.05-.92.15-.24.1-.42.26-.53.49-.11.22-.17.5-.17.84v12.77c0,.35.05.65.14.89.09.24.23.42.42.53.19.11.43.17.72.17h.92c1.45,0,2.61-.3,3.48-.89s1.51-1.51,1.92-2.76c.02-.06.08-.07.18-.04.1.03.15.06.15.1-.07.54-.14,1.18-.2,1.91-.06.73-.08,1.42-.08,2.05,0,.28-.14.42-.42.42ZM563.87,194.66c0-.76-.29-1.36-.86-1.8-.58-.44-1.42-.66-2.54-.66h-3.76v-.78h3.79c1.1,0,1.93-.19,2.49-.57.57-.38.85-.9.85-1.55,0-.06.05-.08.15-.08s.15.03.15.08c0,.61,0,1.09-.01,1.44,0,.34-.01.7-.01,1.07,0,.46.01.92.04,1.37s.04.94.04,1.48c0,.04-.06.06-.17.06s-.17-.02-.17-.06Z" fill="#243b2f"/>
    <path d="M577.39,183.37c1.71,0,3.02.31,3.94.93.92.62,1.38,1.49,1.38,2.61s-.31,2.07-.92,2.91c-.61.85-1.4,1.5-2.36,1.97-.96.46-1.97.7-3.02.7h-.79c-.27,0-.52,0-.74-.03v6.16c0,.54.05.95.14,1.23.09.28.28.46.56.56.28.09.71.14,1.28.14.04,0,.06.06.06.17s-.02.17-.06.17c-.48,0-1.02,0-1.62-.03-.59-.02-1.25-.03-1.95-.03-.67,0-1.31,0-1.91.03-.6.02-1.15.03-1.63.03-.06,0-.08-.06-.08-.17s.03-.17.08-.17c.58,0,1-.05,1.28-.14.28-.09.47-.28.57-.56.1-.28.15-.69.15-1.23v-12.9c0-.54-.05-.94-.14-1.21-.09-.27-.28-.46-.56-.56-.28-.1-.71-.15-1.28-.15-.04,0-.06-.06-.06-.17s.02-.17.06-.17c.48,0,1.02.01,1.62.04.59.03,1.23.04,1.9.04.61,0,1.29-.03,2.02-.08.73-.06,1.43-.08,2.08-.08ZM579.54,187.97c0-1.1-.11-1.93-.33-2.51-.22-.58-.53-.97-.92-1.18-.39-.21-.84-.32-1.34-.32-.74,0-1.27.14-1.59.42-.32.28-.47.74-.47,1.39v5.91c.26.04.54.07.84.08.3.02.56.03.78.03,1.1,0,1.88-.3,2.34-.91.46-.6.7-1.57.7-2.91ZM583.38,200.88c-.28,0-.73-.35-1.35-1.05s-1.37-1.7-2.24-3.02c-.87-1.32-1.86-2.9-2.95-4.74l2.56-.78c1.49,2.25,2.75,4.05,3.8,5.41,1.05,1.36,1.98,2.34,2.8,2.94.82.6,1.6.91,2.34.91.04,0,.06.06.06.17s-.02.17-.06.17h-4.96Z" fill="#243b2f"/>
    <path d="M603.12,198.51c0,.56.06.98.18,1.27.12.29.38.49.77.6.39.11.97.17,1.73.17.06,0,.08.06.08.17s-.03.17-.08.17c-.59,0-1.24,0-1.94-.03-.7-.02-1.45-.03-2.27-.03-.67,0-1.31,0-1.91.03-.6.02-1.15.03-1.63.03-.06,0-.08-.06-.08-.17s.03-.17.08-.17c.58,0,1-.05,1.28-.14.28-.09.46-.28.56-.56.09-.28.14-.69.14-1.23v-12.9c0-.54-.05-.94-.14-1.21-.09-.27-.28-.46-.56-.56-.28-.1-.71-.15-1.28-.15-.06,0-.08-.06-.08-.17s.03-.17.08-.17c.48,0,1.02.01,1.62.04.59.03,1.23.04,1.9.04.45,0,1.03-.03,1.76-.08.72-.06,1.4-.08,2.03-.08,1.17,0,2.21.15,3.11.46.9.31,1.62.79,2.16,1.46.54.67.83,1.55.86,2.65.04.95-.12,1.77-.46,2.48-.34.71-.82,1.29-1.42,1.76-.6.46-1.27.81-2.01,1.05-.73.23-1.46.35-2.19.35-.19,0-.4,0-.63-.03-.23-.02-.46-.06-.68-.11-.06-.02-.07-.09-.06-.21.02-.12.06-.17.14-.15.15.04.32.07.5.08.19.02.33.03.45.03.54,0,1.03-.17,1.48-.5.45-.33.81-.85,1.09-1.53.28-.69.42-1.54.42-2.56s-.14-1.82-.42-2.49c-.28-.68-.69-1.2-1.23-1.56-.54-.36-1.21-.54-2.01-.54-.33,0-.6.05-.79.14-.2.09-.33.27-.42.53-.08.26-.13.63-.13,1.11v12.74Z" fill="#243b2f"/>
    <path d="M632.13,200.54c.09,0,.14.06.14.17s-.05.17-.14.17c-.56,0-1.14-.02-1.74-.06-.6-.04-1.18-.06-1.74-.06-.63,0-1.18.02-1.64.06-.46.04-.99.06-1.56.06-.07,0-.11-.06-.11-.17s.04-.17.11-.17c.76,0,1.2-.15,1.32-.46.12-.31-.05-.91-.52-1.83l-5.66-11.18,1.37-2.4-5.55,12.24c-.5,1.11-.51,2-.03,2.65.48.65,1.24.98,2.29.98.09,0,.14.06.14.17s-.05.17-.14.17c-.56,0-1.07-.02-1.53-.06-.46-.04-1.05-.06-1.76-.06s-1.31.02-1.74.06c-.44.04-.97.06-1.6.06-.07,0-.11-.06-.11-.17s.04-.17.11-.17c.5,0,.93-.11,1.3-.32.36-.21.72-.6,1.09-1.17.36-.57.78-1.37,1.24-2.41l6.05-13.29c.02-.06.1-.09.25-.1.15,0,.23.02.25.1l6.97,13.71c.45.87.83,1.57,1.16,2.08.32.51.63.87.92,1.09.29.21.58.32.88.32ZM616.91,194.49l.42-.78h8.03l.2.78h-8.64Z" fill="#243b2f"/>
    <path d="M639.13,193.24l-4.24-6.58c-.74-1.15-1.33-1.92-1.77-2.3-.44-.38-.8-.57-1.1-.57-.06,0-.08-.06-.08-.17s.03-.17.08-.17c.28,0,.57.01.86.04s.59.04.86.04c.52,0,1.08,0,1.67-.01.59,0,1.16-.02,1.69-.04.53-.02.96-.03,1.3-.03.04,0,.06.06.06.17s-.02.17-.06.17c-.54,0-.86.19-.96.56-.1.37.01.81.35,1.31l4.01,6.33-2.68,1.25ZM638.96,192.23l3.09-.25v6.63c0,.54.05.95.14,1.23.09.28.28.46.56.56.28.09.71.14,1.28.14.06,0,.08.06.08.17s-.03.17-.08.17c-.48,0-1.02,0-1.6-.03-.59-.02-1.23-.03-1.94-.03-.67,0-1.31,0-1.92.03-.61.02-1.16.03-1.64.03-.04,0-.06-.06-.06-.17s.02-.17.06-.17c.58,0,1.01-.05,1.3-.14.29-.09.48-.28.59-.56.1-.28.15-.69.15-1.23v-6.38ZM640.74,193.13l3.43-5.83c.61-1.04.85-1.89.71-2.54-.14-.65-.65-.98-1.52-.98-.06,0-.08-.06-.08-.17s.03-.17.08-.17c.59,0,1.15.01,1.67.04.52.03,1.22.04,2.09.04.46,0,.84-.01,1.13-.04.29-.03.64-.04,1.05-.04.04,0,.06.06.06.17s-.02.17-.06.17c-.37,0-.82.16-1.34.49-.52.33-1.04.77-1.56,1.32-.52.56-1,1.21-1.45,1.95l-3.62,6.05-.59-.47Z" fill="#243b2f"/>
    <path d="M655.24,186.27c0,.71.18,1.32.54,1.85.36.53.84,1.01,1.42,1.44.59.43,1.2.85,1.85,1.28.71.45,1.38.92,2.02,1.41s1.17,1.06,1.59,1.7.63,1.41.63,2.3c0,.99-.26,1.85-.79,2.59-.53.74-1.25,1.32-2.15,1.74-.9.42-1.93.63-3.08.63-.56,0-1.14-.06-1.74-.17-.6-.11-1.15-.25-1.64-.42-.49-.17-.85-.34-1.07-.53-.07-.06-.14-.12-.2-.18-.06-.06-.08-.18-.08-.35l-.08-4.43c-.02-.09.02-.14.13-.15.1,0,.16.02.18.1.28.58.59,1.18.92,1.83.33.64.71,1.23,1.13,1.77.42.54.89.98,1.41,1.32.52.34,1.11.52,1.78.52.43,0,.84-.07,1.23-.22.39-.15.71-.42.96-.81.25-.39.38-.93.38-1.62,0-.87-.2-1.62-.59-2.24-.39-.62-.89-1.17-1.51-1.64s-1.25-.92-1.92-1.35c-.65-.43-1.27-.87-1.87-1.32-.59-.46-1.08-.98-1.45-1.56-.37-.59-.56-1.29-.56-2.1,0-1.04.29-1.89.88-2.55.59-.66,1.33-1.15,2.23-1.46.9-.32,1.82-.47,2.75-.47.67,0,1.34.06,2.01.18.67.12,1.2.26,1.59.43.19.07.3.16.35.25.05.09.07.2.07.31v4.1c0,.06-.04.1-.13.13-.08.03-.14.01-.18-.04-.11-.22-.27-.59-.47-1.1-.2-.51-.47-1.05-.81-1.6-.33-.56-.76-1.04-1.28-1.44-.52-.4-1.15-.6-1.9-.6-.46,0-.89.09-1.27.28-.38.19-.69.46-.92.82-.23.36-.35.83-.35,1.41Z" fill="#243b2f"/>
    <path d="M685.98,200.54c.09,0,.14.06.14.17s-.05.17-.14.17c-.56,0-1.14-.02-1.74-.06-.6-.04-1.18-.06-1.74-.06-.63,0-1.18.02-1.64.06-.46.04-.99.06-1.56.06-.07,0-.11-.06-.11-.17s.04-.17.11-.17c.76,0,1.2-.15,1.32-.46.12-.31-.05-.91-.52-1.83l-5.66-11.18,1.37-2.4-5.55,12.24c-.5,1.11-.51,2-.03,2.65.48.65,1.24.98,2.29.98.09,0,.14.06.14.17s-.05.17-.14.17c-.56,0-1.07-.02-1.53-.06-.46-.04-1.05-.06-1.76-.06s-1.31.02-1.74.06c-.44.04-.97.06-1.6.06-.07,0-.11-.06-.11-.17s.04-.17.11-.17c.5,0,.93-.11,1.3-.32.36-.21.72-.6,1.09-1.17.36-.57.78-1.37,1.24-2.41l6.05-13.29c.02-.06.1-.09.25-.1.15,0,.23.02.25.1l6.97,13.71c.45.87.83,1.57,1.16,2.08.32.51.63.87.92,1.09.29.21.58.32.88.32ZM670.76,194.49l.42-.78h8.03l.2.78h-8.64Z" fill="#243b2f"/>
    <path d="M698.61,201.21c-1.64,0-3.09-.23-4.38-.7-1.28-.46-2.37-1.11-3.26-1.92-.89-.82-1.57-1.77-2.03-2.84-.46-1.08-.7-2.23-.7-3.46,0-1.36.27-2.59.81-3.71.54-1.11,1.3-2.08,2.29-2.88.98-.81,2.14-1.44,3.46-1.88,1.32-.45,2.76-.67,4.32-.67.87,0,1.76.07,2.65.2.89.13,1.62.32,2.17.56.2.07.32.14.35.18.03.05.05.2.07.46l.36,3.87c0,.06-.05.09-.14.11-.09.02-.16,0-.2-.08-.13-.35-.36-.79-.68-1.32-.33-.53-.75-1.05-1.27-1.56-.52-.51-1.14-.94-1.87-1.3-.72-.35-1.56-.53-2.51-.53-1.19,0-2.27.32-3.25.96-.98.64-1.75,1.56-2.33,2.75-.58,1.19-.86,2.61-.86,4.26,0,1.34.19,2.56.57,3.65.38,1.1.92,2.05,1.62,2.86.7.81,1.51,1.43,2.44,1.87.93.44,1.95.66,3.07.66.71,0,1.27-.08,1.7-.25.43-.17.74-.49.93-.98.2-.48.29-1.2.29-2.15,0-.89-.05-1.55-.15-1.97-.1-.42-.35-.69-.74-.82-.39-.13-1.02-.2-1.9-.2-.11,0-.17-.07-.17-.22s.05-.22.14-.22c1.3.07,2.47.12,3.51.13,1.04,0,2.14-.01,3.29-.07.07,0,.12.07.13.2,0,.13-.03.2-.13.2-.32-.02-.55.04-.7.18s-.24.44-.28.91c-.04.46-.06,1.19-.06,2.17,0,.61.02,1.07.06,1.37.04.3.07.52.1.66.03.14.04.28.04.43,0,.11-.02.19-.06.22-.04.04-.12.07-.25.11-1.02.22-2.1.41-3.22.56-1.12.15-2.21.22-3.25.22Z" fill="#243b2f"/>
    <path d="M714.83,198.62c0,.54.05.95.14,1.23.09.28.28.46.56.56.28.09.71.14,1.28.14.06,0,.08.06.08.17s-.03.17-.08.17c-.48,0-1.02,0-1.62-.03-.59-.02-1.25-.03-1.95-.03-.67,0-1.31,0-1.92.03-.61.02-1.16.03-1.64.03-.04,0-.06-.06-.06-.17s.02-.17.06-.17c.58,0,1.01-.05,1.3-.14.29-.09.48-.28.59-.56.1-.28.15-.69.15-1.23v-12.9c0-.54-.05-.94-.15-1.21-.1-.27-.3-.46-.59-.56-.29-.1-.72-.15-1.3-.15-.04,0-.06-.06-.06-.17s.02-.17.06-.17c.48,0,1.03.01,1.64.04s1.25.04,1.92.04c.71,0,1.36-.01,1.97-.04.6-.03,1.14-.04,1.6-.04.06,0,.08.06.08.17s-.03.17-.08.17c-.56,0-.98.06-1.27.17-.29.11-.48.31-.57.59-.09.28-.14.69-.14,1.23v12.85Z" fill="#243b2f"/>
    <path d="M724.14,186.27c0,.71.18,1.32.54,1.85.36.53.84,1.01,1.42,1.44.59.43,1.2.85,1.85,1.28.71.45,1.38.92,2.02,1.41s1.17,1.06,1.59,1.7.63,1.41.63,2.3c0,.99-.26,1.85-.79,2.59-.53.74-1.25,1.32-2.15,1.74-.9.42-1.93.63-3.08.63-.56,0-1.14-.06-1.74-.17-.6-.11-1.15-.25-1.64-.42-.49-.17-.85-.34-1.07-.53-.07-.06-.14-.12-.2-.18-.06-.06-.08-.18-.08-.35l-.08-4.43c-.02-.09.02-.14.13-.15.1,0,.16.02.18.1.28.58.59,1.18.92,1.83.33.64.71,1.23,1.13,1.77.42.54.89.98,1.41,1.32.52.34,1.11.52,1.78.52.43,0,.84-.07,1.23-.22.39-.15.71-.42.96-.81.25-.39.38-.93.38-1.62,0-.87-.2-1.62-.59-2.24-.39-.62-.89-1.17-1.51-1.64s-1.25-.92-1.92-1.35c-.65-.43-1.27-.87-1.87-1.32-.59-.46-1.08-.98-1.45-1.56-.37-.59-.56-1.29-.56-2.1,0-1.04.29-1.89.88-2.55.59-.66,1.33-1.15,2.23-1.46.9-.32,1.82-.47,2.75-.47.67,0,1.34.06,2.01.18.67.12,1.2.26,1.59.43.19.07.3.16.35.25.05.09.07.2.07.31v4.1c0,.06-.04.1-.13.13-.08.03-.14.01-.18-.04-.11-.22-.27-.59-.47-1.1-.2-.51-.47-1.05-.81-1.6-.33-.56-.76-1.04-1.28-1.44-.52-.4-1.15-.6-1.9-.6-.46,0-.89.09-1.27.28-.38.19-.69.46-.92.82-.23.36-.35.83-.35,1.41Z" fill="#243b2f"/>
    <path d="M741.08,184.1c-1.13,0-2.1.38-2.88,1.13-.79.75-1.42,1.82-1.88,3.19-.02.06-.07.08-.17.07-.09,0-.14-.04-.14-.1.04-.26.07-.63.11-1.1.04-.47.08-.99.13-1.55.05-.56.08-1.1.11-1.62.03-.52.04-.95.04-1.28,0-.09.05-.14.15-.14s.15.05.15.14c0,.19.1.32.29.4s.42.14.67.17.46.04.63.04c1.6.06,3.47.08,5.6.08,1.3,0,2.34-.01,3.12-.04.78-.03,1.53-.04,2.26-.04.67,0,1.17-.04,1.52-.13.34-.08.56-.27.66-.57.02-.07.08-.11.18-.11s.15.04.15.11c-.04.3-.07.71-.1,1.24-.03.53-.06,1.09-.08,1.67s-.05,1.12-.07,1.62c-.02.49-.03.86-.03,1.1,0,.06-.05.08-.14.08s-.15-.03-.17-.08c-.28-1.47-.8-2.55-1.57-3.25-.77-.7-1.71-1.05-2.8-1.05-.37,0-.66.05-.85.15-.2.1-.33.27-.39.52-.07.24-.1.58-.1,1v12.85c0,.54.06.95.17,1.23.11.28.33.46.66.56.32.09.82.14,1.49.14.06,0,.08.06.08.17s-.03.17-.08.17c-.52,0-1.11,0-1.76-.03-.65-.02-1.37-.03-2.15-.03s-1.44,0-2.09.03c-.65.02-1.25.03-1.78.03-.06,0-.08-.06-.08-.17s.03-.17.08-.17c.65,0,1.14-.05,1.48-.14.33-.09.56-.28.68-.56.12-.28.18-.69.18-1.23v-12.9c0-.41-.03-.73-.1-.96-.07-.23-.19-.4-.38-.5-.19-.1-.46-.15-.81-.15Z" fill="#243b2f"/>
    <path d="M767.54,200.88h-12.32c-.06,0-.08-.06-.08-.17s.03-.17.08-.17c.58,0,1-.05,1.28-.14.28-.09.46-.28.56-.56.09-.28.14-.69.14-1.23v-12.9c0-.54-.05-.94-.14-1.21-.09-.27-.28-.46-.56-.56-.28-.1-.71-.15-1.28-.15-.06,0-.08-.06-.08-.17s.03-.17.08-.17h11.82c.19,0,.28.08.28.25l.06,3.71s-.05.07-.14.08c-.09.02-.16,0-.2-.06-.3-1.1-.8-1.9-1.51-2.41-.71-.51-1.64-.77-2.79-.77h-.84c-.37,0-.68.05-.92.15-.24.1-.42.26-.53.49-.11.22-.17.5-.17.84v12.77c0,.35.05.65.14.89.09.24.23.42.42.53.19.11.43.17.72.17h.92c1.45,0,2.61-.3,3.48-.89s1.51-1.51,1.92-2.76c.02-.06.08-.07.18-.04.1.03.15.06.15.1-.07.54-.14,1.18-.2,1.91-.06.73-.08,1.42-.08,2.05,0,.28-.14.42-.42.42ZM765.97,194.66c0-.76-.29-1.36-.86-1.8-.58-.44-1.42-.66-2.54-.66h-3.76v-.78h3.79c1.1,0,1.93-.19,2.49-.57.57-.38.85-.9.85-1.55,0-.06.05-.08.15-.08s.15.03.15.08c0,.61,0,1.09-.01,1.44,0,.34-.01.7-.01,1.07,0,.46.01.92.04,1.37s.04.94.04,1.48c0,.04-.06.06-.17.06s-.17-.02-.17-.06Z" fill="#243b2f"/>
  </g>
  <g>
    <path d="M75.88,77.65c.21.09.71,1.22.8,1.43s.77.02.61,0l.42-2.45c.09-.51,1.85.06,2.11.51.35.6.96,1.82,1.52,1.85l2.18.11-1.87-1.85c-.41-.4.86-1.78,1.36-1.87l-1.06-1.74,3.66-1.01-1.16-1.04-.44-4.09c-1.24,2.42-3.47,4.05-4.62,3.67-.4-.13-.87-1.32-.72-1.71.33-.91,1.95-1.75,3.21-2.36l-2.45-1.16c-.73-.86-.14-2.45,1.05-2.93.92-.37,2.04.55,3,1.61-.12-.68-.3-2.29.23-2.59s2.22.58,2.19,1.19l-.11,2.41c1.34-.58,1.82-.72,3.46-.7,0-.26-.78-1.34-1.49-2.05-1.05-1.03.14-3.13,1.47-3.13l1.73,1.87-.34-2.06c-.09-.56,2.11-1.12,2.3-.58l.86,2.47.72-1.42c.22-.43,1.9-.4,1.98.08l.3,2,1.09,1.13c.64.67-2.81,1.32-2.58,1.69s.84,1.33.77,1.23c.42-.65,1.24-1.9,1.55-1.58l1.42,1.48,1.13-1.69c.32-.48,1.6.78,2.07,1.63.03.19,1.44-.73,1.76-1.04l-2.54-.88-.37-3.19c-.05-.43.79-1.38,1.19-1.24l1.95.69-.57-2.15,4.09.64.36-1.52c.1-.44-2.81-.05-2.83-.94,0-.5.35-1.48.68-2.09l.32-1.1-1.54.93c-.25.15-.9-.54-1.07-.67l-.44,2.21c-.46.52-1.21.73-1.93.49l-1.34-1.73c-.26.4-.84,1.29-1.25,1.6-.48.36-1.86-.36-2.08-.92-1.02-2.51,2.37-2.57,2.08-4.39l-1.17.76c-.2.13-.85-.1-.84-.34l.04-1.16-2.85,1.22c-.67.27-1.73-1.67-1.25-2.31.45-.59,1.72-.9,2.75-.98l-1.55-1.55c-.29-.29.31-1.42.72-1.4l2.05.09c.09-.71,1.17-1.99,1.94-1.83.66.14,1.2,1.22,1.84,2.51l.56-2.52c-.6-.08-1.33-.23-1.27-.57l.37-1.94c-.58.06-1.33.21-1.62-.19-.35-.46-.64-1.62-.35-2.02s1.42-.65,2.45-.82l-.94-1.78c-.25-.47.95-1.66,1.46-1.57,1.86.34,2.1,2.68,2.23,2.37-.02.06.49-.36.49-.37s-.05-.58-.03-.73l.18-1.48c.04-.32.97.37,1.34.7l1.81-1.23c.76.31,1.62,1.85,1.35,2.9-.2.76-1.1,1.48-2.34,2.48.81-.04,2.66-.42,3.38-.9.42-.28-.06-2.32.44-2.27l2.22.21,3.69-.85-1.1-1.38c-.59-.75-2.26.9-4.29-.36-.5-.31-.36-2.17.27-2.19l3.83-.12-2.71-1.34c-.62-.31.35-2.45,1.02-2.25.7.21,1.54.53,1.95.81.62.43-.38,4.95,1.08,4.11.92-.53.77-2.49.67-3.55-.06-.63,1.08-1.85,1.71-1.86s1.7.65,1.94,1.24c.36.9-.49,2.1-1.2,2.58l-1.43.97,2.7-.1c.56-.02.92,1.79.71,1.99l-2.21.37c-.56.09-.84,1.31-.88,1.97.55,0,1.18-.12,1.31.16.16.34.23,1.28.19,1.69l-.16,1.41c-.07.62,3.2-.56,5.23,1,.33.05,1.16-.11,1.35.13l.9,1.13.54.68c.08.11.32.12.32-.02l-.05-.92-.07-1.55c-.02-.41,1.12-.47,1.49-.43.19-.79.74-1.93,1.38-2.04,3.14-.54,1.42,4.04,4.76,4.59.34-1.52-1.77-2.44-1.14-4.18.19-.53,1.44-1.12,2-1,.82.18,3.07,2.99,2.53,1.68-.83-1.98-2.02-2.37-1.66-2.68l1.27-1.07-1.23-.99c-.25-.2.42-.98.67-1.3.01-.05-.57-.51-.67-.36l-.69,1.04c-.15.23-.46.92-.73.92h-1.32c-.74-.02-2.14-.58-2.2-1.27-.08-.92.55-1.86,1.35-2.9l-2.43.42c-.41-.18-.94-1.54-.66-2.04.32-.58,1.73-.84,2.62-.9-.47-.49-1.3-1.33-1.56-1.85s.85-1.51,1.39-1.73c.61-.25,1.97.45,2.44.86.35-.88,1.22-2.05,1.86-1.98.82.09,1.31.88,1.94,2.35.24-.44.7-1.67,1.03-2.78l1.78-.82-3.35-.9c-.55-.15-1.54-1.35-1.38-1.89.19-.64,1.51-1.04,2.62-1.28l-1.46-1.15c-.35-.44.89-2.24,1.67-2.19.74.05,1.68.96,2.79,1.91l-.02-2.45c0-.55,1.55-.95,2.07-.78s1.15,1.27,1.14,1.82l-.02,1.33c-.03,1.71,1.11-2.15,2.61-2.33,1.13-.14,2.07,1.34,1.82,2.41l2.91-1.09.63-1.05c.46-.77-2.78-.38-2.68-2.19.03-.52,1.16-1.08,1.67-1.12l1.42-.11-1.23-1.53c-.25-.31,1.04-.86,1.38-1.14l1.68-1.36c.39-.32,1.23.96,1.54,1.79l1.46-1.23c.39-.33,1.39.58,1.47,1.09s-.72,1.37-1.28,1.75l.36.53.55.82c.99-1.73,2.29-2.86,4.17-2.07.37.16,1.55.43,1.48.82l-.41,2.31c.23.14,1.92.63,2.56.46l2.47-.64c-.36-.69-.78-1.53-.68-1.99.11-.54,1.57-.73,2.09-.7.4-.46,1.19-1.45,1.76-1.63s1.46,1.06,1.74,1.78l1.18-.91c.29-.22,1.13.17,1.31.49.22.4.04,1.58-.33,1.85l-1.55,1.09c-.36.25-.03,1.74.14,1.94.7-1.08,1.73-2.5,2.52-2.38.41.36,1.42,1.26,1.23,1.1-.11-1.33-.24-2.31.21-2.72.55-.5,1.83-.11,2.42.26.64-.16,1.69-.49,2.26-.41.65.09.77,1.96.49,2.52l1.92-.24c.44-.05,1.02,1.3.87,1.78-.4,1.28-2.28,2.03-3.8,1.44l-.05,1.4,2.55.99c.56-.12,1.24-.27,1.72-.26s1.02,1.45.94,1.96c-.31,1.95-1.81,3.87-3.79,4.36-.4-.21-1.12-.88-1.39-.67-.32.25-1.47,1.11-1.23.93l2.64,1.76-1.88,2.43,2.33,1.27,1.7-1.7c.4-.4,1.53.88,1.92,1.67l2.16-1.2-2.2-.71c-.48-.15.3-1.43.42-1.94l.44-1.97c.11-.52,1.8.18,1.95.43l.75-1.9c.18-.46,1.79-.6,1.98-.14l.8,1.95,1.34-1.08c.37-.3,1.67.26,1.61.73s-.34,1.24-.67,2.07c-.43.61-.42,1.02.24.36l1.14-.85c.27-.2.96.49,1.24.8.61.25.9.36.5.2l-.57-2.55c-.13-.58,1.46-1.44,2-1.2s1.05.93,1.82,1.85l1.02-1.61c.58-.92,3.62,1.02,3.17,1.76l-.95,1.58,2.61.34c.62.08.72,3.33.31,3.51l-2.32,1.03c-.7-.44.41.26.7.44.62.02,1.65.28,1.58.65l-.38,2.08s.64-.83.93-1.2c.33-.43,1.95-1.1,2.21-.63s.24,1.08.28,2l1.88-1.47c.41-.32,1.73.79,1.75,1.31.02.6-.71,1.31-1.72,2.29l2.51.74c-.1.73-.31,2.41-.63,3.03-.68,1.31-2.93.61-3.92-.82-.1,1.43.48,2.7,1.81,4.13-.35.85-1.56,1.9-2.99,2.26-.68.17-1.86-1.3-1.92-2.03l-1.49,1.63c-.38.42-1.88-.59-2.02-1.13s.24-1.18.87-2.3l-2.93.46.37,1.52c.19.79-2.87.56-3.55,3.06l3.15.18c.43.02,1.74.64,1.54,1.04l-1.04,2.07,2.55-1.55c.54.14,1.74,1.24,1.91,1.91.18.71-1.09,1.51-2.26,2.09l1.72.63c.47.17.74,1.75.26,1.9l-2.39.73,1.19,1.45,3.15-2.15,1.87,2.33,2.34-1.43-2.35-.76c-.43-.14-.46-1.47-.07-1.71l1.53-.92c-.43-.74-.83-1.74-.61-2.26.39-.91,1.72-1.53,2.29-.27l1.3-1.73,2.96,2.32c.13.1.33.9.47.83.16-.08.56-.24.55-.3l-.13-.83-.26-1.73c-.06-.38.91-1.12,1.24-.92l1.51.87c.42-.56,1.28-1.47,1.87-1.58.76-.14,1.64,1.32,1.61,2.29l1.12.33c.36.1.97,1.1.66,1.27l-1.78.99,1.77-.12c.41-.03,1.08.8,1.14,1.21.08.49-.75,1.31-1.36,1.71l.87,1.1c.8,1.01-2.01,2.02-1.88,2.17l.91,1.06c.18.21.59-.41.91-.83l1.68-1.1c.39-.26,1.42.81,1.64,1l2.05-.78c.49-.19,1.5,1.29,1.32,1.55l-1.22,1.69,1.88-.29c.36-.06.98.67.84,1.01l-.64,1.62,1.93,1.25c.48.31-.19,2.1-.76,2.15s-1.34-.36-2.4-.9l.62,1.33c.16.34-.47,1.24-.85,1.27s-1.27-.31-1.53-.59l-1.62-1.7.21,2.75c.47.23,1.76.86,1.93,1.43s-.9,1.36-1.76,1.93l2.57.75v-.18c.12-.59.46-1.77.89-1.99.52-.27,1.55.63,2.13.67l1.89.13c.44.03,1.16,1.03.99,1.43-.21.49-1.1,1-1.71,1.35l-1.07.62c-.3.17.67.8,1.01.82.79.05,1.35.07,1.79.21s.78,1.44.63,1.88c-.35,1.05-2.52,1.91-3.65.89l-1.65-1.5c-.36-.33-1.8.28-1.79.62l1.31,1.2c.27.24.26,1.05.37,1.47.43.63.97,1.63.69,2.1-.77,1.31-4.19.75-4.21.52l-.2-2.21-1.62,2.29c-.71-.08-2.24-.98-2.36-1.71-.15-.93.72-2.12,1.51-2.93l-1.21.17c-1.01.14-.73-1.09-2.49-.98-.4.02-.15,1.15.14,1.76.2.42-.83,1.59-1.26,1.38l-1.83-.91-.95-.47c-.21-.1-.91.35-.79.55.88,1.5,3.35,1.31,4.56,3.67.31.61-.35,2.26-.92,2.54-.64.31-1.58.09-2.67-.54l-.82,3.27c-.05.22-.71.73-.88.87s.02.82.24.76c1.56-.44,1.73-1.35,3.04-1.5.49-.05,1.36.61,1.88,1.01.19-.51.6-1.48,1.1-1.79s1.85.21,2.21.67c.42.54.37,2.1-.03,2.65l-.63.86c-.16.22.2,1.02.31.99.77-.48,1.73-1.02,2.32-1.06s1.21,1.14,1.47,1.97c.19-.03.7-.76.58-1.06l-.77-1.91,2.17.51-1.09-2.01c-.21-.4,2.34-2.6,3.72-2.66.57-.02,1.1,1.44,1.47,1.87l1.94,2.2c.17.19.87.89.9.64l.21-1.67.13-1.03c.03-.27.84-.54.93-.28l.48,1.35c-.71.8-.38.95.36.54.49-.64,1.43-1.71,1.92-1.42.53.32,1.45,1.2,1.77,1.69s-.88,1.52-1.26,1.69l1.87.89c.41.2-.16,1.81-.62,1.82l-2.1.06s.37,1.03.05,1.1l-1.64.37,1.39.77c.37.21-.35,1.12-.9,1.64l1.16.56c.31.15,1.03-1.86,2.87-1.79.47.02.76,1.38.82,1.85l1.56-.78c.4-.2,1.76.3,1.64.74l-.52,1.9,2.12.63c.52.15.8,1.5.54,1.97-.2.35-.72.89-.97.81l-1.64-.54.61,2.15c.13.44-1.21,1.11-1.61.88l-1.74-1.02c.56,1.68.52,2.83-.45,4.12l3.76-.16.98,1.6c.25.4-.95,1.14-1.67,1.3-1.13-.05-1.05.53-.06.71.89.35,1.84,1.22,1.9,1.86.09.93-.83,2.15-1.58,2.19-2.49.15-1.51-3.07-4.87-3.26l.6,2.94c.09.44-.9,1.79-1.27,1.54l-1.81-1.17-1.8.06c-.43.01-1.15-1.14-.89-1.48l1.45-1.84c-.04-.64-.4-1.25-.53-.09-.6.37-1.17.65-1.52.62-.44-.04-1.52-.79-1.36-1.21s.59-1.06.93-1.56l-2.19-1.19c-.02.77.07,1.97-.32,2.08l-2.02.59,1.21,1.63c.35.47-.41,2-.97,2.19s-1.55-.28-2.24-.44l-1.76.92c-.4.21-.82-1.24-1.03-1.63l-.6-1.15c-.16-.31-1.41-.1-1.24.05l1.53,2.42c.36.57-.81,1.9-1.65,2.27l2.1,1.48c.47-.67,1.7-1.58,2.27-1.31l2.3,1.1,2.21.8c.55.2-.2,1.55-.89,2.07l2.05.21c.5.05.3,1.72.26,2.22l-.17,1.94c-.05.55-1.81.24-2.39-.07-.23.21-.71,1.16-1.11,1.12l-2.15-.18,1.63,1.67-.43,1.27c-.33.99,2.16-1.89,3.74-1.11.65.32,1.51,1.82,1.37,2.29l-2.71,1.2,2.37.24c.44.04.98.96.72,1.33l-1.14,1.6-1.63,2.19-4.34-2.63,1.3,2.74c.11.43-.57,2.05-1.09,2.05s-1.17-.23-1.91-.46l-1.67.68c-.4.16-.85-1.24-1.08-1.59l-1.06-.62c-.3-.17-.54-1.05-.29-1.31l1.06-1.12c.29-.31-.41-1.49-.54-1.46-.43,1.11-1.04,1.79-1.94,1.59-.6-.13-1.12-1.15-1.45-2.39l-.94,2.68c-.25.72-2.06.05-2.76-.97-.84.73-1.66,2.12-1.88,3.26,1.41-.96,3.25-1.14,4.45-.77.5.15.81,1.39.82,2l-2.91.45c-.28.04-.69,1.08-.51,1.04l.98-.21c.56-.12,1.84.51,2,1.07s-.56,1.76-1.16,1.97c-.54.18-1.29-.55-1.94-1.14l-.3,1.81c-.08.49-1.64.93-1.87.49l-1.02-1.88-1.56,1.52c-.44.43-1.97-.74-1.88-1.37s.78-1.42,1.33-1.95l-.83-.97c-.21-.25.4-.92.69-1.27l-2.98-.92.05,2.08c.01.5-1.16.78-1.6,1.02l-1.62.86c-.37.2-1.39-.85-1.2-1.23l.75-1.49-1.73-.36c-.4-.08-.38-1.7.02-1.77l1.55-.28c.14-.02.84.27.97.33s.12-.46,0-.55l-.57-.43c-.28-.21-1.34-.9-1.08-1.12l1.32-1.12c.88-.75,2.06,2.26,2.7,2.03.46-.16,1.66-.58,1.58-.56-2.29-.9-2.65-3.29-4.89-3.51-1.06-.1-2.22.61-2.98,1.44l-4.78-.84c-6.61-1.16-5.34,3.37-11.2,6.3-4.94,2.47-6.6,7.52-6.02,12.65l.92,8.08c1.18,5.54,4.4,9.63,10.09,11.44,1.95.18,3.95.92,5.47,2.32l8.45,1.54,13.55,3.44c-10.54,19.43-26.17,34.7-45.61,44.66-9.9-.88-28.57-5.76-34.79-11.98-.75-.75-1.66-2.91-2.26-3.96-.34-.59-.02-2.2.41-2.71.5-.59,1.88-1.01,3.02-1.29-.8-.79-1.93-3.01-1.81-4.1.07-.63,1.42-1.84,1.99-1.91.65-.08,1.46.2,2.6.59l-.25-2.81c-.06-.62,1.39-1.21,1.89-1.6l1.71-1.35c.41-.32,1.61.71,1.93,1.09l.91-2.42,3.64-.67-.23,2.07c-.06.02-.13.13-.01.12.14-.01.56-.17.62-.3l.38-.91c.17-.42,2.24,1.16,2.63.82l1.69-1.49,3.14-2.89c4.23-2.42,8.87-3.64,13.66-4.88,12.35-3.18,24.82-3.37,37.74-3.08l-4.44-.8c-26.22-3.3-52.61-2.32-78.35,3.79-12.78,3.04-24.54,7.44-36.38,12.83l-4.47,2.03,2.55,1.61c-1.47-.07-3.53-.61-4.49-.1l-6.15,3.3c.63-3.5,3.71-4.61,6.25-5.51,4.18-3.35,8.64-5.53,13.61-8.22-5.88,1.2-15.24,1.06-15.44-1.56l-.15-2.05c-6.86,5.86-12.8,11.65-18.49,18.48,4.67-2.66,8.96-4.9,13.8-6.76l6.55-2.51-21.37,16.17,6.74-2.35c5.04-1.76,10.39-1.73,15.28-.06-2.93.19-5.75.19-8.3,1.45l-11.54,5.73c5.06-.59,9.38-.89,13.79.43-6.56.75-12.19,2.48-17.94,5.08l-6.95,3.14c39.57,23.91,88.67,24.42,127.82-.57,26.35-16.83,44.42-43.74,50.55-74.3.18-.91,1.58-1.7,2.26-1.59.94.15,1.91,1.31,1.65,2.59-6.02,30.17-23.37,57.17-48.83,74.68-39.1,26.9-89,28.47-130.6,5.95C25.32,212.36,1.09,172.6.04,129.44c-.67-27.36,7.6-54.39,23.23-76.82C48.74,16.07,91.89-3.5,136.08.52c1.33.12,2.3,1.06,2.33,2.04.06,1.6-1.03,2.46-2.77,2.32-24.13-2.02-48.38,3.01-69.55,14.84C7.85,52.25-13.68,130,21.53,186.91c.5.81,1.05,1.05,2.02.91,2.24,2.16,4.08,4.63,6.04,7.51-2.09-9.84-5.73-19.22-11.33-27.89,7.9,6.32,12.16,15.01,15.49,24.7-1.91-14.04-6.45-26.7-13.57-39.51,8.95,8.72,13.73,20.18,16.51,32.27l-.04-15.02c-6.8-4.16-7.32-13.7-7.8-21.79l.59-1.82c-.46-4.26-.29-8.43.5-12.85l1.5,2.71c-1.24-6.03-1.07-12.17.28-18.22l1.28,2.75c-.24-3.17-.89-6.16-.55-9.08l1.06-9.2c.05-.77.28-.88.83.13-.02-3.07.1-6.26.72-9.55l.84-4.45c.57-3.02.48-5.86,2.11-8.98l2.66,14.57c.64,3.53.75,6.91.48,10.39l.89-1.89.87,7.41.89,7.61.89,7.63.99,13.24.6,7.09c.61,7.18-.98,20.15-7.11,24.27l.14,21.67c.69-1.32.66-2.45.85-3.84,1.43-10.31,4.47-20.22,9.33-29.5-2.02,11.04-3.83,21.34-4.45,32.55,2.24-6.54,4.63-12.62,8.68-18.26l.03-9.47-1.92-1.05c-.42-.23-.59-1.75-.2-2.02.25-.17.9-.06,1.64.07.76-1.4-.91-1.13-2.08-3.29-.24-.44.58-1.78.99-1.52l.84.54c.13.08.27.09.23-.05-.06-.24-.33-.84-.51-.98l-1.68-1.37c-.46-.37.9-1.75,1.23-1.83l-1.22-1.49c-.29-.36.58-1.29.65-1.66l-1.07-1.31c-.24-.3.56-.91,1.05-1.21-.71-.75-.98-2.41.46-3.23.61.43,1.1,1.85,1.19,2.82.17.37.86,1.35.68,1.71l-.88,1.68c.41-.01,1.84.05,1.7.3l-.88,1.59,1.17,1.43c.35.43-.58,1.71-1.03,2.17l.26.58c.55.19,1.6.96,1.48,1.41-.15.54-.62,1.41-.98,2.02l-.46.76c-.08.13,0,.61.14.53l1.09-.69c.34-.11,1.09,1.54.72,1.97l-1.62,1.87-.1,8.45,4.51-4.48,1.05-10.19.03-5.2-2.09-1.46c-.62-.43-.33-2.46.43-3.11l1.8,1.05-.03-1.79c-.91-.34-1.9-.78-2.14-1.31-.28-.63.19-2.14.56-2.62l1.64,1.02c.04-.7.12-1.63-.12-1.59l-1.19.21-.99-.67c-.26-.17.04-1.4.35-1.34.4.08.8.26,1.85.75-.17.69.01-.05.13-.56v-1.1c-.76-.08-1.54-.25-1.95-.66-.62-.61.19-2.53.7-2.11l.97.79c.13.1.32.14.33-.01.01-.18-.1-.99-.24-1.11l-1.66-1.35c-.43-.35.37-2.09.67-2.06l.89.75c.12.1.31.09.29-.07-.19-1.67-1.1-1.25-1.6-2.8-.18-.55.37-2.29.57-2.21,1.15.29,1.15.29.8.2-.7-1.9-.78-3.47.97-4.08.71.96.71,3.09.44,4.26.34-.14,1.04-.48,1.1-.28l.5,1.57-2.12,3.47,1.63-.77c.39-.19.77,1.54.47,1.87l-2.18,2.35,1.76-.79c.43-.19,1.11,1.5.8,1.83l-2.11,2.24c.09.46.28,1.47.09.49l1.83-.34c.34-.06.23,1.27-.19,1.32-.77.11-2.27,1.07-1.95,2.27l1.63-1.74c1.26,1.06,1.22,2.88-.25,3.63-.85.44-1.33,1.15-1.55,2.4l2.14-1.36c.3.91.56,2.03.49,2.85-.05.66-1.22,1.49-2.18,1.89l-.6,6.63-.18,7.13,3.01-2.03c-.27,2.09-2.96,2.48-3.27,5.76l-1.31,13.95,4-3.44,3.44-17.95c-.95-.9-1.78-2.36-1.66-3.24.03-.22.88-1.22,1.02-1.06l1.03,1.17c.02.08.6-.75.37-.95l-1.15-1.02c-.37-.33-.53-1.39-.2-1.98.29-.51.94-.52,1.99.15l.38-.42-2.13-2.5c-.11-.13.9-.85,1.03-.74l1.12.9-1.69-2.89,2.06.43-1.39-1.66c-.27-.32.27-1.5.52-1.63,1.09.81.95.42.56-.19l-.33-1.98c-.06-.37,1.03-.26,1.18-.23-.43-1.46-.25-2.73,1.6-3.69l.5,3.77c.13.97-.16,1.87-.78,2.78-.65.49-.87.66.12-.09.35.21.97,1.12.73,1.38l-1.3,1.43c-.1-.11.02.02.25.25.16.02,1.05.2.95.33l-.74.87-1.3,1.54.8-.4c.18-.09.67-.68.71-.5l.37,1.65-2.66,1.82,1.32.18c.32.04.99,1,.78,1.21l-1.91,1.58c-.08.1-.15.74-.02.7l1.29-.4-.14,1.99c-.04.59-1.21,1-2.11,1.22l-3.32,17.1,2.26-1.37c.38-.23,1.45-.44,1.6-.04s-.21,1.29-.51,1.59l-4,3.99-2.14,10.51,3.67-3.15,4.68-13.82,4.06-11.94-1.52-2.09c-.35-.48.59-2.38,1.17-2.25.23.05.92.67,1.08.83s.57-.11.64-.33c.31-.96-.6-.69-1.56-2.92-.21-.48.68-1.97,1.17-1.79l1.38.51c1.3.48-.8-1.88-.98-2.99-.09-.55.85-1.66,1.27-1.64,1.2.8,1.23.35.81-.28l-.75-1.49c-.2-.39,1.25-.79,1.91-.79l-1.15-1.92,1.62-.7c.21-.09-.24-.82-.24-1.06l.04-1.5c0-.34,1-.15,1.11-.15l1.47-3c1.59,1.05.88,2.57-.09,3.52.23.23,1.27,1.16.98,1.44l-1.81,1.81.68.15c.23.05.81.81.59.9l-1.14.49-.82.35c-.15.07-.05.66.12.64l1.01-.17.19,1.43c.12.9-2.57,1.1-2.57,1.08,0-.05.02.74.05.74.06,0,.17-.02,1.25-.16.29-.07.73,1.58.47,2.13-.41.88-4.47,1.66-2.92,1.88l1.76.24c.29.11.09,1.76-.29,2.19-1.31,1.49-2.56.41-2.91,1.86-.04.16.04.52.19.47l1.77-.58c.15.88.1,1.49-.44,2.96l-2.48.58-1.64,4.01-2.28,7.81,3.8-3.35c-.46,2.86-3.2,4.31-4.65,6.69-1.59,2.59-2.16,5.62-3.24,8.74l4.23-1.62,7.99-15.91-.76-2.24c-.2-.6,1.03-2,1.37-1.85l.82.81c.1.1.61.24.56.11l-.39-.97c-.19-.46-.5-1.94-.13-2.27.44-.4,1.16-.44,2.4-.65l-1.1-.85c-.24-.19.02-1.56.31-1.47l1.71.53-.45-1.85c-.13-.54.98-1.33,1.72-1.63-.02-.15-.35-1.03-.08-1.17l1.34-.67.08-1.54c.02-.36,1.18-.39,1.39-.37.43-.98.98-1.76,2.3-2.04l-.52,2.64-.88,2.76c-.24.75-1.5,1.52-2.27,1.58l.96.67c.21.15.24.94-.01,1.01l-1.26.34-.99.26c-.15.04-.19.31-.05.37l1.16.5c.21.09.4,1.07.17,1.12l-1.54.37-.83.2c-.15.04-.15.58,0,.63l1.03.36c.12.19-.08,1.36-.48,1.62-1.35.85-2.83.26-2.83.74,0,.2,0,.75-.01.77-.02.02.91-.01,1.2-.02.61-.01.26,1.77-.19,2.22-.54.53-1.54.67-2.79.51l-4.99,9.92-2.02,4.66,6.68-4.52-3.02,3.39c-1.31,1.47-2.36,2.56-4.05,3.66s-2.22,3.87-3.08,5.71l-4.08,8.76c2.74-2.22,3.53-4.95,5.92-8.09l-1.2,3.93,6.99-4.96,9.97-6.56,4.31-2.89.78-.47c.18-.1-.56-.27-.74-.17l-3.16,1.7c-1.06-.92-1.54-2.34-1.07-3.41.34-.77,1.56-.88,3.19-.86l-1.44-1.05-.08-2.85,5.33-.83c-.62-.53-1.67-1.49-1.79-2.14-.31-1.61,1.97-4.96,2.24-4.97l2.92-.11.72-1.95c.22-.6,2.07.47,2.27.92-.04-.72.63-2.1,1.36-2.13,1.34-.05,2.2.49,2.85,1.7l2.39-1.38.1-2.4-1.5-.84c-.5-.28-.33-2.11.21-2.28l2.27-.72c-.74-.51-1.63-1.88-1.45-2.8.2-1.05,1.52-1.86,2.73-1.44l-.17-1.6c-.06-.53,1.63-.8,2.17-.64l3.34.96c-.25.68-.07.21.23-.61.42-.74-1.44-2-.65-2.75l1.47-1.4c.4-.38,1.23-1.69,1.72-1.48l1.96.85.98-1.1c.22-.25,1.14.02,1.36.05.61-.54,1.36-1.18,1.9-1.37.63-.23,1.98.78,2.37,1.32h1.32c.32,0,.78.86.9,1.07.52-.31,1.48-.8,2.04-.86.66-.07,1.19,1.64,1.56,2.15l1.79,1.26c.41.29-.66,1.35-1.1,1.66l1.14,1.62,2.68-1.92c.57-.41,1.89.36,2.73.76l1.58.75c.4.19-.04,1.46-.03,1.73l1.57,1.16c.42.31-.32,1.65-.53,2.01.28.57.74,1.71.67,2.35-.08.71-1.18,1.23-2.27,1.04l.32,1.67-.32.82c-.35.89,1.42-.7,3.46-1.11l1.87-.38c.39-.08.83,1.03.95,1.34.65-.1,1.87.01,2.21.49s.06,1.78-.3,2.38c.56.17,1.53.54,1.78,1.06.35.76-.64,2.11-1.31,2.26l-1.01.24c-1.03.24,2.19.45,2.15.72l-.27,2.14,5.12-2.33c3.93-1.79,6.11-5.7,7.32-9.68.81-2.67.98-5.07,1.29-7.94.68-6.19-1.08-13.08-6.49-16.77-2.51-1.72-4.35-3.19-6.13-5.93-.68-1.05-3.21-2.16-4.43-2.23l-2.91.84c-.17.05-.67.63-.5.64l.99.06c.45.03,1.53,1.21,1.17,1.45l-1.83,1.26-1.67,1.03c-.47.29-1.1-1.45-1.06-2.13-.05-.01-.64-.2-.46-.15-.55,1.02-.95,1.73-1.56,2.34-.49.48-1.95-.46-2.22-1.22l1.58-2.16-2.79.58c-.16-.79-.11-2.35.41-2.57s1.46-.33,2.12-.4c-.18-.32-.7-1.65-.34-1.69l1.58-.16c.17-.02.8.24.97.29.25.07.54-.55.56-.76l-2.93-1.58c-1.33-.72-2.21-.99-3.26-1.79l-1.15,1.01c-.35.3-1.19-.79-1.4-1.26-3-.37.85,2.21.46,3.1-.18.41-.91,1.04-1.34,1.18s-1.25-.49-1.53-.83l-.59-.72c-.1-.12-.57-.15-.5-.02l.49.9c.22.4.6,1.34.64,1.79s-.82,1.12-1.27,1.19c-.53.09-1.36-.77-1.55-1.18l.07-1.12c.02-.29-1.31-.37-.9-.23l-.09,2.2c-.02.5-1.5.99-1.88.66s-.93-1.37-.83-1.86c.12-.59,1.12-1.01,2.15-1.59-1.71-.25-3.47.86-5.22,1.91l-2.51,1.44c.88.71,1.6,1.28,1.9,1.73.37.54-.61,2.08-1.24,2l-2.7-.36,1.71,1.66c.42.4-.36,1.88-.89,2.15-.55.28-1.87.57-2.01.13l-.71-2.15-1.12,2.87c-.2.51-2.21.45-2.38-.1s.05-1.47.44-2.64l-2.46.19,1.64-2.79-1.9,1.24c-.4.26-1.31-.8-1.59-1.22l-1.92,1.78,1.82.57c.38.12.37,1.49-.01,1.6l-1.82.54,2,1.12c.48.27-.27,1.82-.71,2.14-.54.41-1.68.2-2.36-.32l-1.14,1.33c-.33.38-1.93-.13-2.01-.63s.08-1.2.42-2.48l-2.01-1.09c.13,1.14-.27,3.27-1.04,3.02-1.22-.41-2.02-.68-3.03-.58-.6.06-1.56-1.47-1.24-1.98.4-.65,1.04-1.17,2.27-2.29l-2.77.21-.41-2.23c-.1-.52.92-1.02,1.72-1.35.3-.34.57-1.34,1.02-1.42l2.52-.46-3.63-.88,2.52-2.44-3,.95c-.23-.13-1.01-1.07-.82-1.37l.99-1.54s-.46-.53-.46-.53l-2.93,2.48,1.3.96c.56.41-1.89,3.16-2.97,2.22-.47-.41-.73-1.46-1.02-2.7.43-.17-.59.24-.85.34-.33.13.82,1.7.49,3.24-.11.53-1.5.88-2.18.93-.44.03-1.64-.57-1.73-.99-.32-1.5,1.96-2.11.81-4.19-1.2,1.36-1.93,2.27-3.46,3.33-.58.4-2.26-1.06-2.16-1.77s.95-1.77,1.6-2.13l.92-.52c.14-.08.2-.41.05-.46l-1.32-.38c-.62-.18-1.64-.73-1.75-1.28-.15-.77,1.03-1.92,1.67-1.8.51.1,1.46.33,1.4.11s-.13-1.12-.02-1.32c.45-.8,2.51-.28,3.36.55l-.06-1.3c-.01-.32.63-.58,1.27-.92l-1.02-.58c-.32-.18-.44-.94-.57-1.5l-2.13,1.39c-.22-.24-.66-.93-.48-1.12l1.21-1.3-2.57,1.3c-.59.3-1.95-.76-1.8-1.49.21-1.09.97-1.65,2.35-2.1l-.19-.57c-.85-.42-1.2-1.58-.63-2.22.41-.47,1.71-.41,2.65-.13l.08-1.52c.02-.44,1.65-.58,1.92-.24.95,1.21.45,3.18.86,2.66l.5-.65.98-1.27c.26-.34,1.09.97,1.46,1.17l.85.46c.17.09.03-.55-.04-.67l-1.39-1.3c-.27-.25.52-1.09.66-1.22l-1.86-.92c-.41-.2.16-1.78.63-1.79l1.94-.05.47-1.73c.15-.54,1.91-.62,2.16-.12l1.04,2.2.87-1.92c.24-.53,2.2-.3,2.29.28s-.01,1.41-.14,2.61l2.72-1.51.51,2.1,2.63-.09-.8-1.15c-.21-.3.59-1.07.82-1.29l-1.82-.36c-.36-.07-.79-1.05-.52-1.3l1.13-1.04c-.15-.67-.08-1.99.44-2.34.64-.43,2.19,0,2.8.32.24-.56,1.33-1.5,2.01-1.29,1.13.35,1.46,1.18,1.23,2.83l1.1-.03c-.18-1.46.12-2.9.95-4.34l3.18.13-1.23-2.05c-.32-.53,1.45-1.54,2.05-1.41l1.28.28c.33.07.36.89.12,1.13l-.64.63c-.16.16.46.54.63.71s.34-.9.51-1.07l1.52-1.46c-1.07-1.52-4.01-2.62-5.66-1.24-1.42,1.49-1.69,3.69-3.63,3.61-.72-.03-1.59-.95-2.25-1.93l-4.35.53c-.31.04-1.28-.6-1.49-.84s.14-.62.73-1.41l-5.41-2.48-2.1,1.96c.33.09,1.09.11,1.58.03.58-.1,2.07.52,2.07,1.11s-1.04,1.46-1.63,1.86l1.05,1.46c.31.44-.92,1.47-1.44,1.58-1.23.27-1.39-2.4-2.86-2.18.76.97,1.55,2.61,1.16,3.5-.19.44-2.01.59-2.27.19l-1.21-1.91-.76,3.45-1.42-.68c-.25-.12-.55.14-1.27.5-.99.5-2.63-1.32-2.39-2.43l2.74-1.42-2.14.15c-.51.04-1.76-.85-1.49-1.26.45-.7,1.7-1.55,2.09-1.71l-1.08-1.72-1.15,1.8c-.28.45-1.53-.58-1.71-1.25-.07-.15-1.04-.08-1.01.21l.15,1.39c.07.65.7,1.66.38,2.04s-1.32.94-1.81,1.15l-1.55.67c-.39.17-1.28-.57-1.47-.97l.13-3.5-2.03,2.49c-.49.12-1.74.1-2.26-.07s-.9-1.69-.47-2.03l2.08-1.7-2.74-.56c.2-1,.61-1.98,1.43-2.87.57-.63,2.14-.2,3.12.27l-.81-1.81c-.19-.42,1.43-.76,1.88-.64l1.27.33c.3.08-.04-.89-.21-1.06-.37-.1-1.66-.4-1.59-.74l.4-1.76c-1.14.62-2.08,1.16-2.7,1.12s-1.54-1.53-1.14-2.02,1.4-.93,2.52-1.48l-1.76-1.01c.11-1.69,2.78-3.51,4-3ZM157.77,20.9l-.03-1.59c-.02-.97-.18-2.16-.41-2.99-.33,2.47-1.36,3.29-3.43,4.57h3.87ZM158.2,34.68c-2.4-1.27-2.3-4.32-4.54-4.45.65,2.7,1.85,4.71,3.77,6.92l.78-2.47ZM152.67,35.65c.65-.38-.01-2.33-.69-2.82-.55-.41-2.28-.06-3.09.27l-.73,2.22,4.51.34ZM196.67,48.85l1.8,1.29-.59-2.05c-.13-.45,1.73-.88,1.86-1.36l1.65-6.01c-.65,0-1.57.8-1.82,1.37-.18.4.1.98.22,1.67-2.87,1.62-5.4,3.11-6.01,6.19l2.89-1.1ZM170.12,67.54c-2.49.6-3.35-.51-3.29-1.63.04-.68.79-1.59,1.51-2.31l-1.09-2.03c-.26-.48.77-1.54,1.07-1.99.13-.19-.56-1.14-.69-.95l-.66.93c-1.63,2.3.56,5.24-3.14,6.31-.85,2.64.63,5.71,2.95,7.77,1.39-1.83,2.5-3.92,3.34-6.1ZM160.6,69.74c.08-2.75-.08-3.5-1.08-4.93-1.36.71-3.81-.13-4.13-1.49-.38-1.58-.88-2.37-1.98-3.38l-.6,1.92,4.26,5.66c.91,1.21,2.32,2.15,3.53,2.22ZM157.18,83.86c-.32-.97-.72-2.24-.2-2.35l2.07-.45,1.2-1.64c.29-.39,1.81-.04,1.87.45l.26,1.86,1.47-.81c.18-2.92-.74-6.14-3.11-8.11-.84-.7-3.11-.57-4.25-.46l-2.9-4.67-1.82-3.49c-.3-.07-1.35,1.03-1.47,1.77-.09.55.67,1.1,1.88,1.65l-.79,1.88c-.21.5-1.81.52-2.24.46l.7,4.44c.14.87,1.15,2.72,1.56,3.11l2.49-1.09c.47-.21,3.39,1.54,3.03,3.14-.12.51-1.03,1.15-1.56,1.43l-1.64.87c.39,1.53,2,2.24,3.44,2.01ZM178.76,66.4c-1.23.03-2,.23-3.1.75l-.92.44c-.13.06-.06-.41-.06-.56v-.9c-.61.43-1.12,1.78-1.12,2.59,1.55-.41,2.31-.51,3.87-.44l1.32-1.89ZM145.56,68.53c-.85.69-1.76,1.36-2,1.07l-1.03-1.26-.94-1.25c-.21-.28-1.27.44-1.18.78l.38,1.34c.26.91,1.11,2.24,1.85,2.56l4.33,1.88c-.24-2.12-.71-3.74-1.41-5.12ZM137.64,84.35c.98.41,2.15.84,2.35.48l.99-1.72c.26-.45,1.01-1.53,1.5-1.35l1.9.72-1.96-1.92c.7-1.37,2.78-1.92,4.96-1.01-.24-3.24-3.18-4.3-5.87-5.55l-3.31-2.79c-1.67-1.41-3.11-2.32-5.19-2.86l-2.06-.53,3.97,3.37c.45.39,1.16,1.83.68,2.08l-1.84.95c-1.04.53-2.27.6-3.62.23.09,1.21,1.19,3.05,2.33,3.6.48-.79,1.11-1.76,1.51-1.55l1.45.76,1.59-.9c.41-.23,1.5.34,2.02.72s1.43,1.94.92,2.29l-1.84,1.27,2.61.47c-.15,1.86-1.77,2.91-3.08,3.26ZM183.07,77.66l-.11-1.66c-.02-.29-1.33-.07-1.3.22l.46,4.54-3.48-.44.38-2.63c-.03-.89-.56-.86-.67.14-.04.53-1.32,1.94-1.62,1.52l-1.28-1.76-1.56.28c-.35.06-1.14-.77-.93-1.05l1.05-1.38-2.09-1.61c1.67-1.37,2.72-1.07,4.74-.92l-4.42-2-1.9,3.82c-1.21,2.43-1.62,5.09-.9,7.38.78-.34,2.1-.64,2.25-.17l.72,2.36c-.04.99.44,1.03.59.02.32-.7.9-1.62,1.36-1.66,1.29-.11,3.57,2.14,3.29,2.6l-1.24,2.01,1.6.73c.26.12.41.68.79,1.42,1.53-2.53,2.62-5.02,3.57-7.96l1.56-1.88c-.4-.72-.8-1.48-.83-1.93ZM125.09,79.62c.23.07,1.3-.88,1.45-.69l.7.91.66.85c.09.12.17-.43.17-.58.06-2,.95-1.94.17-3.37-.49-.9-2.5-.6-2.36.13l.26,1.39c.03.19-.5.57-.64.44l-.81-.72c-.37-.33-1.36-1.07-1.69-.74l-1.36,1.38,3.46.99ZM189.78,80.66l1.3-2.85c.15-.32.34-1.11.02-1.11l-1.42-.02c-.3,2.13-1.53,3.48-3.62,3.77l-1.82,4.63c3.27-.12,4.42-1.98,5.54-4.42ZM215.45,79.99l2.52-1.34c.24-.13.4-.6.49-.9.08-.27-1.29-.58-1.54-.46l-3.74,1.71,2.27.99ZM111.45,87.71l5.1.97c.26.05.93-.82.74-1l-.67-.6c-1.74-1.56-3.36-3.28-4.49-5.09l-1.41.39,3.06,3.38-2.33,1.95ZM187.47,95.11c.15,0,.85-.24.71-.31l-.82-.43c-.53-.27-1.21-1.69-.85-2.15.79-1.02,4.58-1.18,4.77-.66l.88,2.4c.35-1.36.49-2.43.85-3.05.75-1.28,4.07.68,4.21.18l.3-1.03c.07-.23-.73-.55-.98-.6l-3.45-.77c-.78-.17-1.12-2.13-.55-2.72.42-.44,1.36-.69,2.47-.92.09.23.23-1.12-.09-1.15s-1.33,0-1.65.18l-5.59,3.25c-7.02,4.08-5.5,7.56-6.26,7.76l-2.52.63c-.08-.45.12.66.13.7.73.14,1.52.38,1.34.63l-.62.9c-.17.25-.66,1.18-.38,1.26l1.25.34c.62.17-.26-1.27.98-2.96.28-.38,1.77-.13,1.97.3.43.91,1.59,2.49,2.99,1.6l-1.84-1.55c-.24-.35-.02-1.96.56-1.93l2.18.11ZM108.4,89.56l-4-2.6-1.39-2.25c-.12-.19-.85-.5-1.1-.61-.14-.06-.11.54-.01.66l.49.56c.88,1,1.23,2.06.39,3.26-.36.51-.56,1.57-.19,1.88.31.25,1.38.6,1.81.45l4-1.33ZM151.57,86.9c-.34-.82-.65-1.98-1.01-1.9l-1.32.3c-.28.06-1.07.69-.85.87l.8.66,1.3.89c.29.2,1.28-.71,1.08-.83ZM145.36,92.34c.76-2.06,1.05-2.16,2.79-2.4l-.67-2.07c-2.37,1.07-3.46,3.71-2.82,4.07.26.15,1.23.7.71.4ZM203.58,93.07c.63-.07,2.22,1.12,2.37,1.32l1.58-2.05-2.52-1.52-4.95,1.82,1.48,3.65c.23-1.09.72-3.08,2.04-3.22ZM139.2,96.11c.18-.44.98-1.54,1.39-1.33l2.11,1.1.12-2.62-5.19,1.67c-.42.13-1.61-.06-1.69-.44l-.39-1.84c-1.36.69-1.37,1.82-.96,3.49.23.93.93,2.26,1.48,1.86.89-1.34,1.9-2.19,3.12-1.89ZM136.24,106.21l1.75-.53c.13-.04-.04-.63-.21-.61l-1.01.17c-.35.06-1.31.24-1.5-.06l-.88-1.34-1.01-1.55c-.19-.29.12-1.01.32-1.76-3.25-1.67-5.45.03-6.76-2.53-.41-.8-1.62-1.35-2.12-1.11l1.74,2.34,1.27,1.07c.27.22-.68,1.29-1,1.16l-1.27-.52c-.76-.99-1.95-1.28-2.77-.31l4.69,5.88c2-.5,2.55.53,3.56,2.14.31-1.56.77-2.91,2.03-2.76.79.09,1.69,1.13,2.15,1.86l.56.89c.82,1.3.28-2.4.46-2.46ZM117.85,103.09c.27-.6,2.09-.29,2.58.28.67.78.63,1.45-.18,2.58.82.57,2.03.59,3.63-.06l-5.45-7.05-1.77,1.76c.3.6.89,1.71.59,2.07l-1.36,1.65,1.05.42c.3.12.6-.97.9-1.65ZM163.95,106.51c-.27-.2-.83.58-.64.73l.93.72c.51.39-.32,1.73-.94,2.22-.5.39-1.88.04-2.45-.52l-2.31-2.29c.43-1.14.68-2.42.67-3.34-1.06,1.58-1.39,2.17-2.88,2.64,1.03,3.76,2.97,8.16,6.63,10.27l5.17,2.99c.25-4.36-.31-8.34-1.04-12.05-1.12.08-2.53-.9-3.14-1.36ZM218.87,104.32l-3.77.96-1.65-1.64-.35,3.18c2.52-.88,3.61-1.21,5.77-2.51ZM177.97,111.66l2.69-4.63c.11-.19-.66-1.29-.7-1.07s-.37,1.22-.58,1.27c-.68.16-1.67-.09-3.16-.43l1.76,4.86ZM208.28,109.5c.37-.2.26-2.18-.09-2.09l-1.47.39c-2.02.54-3.75,1.97-3.77,4.57l5.33-2.88ZM125.97,118.65c.25-1.32.17-2.52-.33-2.74l-1.99-.88c-.36-1.57,1.77-3.58,3.74-3.1l-1.5-2.58-3.51-.42c-.18.82-.35,1.93-.85,1.97l-2.36.2-1.33.11c-.18.02.44.53.46.51l1.73.33c.39.07.38,1.65,0,1.73l-2.23.5,3.55,1.7,4.62,2.67ZM188.97,119.41l1.55-5.95c-1.54.85-2.08,1.23-2.83,1.33s-2.12-1.17-1.94-1.83c.15-.55,1.95-.47,2.16-.25l1.55-2.11c.08-.51-1.81-.93-2.44-.85l.71,2.06-2.87-.58c-3.7,4.54-3.63,8.73-2.57,14.66l2.89-2.36c1.11-.91,3.39-2.59,3.78-4.11ZM222.26,114.22c-.46-.29-1.35-.73-1.3-1.08l.18-1.37-3.02-.8c-1.23-.33-2.49-.3-3.96.19,1.62,2.05,4.02.22,5.84,4.49l2.25-1.44ZM156.01,114.71l-2.68-3.68-2.48,2.32c1.22,1.1,3.33,1.61,5.16,1.36ZM192.95,118.44l4.73-2.82-2.11-2c-.27.56-.99,1.23-2.02,1.71-.47.41-.69,1.83-.6,3.1ZM165.93,134.78c1.7-6.45-3.42-13.09-8.25-15.65-1.28-.68-3.64-1.31-4.97-1.43l-3.12-.28-.55,2.09,2.7-.33c.53-.06,1.24,1.4.87,1.78l-1.14,1.21,3.72,5.42c1.14,1.66,2.92,2.8,4.67,3.78l6.07,3.4ZM200.06,129.56c5.92-1.83,5.82-5.25,5.96-5.28l1.85-.3.45-1.6,1.65-.42c.36-.09,1.47-.6,1.31-.56-2.42-1.45-1.57-3.86-3.98-3.63l.68,1.99c.24.71-2.39,3.16-3.73,2.1-.57-.45-.92-1.82-.96-2.61l-.08-1.62c.02.31-7.54,1.58-10.67,5.74l-4.28,5.67c-2.11,2.8-4.07,5.66-3.53,9.44l4.53-1.75c4.88-1.89,4.31-4.59,8.58-5.93,1.14-4.14,3.02-9.95,5.7-9.1-1.65,2.92-2.71,4.94-3.49,7.86ZM141.61,122.55l-1.8-3.25c-.71.04-1.35,1.67-.78,2.45.67.91,2.22,1.23,2.57.79ZM116.05,128.77l-.94,2.37,2.11-2.19,4.07-2.15c-.27-1-.3-2.33.21-2.73.44-.34,1.57-.49,2.36-.72l1.25-.37c.24-.07-.14-.58-.36-.67l-.91-.37c-.53-.22-1.8-.99-2.17-.57l-1.51,1.7-1.81.74-.83,2.01c-.15.37-1.56.27-1.77-.07l-.91-1.48-.03,2.34-3.21.46c.47,1.78,5.18-.14,4.45,1.7ZM148.41,125.66c-.47-1.42-.99-2.09-1.92-3.15l-1.05-1.74-1.7,3.3,4.67,1.59ZM216.84,133.08l-2.16-3.03-2.23,1.31-2.45-.56c-1.19-1.37-3.52-2.23-5.35-.92l-3.62,2.59,5.65,1.19,4.01-1.23c1.12-.34,2.44.28,3.27,1.39l2.86-.75ZM221.9,136.99l.94-1.11-4.05-3.2c-.5.19-.76,1.05-.32,1.18.7.45,1.18.81.97.96l-.91.66.66.68.86-.45,1.84,1.28ZM218.34,139.3c-.38-.6-.8-1.14-1.2-1.13-2.26.09.36.67,1.52,4.43.23-.18.93-1.31.69-1.69l-1.01-1.62ZM169.51,154.25c.49-2.62.45-5.28-.46-7.75-.36,2.71-.51,5.12.46,7.75ZM55.06,187.42l2.95-3.52,1.11-14.73c-1.78,2.31-4.09,4.95-4.09,7.7l.02,10.55ZM49.26,196.65c1.74-3.14,3.99-5.73,4.74-8.49s-.12-6.25.03-9.02c-1.16,2.6-2.16,5.23-2.72,7.86l-2.05,9.65ZM58.23,196.37c.81-.79,2.1-2.26,2.29-3.23l1.85-9.32c-1.93,2.03-3.04,4.17-4.02,6.6l-.12,5.96ZM66.74,196.67l3.32-6.58c-2.93,1.38-4.25,3.58-5.2,6.27l-1.37,3.88c1.17-.76,2.51-2.13,3.24-3.57ZM57.48,197.09l-.61-3.87c-1.55,2.99-2.65,5.87-3.11,9.34l3.73-5.47ZM63.63,197.04l-.42-.76c-2.24,2.45-2.83,4.79-2.52,7.69,1.8-2.2,2.1-3.95,2.94-6.93Z" fill="#243b2f"/>
    <path d="M112.13,204.5l14.32-1.25,2.63-1.94c.8-.59,1.93-2.19,2.93-3.36l-10.19-1.84,12.04-1.25c2.9-.3,5.57-2.3,7.98-3.58l-4.42-.76c2.48-2.24,5.32-.41,7.66-1.14l8.9-2.76,5.02-1.59-6.43-.28c3.04-1.01,5.8-.23,8.66-.36l6.44-.3-8.33,2.73c-9.23,3.03-19.92,6.62-25.96,14.15-3.4,4.24-3.02,9.63.72,13.49,8.58,8.87,22.94,12.27,34.94,15.22l-6.44,2.78c-8.25-1.81-16.04-4.32-23.32-8.52-6.71-3.88-12.78-9.94-11.59-17.66-5.29-.33-10.12-.34-15.58-1.78Z" fill="#6a7f50"/>
    <path d="M107.73,226.78l20.4-2.93,3.91-1.37c1.48.69,3.08,2.57,3.27,4.56-9.4.28-18.25.87-27.59-.26Z" fill="#6a7f50"/>
    <path d="M122.34,238.35c8-1.23,15.93-2.27,23.74-4.72.9-.28,1.84-2.16,6.65,1.64-10.18,2.57-20.01,3.89-30.39,3.08Z" fill="#6a7f50"/>
    <path d="M75.39,193l-3.14,6.28c-.21.47-1.57.13-2.18-.19l10.47-16.82,1.91-3.42-.37-2.32c-.1-.61,1.9-.86,2.42-.76l.02-2.9,1.78-.16c-.08-1.54.58-2.26,1.6-3.05l1.86-1.44,2.24-1.64-2.23,4.76-2.41,4.86-1.61.55c-.28.1.65.93.65,1.23.02.94-1.89,2.21-3.12,1.47l-1.91,3.63-5.98,9.92Z" fill="#233a2e"/>
    <path d="M126.18,216.23l-19.72-.61-.58-1.01,16.03-1.38c1.08-.09,2.14-.87,3.7-1.79l.56,4.78Z" fill="#6a7f50"/>
    <path d="M126.6,37.56c-.37,1.21-2.22-1.06-4.11.58-.3.26-1.51.85-1.64.5l-.59-1.55c-.15-.38-.22-1.68.17-1.72l2.03-.23c-.69-1.14-.84-2.69.29-3.73.5-.46,1.61-.95,2.07-.7s1.24,1.1,1.37,1.61c.23.93-2.99,2.81-2.14,3.05l1.19.33c1.14.32,1.69.78,1.36,1.86Z" fill="#233a2e"/>
  </g>
  <g>
    <path d="M597.89,157.92c-.69,4.57-13.69.27-21.16-3.3l-8.15,4.24c-.54.28-1.87.16-2.34-.14s.42-1.79.9-2.07l7.23-4.22c2.99-1.74-.99-16.24,7.74-20.82,2.42-1.27,3.89,2.86,4,5.28,1.04-1.42,1.94-3.68,2.38-5.73,1.13-5.3,5.04-9.65,10.86-9.53.96,1.9,1.57,4.77,2.18,7.42,4.05-5.69,10.09-10.8,11.24-8.39l1.38,2.9,12.54-2.39c.27,5.12-2.76,8.02-5.34,11.35l1.47,3.85c.4,1.06-1.4,3.51-2.37,4.1-3.63,2.18-7.47,2.42-11.88,3.02,2.64,1.48,6.85,2.71,5.79,5.99-1.29,4.01-7.28,5.64-11.15,4.75l-9.87-2.28c2.31,1.82,4.98,3.02,4.54,5.97ZM586.34,146.21c-2.43,2.75-6.01,3.46-8.42,6.27l14.92-7.4c3.28-1.63,7.7,1.08,11.07,1.04-2.23-1.28-4.78-1.91-8.05-2.83l17.31-10.98-8.14,3.92-.66-2.67c-.54,1.6-1.74,3.96-3.22,4.79l-11.52,6.39.48-2.8-3.77,4.27Z" fill="#243b2f"/>
    <path d="M872.27,144.25l-225.18-.02c-.89,0-1.83.01-1.84-.36l-.05-1.55c-.01-.37,1.15-.56,1.89-.56l223.85-.03c1.06,0,1.61.94,1.33,2.52Z"/>
    <path d="M548.06,144.23l-218.61.03-.02-2.51,219.29.04c.83.6.7,1.92-.66,2.44Z"/>
    <path d="M586.34,146.21l3.77-4.27-.48,2.8,11.52-6.39c1.48-.82,2.68-3.19,3.22-4.79l.66,2.67,8.14-3.92-17.31,10.98c3.27.93,5.81,1.56,8.05,2.83-3.37.04-7.79-2.67-11.07-1.04l-14.92,7.4c2.41-2.81,5.99-3.52,8.42-6.27Z" fill="#6a7f50"/>
  </g>
</svg>